Bungee-Hairline.ufo
<glyph name="quotedbl" format="1">
  <advance width="646"/>
  <unicode hex="0022"/>
  <outline>
    <contour>
      <point x="163.0" y="630" type="line"/>
      <point x="163.0" y="435" type="line"/>
      <point x="173.0" y="435" type="line"/>
      <point x="173.0" y="630" type="line"/>
    </contour>
    <contour>
      <point x="473.0" y="630" type="line"/>
      <point x="473.0" y="435" type="line"/>
      <point x="483.0" y="435" type="line"/>
      <point x="483.0" y="630" type="line"/>
    </contour>
  </outline>
</glyph>
<glyph name="dollar" format="1">
  <advance width="650"/>
  <unicode hex="0024"/>
  <outline>
    <contour>
      <point x="328.0" y="720" type="line"/>
      <point x="328.0" y="626" type="line"/>
      <point x="338.0" y="626" type="line"/>
      <point x="338.0" y="720" type="line"/>
    </contour>
    <contour>
      <point x="328.0" y="94" type="line"/>
      <point x="328.0" y="0" type="line"/>
      <point x="338.0" y="0" type="line"/>
      <point x="338.0" y="94" type="line"/>
    </contour>
    <component base="S"/>
  </outline>
</glyph>
<glyph name="quotesingle" format="1">
  <advance width="356"/>
  <unicode hex="0027"/>
  <outline>
    <contour>
      <point x="173.0" y="630" type="line"/>
      <point x="173.0" y="435" type="line"/>
      <point x="183.0" y="435" type="line"/>
      <point x="183.0" y="630" type="line"/>
    </contour>
  </outline>
</glyph>
<glyph name="parenleft" format="1">
  <advance width="429"/>
  <unicode hex="0028"/>
  <outline>
    <contour>
      <point x="294.0" y="21" type="line"/>
      <point x="215.0" y="21"/>
      <point x="167.0" y="42"/>
      <point x="167.0" y="124" type="curve" smooth="yes"/>
      <point x="167.0" y="595" type="line" smooth="yes"/>
      <point x="167.0" y="677"/>
      <point x="214.0" y="698"/>
      <point x="294.0" y="698" type="curve"/>
      <point x="294.0" y="708" type="line"/>
      <point x="206.0" y="708"/>
      <point x="157.0" y="683"/>
      <point x="157.0" y="595" type="curve" smooth="yes"/>
      <point x="157.0" y="124" type="line" smooth="yes"/>
      <point x="157.0" y="36"/>
      <point x="207.0" y="11"/>
      <point x="294.0" y="11" type="curve"/>
    </contour>
  </outline>
</glyph>
<glyph name="comma" format="1">
  <advance width="384"/>
  <unicode hex="002C"/>
  <outline>
    <contour>
      <point x="259.0" y="170" type="line"/>
      <point x="125.0" y="170" type="line"/>
      <point x="125.0" y="160" type="line"/>
      <point x="249.0" y="160" type="line"/>
      <point x="249.0" y="51" type="line" smooth="yes"/>
      <point x="249.0" y="-3"/>
      <point x="219.0" y="-30"/>
      <point x="171.0" y="-30" type="curve" smooth="yes"/>
      <point x="125.0" y="-30" type="line"/>
      <point x="125.0" y="-40" type="line"/>
      <point x="171.0" y="-40" type="line" smooth="yes"/>
      <point x="225.0" y="-40"/>
      <point x="259.0" y="-10"/>
      <point x="259.0" y="51" type="curve" smooth="yes"/>
    </contour>
  </outline>
</glyph>
<glyph name="slash" format="1">
  <advance width="347"/>
  <unicode hex="002F"/>
  <outline>
    <contour>
      <point x="221.0" y="720" type="line"/>
      <point x="117.0" y="0" type="line"/>
      <point x="127.0" y="0" type="line"/>
      <point x="231.0" y="720" type="line"/>
    </contour>
  </outline>
</glyph>
<glyph name="one" format="1">
  <advance width="601"/>
  <unicode hex="0031"/>
  <outline>
    <contour>
      <point x="138.0" y="85" type="line"/>
      <point x="472.0" y="85" type="line"/>
      <point x="472.0" y="95" type="line"/>
      <point x="318.0" y="95" type="line"/>
      <point x="318.0" y="630" type="line"/>
      <point x="158.0" y="630" type="line"/>
      <point x="158.0" y="620" type="line"/>
      <point x="308.0" y="620" type="line"/>
      <point x="308.0" y="95" type="line"/>
      <point x="138.0" y="95" type="line"/>
    </contour>
  </outline>
</glyph>
<glyph name="two" format="1">
  <advance width="639"/>
  <unicode hex="0032"/>
  <outline>
    <contour>
      <point x="204.0" y="328" type="line" smooth="yes"/>
      <point x="163.0" y="314"/>
      <point x="149.0" y="295"/>
      <point x="149.0" y="246" type="curve" smooth="yes"/>
      <point x="149.0" y="90" type="line"/>
      <point x="498.0" y="90" type="line"/>
      <point x="498.0" y="100" type="line"/>
      <point x="158.0" y="100" type="line"/>
      <point x="158.0" y="246" type="line" smooth="yes"/>
      <point x="158.0" y="291"/>
      <point x="170.0" y="306"/>
      <point x="208.0" y="319" type="curve" smooth="yes"/>
      <point x="441.0" y="396" type="line"/>
      <point x="462.0" y="405"/>
      <point x="476.0" y="421"/>
      <point x="476.0" y="452" type="curve" smooth="yes"/>
      <point x="476.0" y="543" type="line" smooth="yes"/>
      <point x="476.0" y="610"/>
      <point x="437.0" y="630"/>
      <point x="369.0" y="630" type="curve" smooth="yes"/>
      <point x="168.0" y="630" type="line"/>
      <point x="168.0" y="620" type="line"/>
      <point x="369.0" y="620" type="line" smooth="yes"/>
      <point x="429.0" y="620"/>
      <point x="466.0" y="604"/>
      <point x="466.0" y="543" type="curve" smooth="yes"/>
      <point x="466.0" y="452" type="line" smooth="yes"/>
      <point x="466.0" y="427"/>
      <point x="454.0" y="412"/>
      <point x="437.0" y="405" type="curve"/>
    </contour>
  </outline>
</glyph>
<glyph name="three" format="1">
  <advance width="637"/>
  <unicode hex="0033"/>
  <outline>
    <contour>
      <point x="220.0" y="359" type="line"/>
      <point x="372.0" y="359" type="line" smooth="yes"/>
      <point x="449.0" y="359"/>
      <point x="480.0" y="326"/>
      <point x="480.0" y="259" type="curve" smooth="yes"/>
      <point x="480.0" y="190" type="line" smooth="yes"/>
      <point x="480.0" y="135"/>
      <point x="459.0" y="100"/>
      <point x="359.0" y="100" type="curve" smooth="yes"/>
      <point x="139.0" y="100" type="line"/>
      <point x="139.0" y="90" type="line"/>
      <point x="359.0" y="90" type="line" smooth="yes"/>
      <point x="471.0" y="90"/>
      <point x="490.0" y="131"/>
      <point x="490.0" y="190" type="curve" smooth="yes"/>
      <point x="490.0" y="259" type="line" smooth="yes"/>
      <point x="490.0" y="329"/>
      <point x="457.0" y="367"/>
      <point x="374.0" y="367" type="curve" smooth="yes"/>
      <point x="358.0" y="367" type="line"/>
      <point x="418.0" y="380"/>
      <point x="424.0" y="422"/>
      <point x="424.0" y="460" type="curve" smooth="yes"/>
      <point x="424.0" y="524" type="line" smooth="yes"/>
      <point x="424.0" y="582"/>
      <point x="404.0" y="630"/>
      <point x="293.0" y="630" type="curve" smooth="yes"/>
      <point x="139.0" y="630" type="line"/>
      <point x="139.0" y="620" type="line"/>
      <point x="293.0" y="620" type="line"/>
      <point x="391.0" y="620"/>
      <point x="414.0" y="580"/>
      <point x="414.0" y="528" type="curve" smooth="yes"/>
      <point x="414.0" y="460" type="line" smooth="yes"/>
      <point x="414.0" y="412"/>
      <point x="404.0" y="369"/>
      <point x="303.0" y="369" type="curve" smooth="yes"/>
      <point x="220.0" y="369" type="line"/>
    </contour>
  </outline>
</glyph>
<glyph name="five" format="1">
  <advance width="647"/>
  <unicode hex="0035"/>
  <outline>
    <contour>
      <point x="145.0" y="90" type="line"/>
      <point x="381.0" y="90" type="line" smooth="yes"/>
      <point x="464.0" y="90"/>
      <point x="495.0" y="120"/>
      <point x="495.0" y="188" type="curve" smooth="yes"/>
      <point x="495.0" y="276" type="line" smooth="yes"/>
      <point x="495.0" y="345"/>
      <point x="460.0" y="374"/>
      <point x="390.0" y="374" type="curve" smooth="yes"/>
      <point x="184.0" y="374" type="line"/>
      <point x="184.0" y="620" type="line"/>
      <point x="478.0" y="620" type="line"/>
      <point x="478.0" y="630" type="line"/>
      <point x="174.0" y="630" type="line"/>
      <point x="174.0" y="364" type="line"/>
      <point x="390.0" y="364" type="line" smooth="yes"/>
      <point x="452.0" y="364"/>
      <point x="485.0" y="339"/>
      <point x="485.0" y="276" type="curve" smooth="yes"/>
      <point x="485.0" y="188" type="line" smooth="yes"/>
      <point x="485.0" y="126"/>
      <point x="456.0" y="100"/>
      <point x="381.0" y="100" type="curve" smooth="yes"/>
      <point x="145.0" y="100" type="line"/>
    </contour>
  </outline>
</glyph>
<glyph name="seven" format="1">
  <advance width="627"/>
  <unicode hex="0037"/>
  <outline>
    <contour>
      <point x="223.0" y="90" type="line"/>
      <point x="233.0" y="90" type="line"/>
      <point x="233.0" y="240" type="line" smooth="yes"/>
      <point x="233.0" y="265"/>
      <point x="245.0" y="279"/>
      <point x="262.0" y="286" type="curve" smooth="yes"/>
      <point x="432.0" y="354" type="line" smooth="yes"/>
      <point x="456.0" y="364"/>
      <point x="467.0" y="379"/>
      <point x="467.0" y="410" type="curve" smooth="yes"/>
      <point x="467.0" y="630" type="line"/>
      <point x="128.0" y="630" type="line"/>
      <point x="128.0" y="620" type="line"/>
      <point x="457.0" y="620" type="line"/>
      <point x="457.0" y="410" type="line" smooth="yes"/>
      <point x="457.0" y="385"/>
      <point x="448.0" y="372"/>
      <point x="428.0" y="364" type="curve" smooth="yes"/>
      <point x="258.0" y="296" type="line" smooth="yes"/>
      <point x="237.0" y="287"/>
      <point x="223.0" y="271"/>
      <point x="223.0" y="240" type="curve" smooth="yes"/>
    </contour>
  </outline>
</glyph>
<glyph name="equal" format="1">
  <advance width="734"/>
  <unicode hex="003D"/>
  <outline>
    <contour>
      <point x="160.0" y="505" type="line"/>
      <point x="574.0" y="505" type="line"/>
      <point x="574.0" y="515" type="line"/>
      <point x="160.0" y="515" type="line"/>
    </contour>
    <contour>
      <point x="160.0" y="205" type="line"/>
      <point x="574.0" y="205" type="line"/>
      <point x="574.0" y="215" type="line"/>
      <point x="160.0" y="215" type="line"/>
    </contour>
  </outline>
</glyph>
<glyph name="greater" format="1">
  <advance width="714"/>
  <unicode hex="003E"/>
  <outline>
    <contour>
      <point x="480.0" y="252" type="line" smooth="yes"/>
      <point x="514.0" y="262"/>
      <point x="538.0" y="279"/>
      <point x="538.0" y="323" type="curve" smooth="yes"/>
      <point x="538.0" y="395" type="line" smooth="yes"/>
      <point x="538.0" y="439"/>
      <point x="514.0" y="453"/>
      <point x="480.0" y="463" type="curve" smooth="yes"/>
      <point x="180.0" y="549" type="line"/>
      <point x="180.0" y="539" type="line"/>
      <point x="478.0" y="453" type="line" smooth="yes"/>
      <point x="506.0" y="445"/>
      <point x="528.0" y="433"/>
      <point x="528.0" y="395" type="curve" smooth="yes"/>
      <point x="528.0" y="323" type="line" smooth="yes"/>
      <point x="528.0" y="285"/>
      <point x="506.0" y="270"/>
      <point x="478.0" y="262" type="curve" smooth="yes"/>
      <point x="180.0" y="176" type="line"/>
      <point x="180.0" y="166" type="line"/>
    </contour>
  </outline>
</glyph>
<glyph name="at" format="1">
  <advance width="867"/>
  <unicode hex="0040"/>
  <outline>
    <contour>
      <point x="434.0" y="-50" type="curve" smooth="yes"/>
      <point x="608.0" y="-50" type="line"/>
      <point x="608.0" y="-40" type="line"/>
      <point x="434.0" y="-40" type="line" smooth="yes"/>
      <point x="155.0" y="-40"/>
      <point x="115.0" y="50"/>
      <point x="115.0" y="150" type="curve" smooth="yes"/>
      <point x="115.0" y="568" type="line" smooth="yes"/>
      <point x="115.0" y="669"/>
      <point x="156.0" y="758"/>
      <point x="434.0" y="758" type="curve" smooth="yes"/>
      <point x="712.0" y="758"/>
      <point x="752.0" y="669"/>
      <point x="752.0" y="568" type="curve" smooth="yes"/>
      <point x="752.0" y="302" type="line" smooth="yes"/>
      <point x="752.0" y="210"/>
      <point x="723.0" y="170"/>
      <point x="645.0" y="170" type="curve" smooth="yes"/>
      <point x="569.0" y="170" type="line"/>
      <point x="569.0" y="527" type="line"/>
      <point x="425.0" y="527" type="line" smooth="yes"/>
      <point x="295.0" y="527"/>
      <point x="294.0" y="475"/>
      <point x="294.0" y="422" type="curve" smooth="yes"/>
      <point x="294.0" y="261" type="line" smooth="yes"/>
      <point x="294.0" y="189"/>
      <point x="318.0" y="160"/>
      <point x="383.0" y="160" type="curve" smooth="yes"/>
      <point x="645.0" y="160" type="line" smooth="yes"/>
      <point x="729.0" y="160"/>
      <point x="762.0" y="202"/>
      <point x="762.0" y="302" type="curve" smooth="yes"/>
      <point x="762.0" y="568" type="line" smooth="yes"/>
      <point x="762.0" y="673"/>
      <point x="726.0" y="768"/>
      <point x="434.0" y="768" type="curve" smooth="yes"/>
      <point x="142.0" y="768"/>
      <point x="105.0" y="673"/>
      <point x="105.0" y="568" type="curve" smooth="yes"/>
      <point x="105.0" y="150" type="line" smooth="yes"/>
      <point x="105.0" y="46"/>
      <point x="141.0" y="-50"/>
    </contour>
    <contour>
      <point x="383.0" y="170" type="line" smooth="yes"/>
      <point x="324.0" y="170"/>
      <point x="304.0" y="197"/>
      <point x="304.0" y="261" type="curve" smooth="yes"/>
      <point x="304.0" y="422" type="line" smooth="yes"/>
      <point x="304.0" y="471"/>
      <point x="307.0" y="517"/>
      <point x="425.0" y="517" type="curve" smooth="yes"/>
      <point x="559.0" y="517" type="line"/>
      <point x="559.0" y="170" type="line"/>
    </contour>
  </outline>
</glyph>
<glyph name="A" format="1">
  <advance width="730"/>
  <unicode hex="0041"/>
  <outline>
    <contour>
      <point x="170.0" y="303" type="line"/>
      <point x="170.0" y="339"/>
      <point x="176.0" y="369"/>
      <point x="186.0" y="396" type="curve"/>
      <point x="250.0" y="560" type="line"/>
      <point x="263.0" y="594"/>
      <point x="274.0" y="620"/>
      <point x="314.0" y="620" type="curve" smooth="yes"/>
      <point x="412.0" y="620" type="line" smooth="yes"/>
      <point x="449.0" y="620"/>
      <point x="460.0" y="594"/>
      <point x="475.0" y="559" type="curve"/>
      <point x="544.0" y="396" type="line"/>
      <point x="554.0" y="369"/>
      <point x="560.0" y="339"/>
      <point x="560.0" y="303" type="curve"/>
      <point x="560.0" y="272" type="line"/>
      <point x="170.0" y="272" type="line"/>
    </contour>
    <contour>
      <point x="560.0" y="90" type="line"/>
      <point x="570.0" y="90" type="line"/>
      <point x="570.0" y="303" type="line" smooth="yes"/>
      <point x="570.0" y="340"/>
      <point x="564.0" y="371"/>
      <point x="553.0" y="400" type="curve" smooth="yes"/>
      <point x="484.0" y="563" type="line" smooth="yes"/>
      <point x="468.0" y="602"/>
      <point x="456.0" y="630"/>
      <point x="412.0" y="630" type="curve" smooth="yes"/>
      <point x="314.0" y="630" type="line" smooth="yes"/>
      <point x="268.0" y="630"/>
      <point x="256.0" y="601"/>
      <point x="241.0" y="564" type="curve" smooth="yes"/>
      <point x="177.0" y="400" type="line"/>
      <point x="166.0" y="371"/>
      <point x="160.0" y="340"/>
      <point x="160.0" y="303" type="curve" smooth="yes"/>
      <point x="160.0" y="90" type="line"/>
      <point x="170.0" y="90" type="line"/>
      <point x="170.0" y="262" type="line"/>
      <point x="560.0" y="262" type="line"/>
    </contour>
  </outline>
</glyph>
<glyph name="C" format="1">
  <advance width="628"/>
  <unicode hex="0043"/>
  <outline>
    <contour>
      <point x="493.0" y="100" type="line"/>
      <point x="326.0" y="100" type="line" smooth="yes"/>
      <point x="206.0" y="100"/>
      <point x="176.0" y="132"/>
      <point x="176.0" y="219" type="curve" smooth="yes"/>
      <point x="176.0" y="499" type="line" smooth="yes"/>
      <point x="176.0" y="588"/>
      <point x="208.0" y="620"/>
      <point x="326.0" y="620" type="curve" smooth="yes"/>
      <point x="493.0" y="620" type="line"/>
      <point x="493.0" y="630" type="line"/>
      <point x="326.0" y="630" type="line" smooth="yes"/>
      <point x="198.0" y="630"/>
      <point x="166.0" y="594"/>
      <point x="166.0" y="499" type="curve" smooth="yes"/>
      <point x="166.0" y="219" type="line" smooth="yes"/>
      <point x="166.0" y="126"/>
      <point x="196.0" y="90"/>
      <point x="326.0" y="90" type="curve" smooth="yes"/>
      <point x="493.0" y="90" type="line"/>
    </contour>
  </outline>
</glyph>
<glyph name="D" format="1">
  <advance width="746"/>
  <unicode hex="0044"/>
  <outline>
    <contour>
      <point x="178.0" y="90" type="line"/>
      <point x="420.0" y="90" type="line" smooth="yes"/>
      <point x="558.0" y="90"/>
      <point x="580.0" y="149"/>
      <point x="580.0" y="226" type="curve" smooth="yes"/>
      <point x="580.0" y="491" type="line" smooth="yes"/>
      <point x="580.0" y="568"/>
      <point x="556.0" y="630"/>
      <point x="420.0" y="630" type="curve" smooth="yes"/>
      <point x="178.0" y="630" type="line"/>
    </contour>
    <contour>
      <point x="420.0" y="620" type="line" smooth="yes"/>
      <point x="546.0" y="620"/>
      <point x="570.0" y="564"/>
      <point x="570.0" y="491" type="curve" smooth="yes"/>
      <point x="570.0" y="226" type="line" smooth="yes"/>
      <point x="570.0" y="153"/>
      <point x="548.0" y="100"/>
      <point x="420.0" y="100" type="curve" smooth="yes"/>
      <point x="188.0" y="100" type="line"/>
      <point x="188.0" y="620" type="line"/>
    </contour>
  </outline>
</glyph>
<glyph name="E" format="1">
  <advance width="654"/>
  <unicode hex="0045"/>
  <outline>
    <contour>
      <point x="515.0" y="100" type="line"/>
      <point x="188.0" y="100" type="line"/>
      <point x="188.0" y="359" type="line"/>
      <point x="434.0" y="359" type="line"/>
      <point x="434.0" y="369" type="line"/>
      <point x="188.0" y="369" type="line"/>
      <point x="188.0" y="620" type="line"/>
      <point x="515.0" y="620" type="line"/>
      <point x="515.0" y="630" type="line"/>
      <point x="178.0" y="630" type="line"/>
      <point x="178.0" y="90" type="line"/>
      <point x="515.0" y="90" type="line"/>
    </contour>
  </outline>
</glyph>
<glyph name="G" format="1">
  <advance width="708"/>
  <unicode hex="0047"/>
  <outline>
    <contour>
      <point x="347.0" y="90" type="curve" smooth="yes"/>
      <point x="546.0" y="90" type="line"/>
      <point x="546.0" y="291" type="line"/>
      <point x="536.0" y="291" type="line"/>
      <point x="536.0" y="100" type="line"/>
      <point x="347.0" y="100" type="line" smooth="yes"/>
      <point x="212.0" y="100"/>
      <point x="177.0" y="132"/>
      <point x="177.0" y="219" type="curve" smooth="yes"/>
      <point x="177.0" y="499" type="line" smooth="yes"/>
      <point x="177.0" y="588"/>
      <point x="209.0" y="620"/>
      <point x="327.0" y="620" type="curve" smooth="yes"/>
      <point x="500.0" y="620" type="line"/>
      <point x="500.0" y="630" type="line"/>
      <point x="327.0" y="630" type="line" smooth="yes"/>
      <point x="199.0" y="630"/>
      <point x="167.0" y="594"/>
      <point x="167.0" y="499" type="curve" smooth="yes"/>
      <point x="167.0" y="219" type="line" smooth="yes"/>
      <point x="167.0" y="126"/>
      <point x="200.0" y="90"/>
    </contour>
  </outline>
</glyph>
<glyph name="H" format="1">
  <advance width="759"/>
  <unicode hex="0048"/>
  <outline>
    <contour>
      <point x="177.0" y="90" type="line"/>
      <point x="187.0" y="90" type="line"/>
      <point x="187.0" y="355" type="line"/>
      <point x="571.0" y="355" type="line"/>
      <point x="571.0" y="90" type="line"/>
      <point x="581.0" y="90" type="line"/>
      <point x="581.0" y="630" type="line"/>
      <point x="571.0" y="630" type="line"/>
      <point x="571.0" y="365" type="line"/>
      <point x="187.0" y="365" type="line"/>
      <point x="187.0" y="630" type="line"/>
      <point x="177.0" y="630" type="line"/>
    </contour>
  </outline>
</glyph>
<glyph name="K" format="1">
  <advance width="746"/>
  <unicode hex="004B"/>
  <outline>
    <contour>
      <point x="188.0" y="90" type="line"/>
      <point x="188.0" y="354" type="line"/>
      <point x="457.0" y="354" type="line" smooth="yes"/>
      <point x="531.0" y="354"/>
      <point x="568.0" y="330"/>
      <point x="568.0" y="266" type="curve" smooth="yes"/>
      <point x="568.0" y="90" type="line"/>
      <point x="578.0" y="90" type="line"/>
      <point x="578.0" y="266" type="line" smooth="yes"/>
      <point x="578.0" y="336"/>
      <point x="539.0" y="364"/>
      <point x="457.0" y="364" type="curve" smooth="yes"/>
      <point x="416.0" y="364" type="line"/>
      <point x="531.0" y="630" type="line"/>
      <point x="520.0" y="630" type="line"/>
      <point x="405.0" y="364" type="line"/>
      <point x="188.0" y="364" type="line"/>
      <point x="188.0" y="630" type="line"/>
      <point x="178.0" y="630" type="line"/>
      <point x="178.0" y="90" type="line"/>
    </contour>
  </outline>
</glyph>
<glyph name="R" format="1">
  <advance width="743"/>
  <unicode hex="0052"/>
  <outline>
    <contour>
      <point x="405.0" y="620" type="line" smooth="yes"/>
      <point x="476.0" y="620"/>
      <point x="509.0" y="578"/>
      <point x="509.0" y="516" type="curve" smooth="yes"/>
      <point x="509.0" y="446" type="line" smooth="yes"/>
      <point x="509.0" y="372"/>
      <point x="488.0" y="331"/>
      <point x="405.0" y="331" type="curve" smooth="yes"/>
      <point x="187.0" y="331" type="line"/>
      <point x="187.0" y="620" type="line"/>
    </contour>
    <contour>
      <point x="187.0" y="90" type="line"/>
      <point x="187.0" y="322" type="line"/>
      <point x="470.0" y="322" type="line" smooth="yes"/>
      <point x="546.0" y="322"/>
      <point x="581.0" y="290"/>
      <point x="581.0" y="224" type="curve" smooth="yes"/>
      <point x="581.0" y="90" type="line"/>
      <point x="591.0" y="90" type="line"/>
      <point x="591.0" y="224" type="line" smooth="yes"/>
      <point x="591.0" y="294"/>
      <point x="552.0" y="331"/>
      <point x="470.0" y="331" type="curve" smooth="yes"/>
      <point x="459.0" y="331" type="line"/>
      <point x="507.0" y="346"/>
      <point x="519.0" y="386"/>
      <point x="519.0" y="447" type="curve" smooth="yes"/>
      <point x="519.0" y="516" type="line" smooth="yes"/>
      <point x="519.0" y="582"/>
      <point x="483.0" y="630"/>
      <point x="405.0" y="630" type="curve" smooth="yes"/>
      <point x="177.0" y="630" type="line"/>
      <point x="177.0" y="90" type="line"/>
    </contour>
  </outline>
</glyph>
<glyph name="U" format="1">
  <advance width="746"/>
  <unicode hex="0055"/>
  <outline>
    <contour>
      <point x="174.0" y="630" type="line"/>
      <point x="174.0" y="213" type="line" smooth="yes"/>
      <point x="174.0" y="132"/>
      <point x="217.0" y="78"/>
      <point x="374.0" y="78" type="curve" smooth="yes"/>
      <point x="531.0" y="78"/>
      <point x="575.0" y="132"/>
      <point x="575.0" y="213" type="curve" smooth="yes"/>
      <point x="575.0" y="630" type="line"/>
      <point x="565.0" y="630" type="line"/>
      <point x="565.0" y="213" type="line" smooth="yes"/>
      <point x="565.0" y="138"/>
      <point x="523.0" y="88"/>
      <point x="374.0" y="88" type="curve" smooth="yes"/>
      <point x="225.0" y="88"/>
      <point x="184.0" y="138"/>
      <point x="184.0" y="213" type="curve" smooth="yes"/>
      <point x="184.0" y="630" type="line"/>
    </contour>
  </outline>
</glyph>
<glyph name="V" format="1">
  <advance width="730"/>
  <unicode hex="0056"/>
  <outline>
    <contour>
      <point x="167.0" y="630" type="line"/>
      <point x="167.0" y="414" type="line" smooth="yes"/>
      <point x="167.0" y="377"/>
      <point x="171.0" y="346"/>
      <point x="183.0" y="317" type="curve" smooth="yes"/>
      <point x="249.0" y="157" type="line" smooth="yes"/>
      <point x="265.0" y="118"/>
      <point x="280.0" y="90"/>
      <point x="322.0" y="90" type="curve" smooth="yes"/>
      <point x="410.0" y="90" type="line" smooth="yes"/>
      <point x="452.0" y="90"/>
      <point x="467.0" y="118"/>
      <point x="483.0" y="157" type="curve" smooth="yes"/>
      <point x="549.0" y="317" type="line" smooth="yes"/>
      <point x="561.0" y="346"/>
      <point x="565.0" y="377"/>
      <point x="565.0" y="414" type="curve" smooth="yes"/>
      <point x="565.0" y="630" type="line"/>
      <point x="555.0" y="630" type="line"/>
      <point x="555.0" y="414" type="line" smooth="yes"/>
      <point x="555.0" y="379"/>
      <point x="550.0" y="348"/>
      <point x="539.0" y="321" type="curve" smooth="yes"/>
      <point x="473.0" y="161" type="line" smooth="yes"/>
      <point x="459.0" y="126"/>
      <point x="448.0" y="100"/>
      <point x="410.0" y="100" type="curve" smooth="yes"/>
      <point x="322.0" y="100" type="line" smooth="yes"/>
      <point x="284.0" y="100"/>
      <point x="273.0" y="126"/>
      <point x="259.0" y="161" type="curve" smooth="yes"/>
      <point x="193.0" y="321" type="line" smooth="yes"/>
      <point x="182.0" y="348"/>
      <point x="177.0" y="379"/>
      <point x="177.0" y="414" type="curve" smooth="yes"/>
      <point x="177.0" y="630" type="line"/>
    </contour>
    <contour>
      <point x="365.0" y="747.0" type="move" name="top"/>
    </contour>
    <contour>
      <point x="365.0" y="0.0" type="move" name="bottom"/>
    </contour>
  </outline>
</glyph>
<glyph name="Y" format="1">
  <advance width="705"/>
  <unicode hex="0059"/>
  <outline>
    <contour>
      <point x="365.0" y="261" type="line" smooth="yes"/>
      <point x="396.0" y="261"/>
      <point x="417.0" y="274"/>
      <point x="439.0" y="303" type="curve" smooth="yes"/>
      <point x="539.0" y="438" type="line" smooth="yes"/>
      <point x="555.0" y="459"/>
      <point x="554.0" y="486"/>
      <point x="554.0" y="515" type="curve" smooth="yes"/>
      <point x="554.0" y="630" type="line"/>
      <point x="544.0" y="630" type="line"/>
      <point x="544.0" y="515" type="line" smooth="yes"/>
      <point x="544.0" y="487"/>
      <point x="544.0" y="460"/>
      <point x="530.0" y="442" type="curve" smooth="yes"/>
      <point x="430.0" y="307" type="line" smooth="yes"/>
      <point x="410.0" y="281"/>
      <point x="390.0" y="271"/>
      <point x="365.0" y="271" type="curve" smooth="yes"/>
      <point x="338.0" y="271" type="line" smooth="yes"/>
      <point x="315.0" y="271"/>
      <point x="292.0" y="280"/>
      <point x="274.0" y="307" type="curve"/>
      <point x="177.0" y="442" type="line"/>
      <point x="164.0" y="462"/>
      <point x="163.0" y="487"/>
      <point x="163.0" y="515" type="curve" smooth="yes"/>
      <point x="163.0" y="630" type="line"/>
      <point x="153.0" y="630" type="line"/>
      <point x="153.0" y="515" type="line" smooth="yes"/>
      <point x="153.0" y="486"/>
      <point x="153.0" y="458"/>
      <point x="168.0" y="438" type="curve" smooth="yes"/>
      <point x="265.0" y="303" type="line" smooth="yes"/>
      <point x="287.0" y="273"/>
      <point x="309.0" y="261"/>
      <point x="338.0" y="261" type="curve" smooth="yes"/>
      <point x="348.0" y="261" type="line"/>
      <point x="348.0" y="90" type="line"/>
      <point x="358.0" y="90" type="line"/>
      <point x="358.0" y="261" type="line"/>
    </contour>
    <contour>
      <point x="352.0" y="747.0" type="move" name="top"/>
    </contour>
    <contour>
      <point x="352.0" y="0.0" type="move" name="bottom"/>
    </contour>
  </outline>
</glyph>
<glyph name="Z" format="1">
  <advance width="660"/>
  <unicode hex="005A"/>
  <outline>
    <contour>
      <point x="473.0" y="544" type="line" smooth="yes"/>
      <point x="483.0" y="556"/>
      <point x="490.0" y="566"/>
      <point x="490.0" y="581" type="curve" smooth="yes"/>
      <point x="490.0" y="597" type="line" smooth="yes"/>
      <point x="490.0" y="620"/>
      <point x="481.0" y="630"/>
      <point x="459.0" y="630" type="curve" smooth="yes"/>
      <point x="154.0" y="630" type="line"/>
      <point x="154.0" y="620" type="line"/>
      <point x="459.0" y="620" type="line" smooth="yes"/>
      <point x="470.0" y="620"/>
      <point x="480.0" y="616"/>
      <point x="480.0" y="597" type="curve" smooth="yes"/>
      <point x="480.0" y="583" type="line" smooth="yes"/>
      <point x="480.0" y="570"/>
      <point x="476.0" y="564"/>
      <point x="466.0" y="552" type="curve" smooth="yes"/>
      <point x="173.0" y="176" type="line"/>
      <point x="163.0" y="164"/>
      <point x="156.0" y="154"/>
      <point x="156.0" y="139" type="curve" smooth="yes"/>
      <point x="156.0" y="123" type="line" smooth="yes"/>
      <point x="156.0" y="100"/>
      <point x="165.0" y="90"/>
      <point x="187.0" y="90" type="curve" smooth="yes"/>
      <point x="524.0" y="90" type="line"/>
      <point x="524.0" y="100" type="line"/>
      <point x="187.0" y="100" type="line" smooth="yes"/>
      <point x="176.0" y="100"/>
      <point x="166.0" y="104"/>
      <point x="166.0" y="123" type="curve" smooth="yes"/>
      <point x="166.0" y="137" type="line" smooth="yes"/>
      <point x="166.0" y="150"/>
      <point x="170.0" y="156"/>
      <point x="180.0" y="168" type="curve"/>
    </contour>
    <contour>
      <point x="330.0" y="747.0" type="move" name="top"/>
    </contour>
    <contour>
      <point x="330.0" y="0.0" type="move" name="bottom"/>
    </contour>
  </outline>
</glyph>
<glyph name="backslash" format="1">
  <advance width="347"/>
  <unicode hex="005C"/>
  <outline>
    <contour>
      <point x="127.0" y="720" type="line"/>
      <point x="117.0" y="720" type="line"/>
      <point x="221.0" y="0" type="line"/>
      <point x="231.0" y="0" type="line"/>
    </contour>
  </outline>
</glyph>
<glyph name="underscore" format="1">
  <advance width="734"/>
  <unicode hex="005F"/>
  <outline>
    <contour>
      <point x="574.0" y="5" type="line"/>
      <point x="160.0" y="5" type="line"/>
      <point x="160.0" y="-5" type="line"/>
      <point x="574.0" y="-5" type="line"/>
    </contour>
  </outline>
</glyph>
<glyph name="grave" format="1">
  <advance width="500"/>
  <unicode hex="0060"/>
  <outline>
    <contour>
      <point x="130.0" y="867" type="line"/>
      <point x="369.0" y="837" type="line"/>
      <point x="369.0" y="847" type="line"/>
      <point x="130.0" y="877" type="line"/>
    </contour>
    <contour>
      <point x="250.0" y="747.0" type="move" name="_top"/>
    </contour>
    <contour>
      <point x="250.0" y="0.0" type="move" name="_bottom"/>
    </contour>
  </outline>
</glyph>
<glyph name="braceright" format="1">
  <advance width="455"/>
  <unicode hex="007D"/>
  <outline>
    <contour>
      <point x="262.0" y="124" type="curve" smooth="yes"/>
      <point x="262.0" y="275" type="line"/>
      <point x="302.0" y="281"/>
      <point x="326.0" y="302"/>
      <point x="326.0" y="344" type="curve" smooth="yes"/>
      <point x="326.0" y="372" type="line" smooth="yes"/>
      <point x="326.0" y="415"/>
      <point x="302.0" y="435"/>
      <point x="262.0" y="441" type="curve"/>
      <point x="262.0" y="595" type="line" smooth="yes"/>
      <point x="262.0" y="680"/>
      <point x="223.0" y="708"/>
      <point x="135.0" y="708" type="curve"/>
      <point x="135.0" y="698" type="line"/>
      <point x="215.0" y="698"/>
      <point x="252.0" y="674"/>
      <point x="252.0" y="595" type="curve" smooth="yes"/>
      <point x="252.0" y="433" type="line"/>
      <point x="299.0" y="428"/>
      <point x="316.0" y="409"/>
      <point x="316.0" y="372" type="curve" smooth="yes"/>
      <point x="316.0" y="344" type="line" smooth="yes"/>
      <point x="316.0" y="307"/>
      <point x="298.0" y="288"/>
      <point x="252.0" y="283" type="curve"/>
      <point x="252.0" y="124" type="line" smooth="yes"/>
      <point x="252.0" y="54"/>
      <point x="214.0" y="21"/>
      <point x="135.0" y="21" type="curve"/>
      <point x="135.0" y="11" type="line"/>
      <point x="222.0" y="11"/>
      <point x="262.0" y="48"/>
    </contour>
  </outline>
</glyph>
<glyph name="exclamdown" format="1">
  <advance width="423"/>
  <unicode hex="00A1"/>
  <outline>
    <contour>
      <point x="207.0" y="640" type="line"/>
      <point x="207.0" y="597" type="line"/>
      <point x="217.0" y="597" type="line"/>
      <point x="217.0" y="640" type="line"/>
    </contour>
    <contour>
      <point x="217.0" y="90" type="line"/>
      <point x="217.0" y="368" type="line"/>
      <point x="207.0" y="368" type="line"/>
      <point x="207.0" y="90" type="line"/>
    </contour>
  </outline>
</glyph>
<glyph name="cent" format="1">
  <advance width="628"/>
  <unicode hex="00A2"/>
  <outline>
    <contour>
      <point x="358.0" y="131" type="line"/>
      <point x="358" y="40" type="line"/>
      <point x="368" y="40" type="line"/>
      <point x="368.0" y="131" type="line"/>
      <point x="493.0" y="131" type="line"/>
      <point x="493.0" y="141" type="line"/>
      <point x="326.0" y="141" type="line" smooth="yes"/>
      <point x="206.0" y="141"/>
      <point x="176.0" y="173"/>
      <point x="176.0" y="260" type="curve" smooth="yes"/>
      <point x="176.0" y="457" type="line" smooth="yes"/>
      <point x="176.0" y="546"/>
      <point x="208.0" y="578"/>
      <point x="326.0" y="578" type="curve" smooth="yes"/>
      <point x="493.0" y="578" type="line"/>
      <point x="493.0" y="588" type="line"/>
      <point x="368.0" y="588" type="line"/>
      <point x="368" y="680" type="line"/>
      <point x="358" y="680" type="line"/>
      <point x="358.0" y="588" type="line"/>
      <point x="326.0" y="588" type="line" smooth="yes"/>
      <point x="198.0" y="588"/>
      <point x="166.0" y="552"/>
      <point x="166.0" y="457" type="curve" smooth="yes"/>
      <point x="166.0" y="260" type="line" smooth="yes"/>
      <point x="166.0" y="167"/>
      <point x="196.0" y="131"/>
      <point x="326.0" y="131" type="curve" smooth="yes"/>
    </contour>
  </outline>
</glyph>
<glyph name="sterling" format="1">
  <advance width="695"/>
  <unicode hex="00A3"/>
  <outline>
    <contour>
      <point x="546.0" y="237" type="line"/>
      <point x="536.0" y="237" type="line"/>
      <point x="536.0" y="100" type="line"/>
      <point x="188.0" y="100" type="line"/>
      <point x="188.0" y="349" type="line"/>
      <point x="290.0" y="349" type="line"/>
      <point x="290.0" y="359" type="line"/>
      <point x="188.0" y="359" type="line"/>
      <point x="188.0" y="516" type="line" smooth="yes"/>
      <point x="188.0" y="597"/>
      <point x="237.0" y="620"/>
      <point x="315.0" y="620" type="curve" smooth="yes"/>
      <point x="451.0" y="620" type="line"/>
      <point x="451.0" y="630" type="line"/>
      <point x="315.0" y="630" type="line" smooth="yes"/>
      <point x="229.0" y="630"/>
      <point x="178.0" y="603"/>
      <point x="178.0" y="516" type="curve" smooth="yes"/>
      <point x="178.0" y="359" type="line"/>
      <point x="110.0" y="359" type="line"/>
      <point x="110.0" y="349" type="line"/>
      <point x="178.0" y="349" type="line"/>
      <point x="178.0" y="90" type="line"/>
      <point x="546.0" y="90" type="line"/>
    </contour>
  </outline>
</glyph>
<glyph name="brokenbar" format="1">
  <advance width="347"/>
  <unicode hex="00A6"/>
  <outline>
    <contour>
      <point x="169.0" y="720" type="line"/>
      <point x="169.0" y="490" type="line"/>
      <point x="179.0" y="490" type="line"/>
      <point x="179.0" y="720" type="line"/>
    </contour>
    <contour>
      <point x="169.0" y="230" type="line"/>
      <point x="169.0" y="0" type="line"/>
      <point x="179.0" y="0" type="line"/>
      <point x="179.0" y="230" type="line"/>
    </contour>
  </outline>
</glyph>
<glyph name="ordfeminine" format="1">
  <advance width="520"/>
  <unicode hex="00AA"/>
  <outline>
    <contour>
      <point x="122.0" y="420" type="line"/>
      <point x="122.0" y="445"/>
      <point x="126.0" y="466"/>
      <point x="133.0" y="485" type="curve"/>
      <point x="178.0" y="601" type="line"/>
      <point x="188.0" y="625"/>
      <point x="195.0" y="642"/>
      <point x="223.0" y="642" type="curve" smooth="yes"/>
      <point x="290.0" y="642" type="line" smooth="yes"/>
      <point x="317.0" y="642"/>
      <point x="324.0" y="625"/>
      <point x="335.0" y="600" type="curve"/>
      <point x="383.0" y="485" type="line"/>
      <point x="390.0" y="466"/>
      <point x="395.0" y="445"/>
      <point x="395.0" y="420" type="curve"/>
      <point x="395.0" y="399" type="line"/>
      <point x="122.0" y="399" type="line"/>
    </contour>
    <contour>
      <point x="395.0" y="270" type="line"/>
      <point x="404.0" y="270" type="line"/>
      <point x="404.0" y="420" type="line" smooth="yes"/>
      <point x="404.0" y="446"/>
      <point x="400.0" y="468"/>
      <point x="392.0" y="488" type="curve" smooth="yes"/>
      <point x="343.0" y="603" type="line" smooth="yes"/>
      <point x="332.0" y="630"/>
      <point x="322.0" y="651"/>
      <point x="291.0" y="651" type="curve" smooth="yes"/>
      <point x="221.0" y="651" type="line" smooth="yes"/>
      <point x="189.0" y="651"/>
      <point x="180.0" y="630"/>
      <point x="170.0" y="604" type="curve" smooth="yes"/>
      <point x="125.0" y="488" type="line"/>
      <point x="117.0" y="468"/>
      <point x="113.0" y="446"/>
      <point x="113.0" y="420" type="curve" smooth="yes"/>
      <point x="113.0" y="270" type="line"/>
      <point x="122.0" y="270" type="line"/>
      <point x="122.0" y="390" type="line"/>
      <point x="395.0" y="390" type="line"/>
    </contour>
    <contour>
      <point x="414.0" y="73" type="line"/>
      <point x="106.0" y="73" type="line"/>
      <point x="106.0" y="65" type="line"/>
      <point x="414.0" y="65" type="line"/>
    </contour>
    <contour>
      <point x="263.0" y="745.0" type="move" name="top"/>
    </contour>
    <contour>
      <point x="263.0" y="207.0" type="move" name="bottom"/>
    </contour>
  </outline>
</glyph>
<glyph name="logicalnot" format="1">
  <advance width="734"/>
  <unicode hex="00AC"/>
  <outline>
    <contour>
      <point x="564.0" y="395" type="line"/>
      <point x="564.0" y="153" type="line"/>
      <point x="574.0" y="153" type="line"/>
      <point x="574.0" y="405" type="line"/>
      <point x="160.0" y="405" type="line"/>
      <point x="160.0" y="395" type="line"/>
    </contour>
  </outline>
</glyph>
<glyph name="threesuperior" format="1">
  <advance width="484"/>
  <unicode hex="00B3"/>
  <outline>
    <contour>
      <point x="173.0" y="459" type="line"/>
      <point x="282.0" y="459" type="line" smooth="yes"/>
      <point x="336.0" y="459"/>
      <point x="359.0" y="436"/>
      <point x="359.0" y="388" type="curve" smooth="yes"/>
      <point x="359.0" y="339" type="line" smooth="yes"/>
      <point x="359.0" y="300"/>
      <point x="344.0" y="275"/>
      <point x="273.0" y="275" type="curve" smooth="yes"/>
      <point x="114.0" y="275" type="line"/>
      <point x="114.0" y="266" type="line"/>
      <point x="273.0" y="266" type="line" smooth="yes"/>
      <point x="354.0" y="266"/>
      <point x="368.0" y="295"/>
      <point x="368.0" y="339" type="curve" smooth="yes"/>
      <point x="368.0" y="388" type="line" smooth="yes"/>
      <point x="368.0" y="439"/>
      <point x="344.0" y="466"/>
      <point x="283.0" y="466" type="curve" smooth="yes"/>
      <point x="272.0" y="466" type="line"/>
      <point x="316.0" y="475"/>
      <point x="320.0" y="506"/>
      <point x="320.0" y="533" type="curve" smooth="yes"/>
      <point x="320.0" y="579" type="line" smooth="yes"/>
      <point x="320.0" y="622"/>
      <point x="306.0" y="656"/>
      <point x="225.0" y="656" type="curve" smooth="yes"/>
      <point x="114.0" y="656" type="line"/>
      <point x="114.0" y="647" type="line"/>
      <point x="225.0" y="647" type="line"/>
      <point x="295.0" y="647"/>
      <point x="311.0" y="618"/>
      <point x="311.0" y="582" type="curve" smooth="yes"/>
      <point x="311.0" y="533" type="line" smooth="yes"/>
      <point x="311.0" y="499"/>
      <point x="304.0" y="468"/>
      <point x="232.0" y="468" type="curve" smooth="yes"/>
      <point x="173.0" y="468" type="line"/>
    </contour>
  </outline>
</glyph>
<glyph name="acute" format="1">
  <advance width="500"/>
  <unicode hex="00B4"/>
  <outline>
    <contour>
      <point x="130.0" y="847" type="line"/>
      <point x="130.0" y="837" type="line"/>
      <point x="369.0" y="867" type="line"/>
      <point x="369.0" y="877" type="line"/>
    </contour>
    <contour>
      <point x="250.0" y="747.0" type="move" name="_top"/>
    </contour>
    <contour>
      <point x="250.0" y="0.0" type="move" name="_bottom"/>
    </contour>
  </outline>
</glyph>
<glyph name="paragraph" format="1">
  <advance width="682"/>
  <unicode hex="00B6"/>
  <outline>
    <contour>
      <point x="277.0" y="292" type="line"/>
      <point x="277.0" y="90" type="line"/>
      <point x="287.0" y="90" type="line"/>
      <point x="287.0" y="292" type="line"/>
      <point x="515.0" y="292" type="line"/>
      <point x="515.0" y="90" type="line"/>
      <point x="525.0" y="90" type="line"/>
      <point x="525.0" y="630" type="line"/>
      <point x="273.0" y="630" type="line" smooth="yes"/>
      <point x="147.0" y="630"/>
      <point x="123.0" y="572"/>
      <point x="123.0" y="494" type="curve" smooth="yes"/>
      <point x="123.0" y="425" type="line" smooth="yes"/>
      <point x="123.0" y="347"/>
      <point x="147.0" y="292"/>
      <point x="273.0" y="292" type="curve" smooth="yes"/>
    </contour>
    <contour>
      <point x="133.0" y="425" type="curve" smooth="yes"/>
      <point x="133.0" y="494" type="line" smooth="yes"/>
      <point x="133.0" y="566"/>
      <point x="155.0" y="620"/>
      <point x="273.0" y="620" type="curve" smooth="yes"/>
      <point x="515.0" y="620" type="line"/>
      <point x="515.0" y="302" type="line"/>
      <point x="273.0" y="302" type="line" smooth="yes"/>
      <point x="155.0" y="302"/>
      <point x="133.0" y="353"/>
    </contour>
  </outline>
</glyph>
<glyph name="cedilla" format="2">
  <advance width="500"/>
  <unicode hex="00B8"/>
  <anchor x="250.0" y="747.0" name="_top"/>
  <anchor x="250.0" y="0.0" name="_bottom"/>
  <outline>
    <contour>
      <point x="272.0" y="97" type="line"/>
      <point x="224.0" y="-36" type="line"/>
      <point x="234.0" y="-36" type="line"/>
      <point x="282.0" y="96" type="line"/>
    </contour>
  </outline>
</glyph>
<glyph name="guillemotright" format="1">
  <advance width="812"/>
  <unicode hex="00BB"/>
  <outline>
    <contour>
      <point x="140.0" y="477" type="line"/>
      <point x="237.0" y="447" type="line" smooth="yes"/>
      <point x="268.0" y="438"/>
      <point x="291.0" y="427"/>
      <point x="291.0" y="386" type="curve" smooth="yes"/>
      <point x="291.0" y="312" type="line" smooth="yes"/>
      <point x="291.0" y="271"/>
      <point x="268.0" y="259"/>
      <point x="238.0" y="251" type="curve" smooth="yes"/>
      <point x="140.0" y="222" type="line"/>
      <point x="140.0" y="212" type="line"/>
      <point x="240.0" y="241" type="line" smooth="yes"/>
      <point x="276.0" y="251"/>
      <point x="301.0" y="265"/>
      <point x="301.0" y="312" type="curve" smooth="yes"/>
      <point x="301.0" y="386" type="line" smooth="yes"/>
      <point x="301.0" y="433"/>
      <point x="276.0" y="446"/>
      <point x="239.0" y="457" type="curve" smooth="yes"/>
      <point x="140.0" y="487" type="line"/>
    </contour>
    <contour>
      <point x="510.0" y="212" type="line"/>
      <point x="610.0" y="241" type="line" smooth="yes"/>
      <point x="646.0" y="251"/>
      <point x="671.0" y="265"/>
      <point x="671.0" y="312" type="curve" smooth="yes"/>
      <point x="671.0" y="386" type="line" smooth="yes"/>
      <point x="671.0" y="433"/>
      <point x="646.0" y="446"/>
      <point x="609.0" y="457" type="curve" smooth="yes"/>
      <point x="510.0" y="487" type="line"/>
      <point x="510.0" y="477" type="line"/>
      <point x="607.0" y="447" type="line" smooth="yes"/>
      <point x="638.0" y="437"/>
      <point x="661.0" y="427"/>
      <point x="661.0" y="386" type="curve" smooth="yes"/>
      <point x="661.0" y="312" type="line" smooth="yes"/>
      <point x="661.0" y="271"/>
      <point x="638.0" y="260"/>
      <point x="608.0" y="251" type="curve" smooth="yes"/>
      <point x="510.0" y="222" type="line"/>
    </contour>
  </outline>
</glyph>
<glyph name="Eth" format="2">
  <advance width="756"/>
  <unicode hex="00D0"/>
  <outline>
    <contour>
      <point x="290.0" y="349" type="line"/>
      <point x="290.0" y="359" type="line"/>
      <point x="196.0" y="359" type="line"/>
      <point x="196.0" y="620" type="line"/>
      <point x="430.0" y="620" type="line" smooth="yes"/>
      <point x="556.0" y="620"/>
      <point x="580.0" y="564"/>
      <point x="580.0" y="491" type="curve" smooth="yes"/>
      <point x="580.0" y="226" type="line" smooth="yes"/>
      <point x="580.0" y="153"/>
      <point x="558.0" y="100"/>
      <point x="430.0" y="100" type="curve" smooth="yes"/>
      <point x="196.0" y="100" type="line"/>
      <point x="196.0" y="349" type="line"/>
    </contour>
    <contour>
      <point x="186.0" y="90" type="line"/>
      <point x="430.0" y="90" type="line" smooth="yes"/>
      <point x="568.0" y="90"/>
      <point x="590.0" y="149"/>
      <point x="590.0" y="226" type="curve" smooth="yes"/>
      <point x="590.0" y="491" type="line" smooth="yes"/>
      <point x="590.0" y="568"/>
      <point x="566.0" y="630"/>
      <point x="430.0" y="630" type="curve" smooth="yes"/>
      <point x="186.0" y="630" type="line"/>
      <point x="186.0" y="359" type="line"/>
      <point x="110.0" y="359" type="line"/>
      <point x="110.0" y="349" type="line"/>
      <point x="186.0" y="349" type="line"/>
    </contour>
  </outline>
</glyph>
<glyph name="Oslash" format="1">
  <advance width="737"/>
  <unicode hex="00D8"/>
  <outline>
    <contour>
      <point x="166.0" y="212" type="curve" smooth="yes"/>
      <point x="166.0" y="507" type="line" smooth="yes"/>
      <point x="166.0" y="582"/>
      <point x="208.0" y="632"/>
      <point x="367.0" y="632" type="curve" smooth="yes"/>
      <point x="411.0" y="632"/>
      <point x="446.0" y="628"/>
      <point x="474.0" y="621" type="curve"/>
      <point x="253.0" y="100" type="line"/>
      <point x="186.0" y="119"/>
      <point x="166.0" y="160"/>
    </contour>
    <contour>
      <point x="367.0" y="87" type="curve" smooth="yes"/>
      <point x="324.0" y="87"/>
      <point x="290.0" y="91"/>
      <point x="263.0" y="97" type="curve"/>
      <point x="483.0" y="618" type="line"/>
      <point x="549.0" y="599"/>
      <point x="570.0" y="559"/>
      <point x="570.0" y="507" type="curve" smooth="yes"/>
      <point x="570.0" y="212" type="line" smooth="yes"/>
      <point x="570.0" y="137"/>
      <point x="526.0" y="87"/>
    </contour>
    <contour>
      <point x="230.0" y="20" type="line"/>
      <point x="259.0" y="88" type="line"/>
      <point x="287.0" y="81"/>
      <point x="323.0" y="77"/>
      <point x="367.0" y="77" type="curve" smooth="yes"/>
      <point x="534.0" y="77"/>
      <point x="580.0" y="131"/>
      <point x="580.0" y="212" type="curve" smooth="yes"/>
      <point x="580.0" y="507" type="line" smooth="yes"/>
      <point x="580.0" y="563"/>
      <point x="558.0" y="607"/>
      <point x="487.0" y="628" type="curve"/>
      <point x="518.0" y="700" type="line"/>
      <point x="507.0" y="700" type="line"/>
      <point x="478.0" y="631" type="line"/>
      <point x="449.0" y="638"/>
      <point x="412.0" y="642"/>
      <point x="367.0" y="642" type="curve" smooth="yes"/>
      <point x="200.0" y="642"/>
      <point x="156.0" y="588"/>
      <point x="156.0" y="507" type="curve" smooth="yes"/>
      <point x="156.0" y="212" type="line" smooth="yes"/>
      <point x="156.0" y="155"/>
      <point x="178.0" y="111"/>
      <point x="249.0" y="91" type="curve"/>
      <point x="219.0" y="20" type="line"/>
    </contour>
  </outline>
</glyph>
<glyph name="Hbar" format="1">
  <advance width="779"/>
  <unicode hex="0126"/>
  <outline>
    <contour>
      <point x="583.0" y="504" type="line"/>
      <point x="583.0" y="252" type="line"/>
      <point x="196.0" y="252" type="line"/>
      <point x="196.0" y="504" type="line"/>
    </contour>
    <contour>
      <point x="186.0" y="90" type="line"/>
      <point x="196.0" y="90" type="line"/>
      <point x="196.0" y="242" type="line"/>
      <point x="583.0" y="242" type="line"/>
      <point x="583.0" y="90" type="line"/>
      <point x="593.0" y="90" type="line"/>
      <point x="593.0" y="504" type="line"/>
      <point x="659.0" y="504" type="line"/>
      <point x="659.0" y="514" type="line"/>
      <point x="593.0" y="514" type="line"/>
      <point x="593.0" y="630" type="line"/>
      <point x="583.0" y="630" type="line"/>
      <point x="583.0" y="514" type="line"/>
      <point x="196.0" y="514" type="line"/>
      <point x="196.0" y="630" type="line"/>
      <point x="186.0" y="630" type="line"/>
      <point x="186.0" y="514" type="line"/>
      <point x="120.0" y="514" type="line"/>
      <point x="120.0" y="504" type="line"/>
      <point x="186.0" y="504" type="line"/>
    </contour>
  </outline>
</glyph>
<glyph name="IJ" format="2">
  <advance width="744"/>
  <unicode hex="0132"/>
  <outline>
    <contour>
      <point x="420.0" y="90" type="line"/>
      <point x="548.0" y="90"/>
      <point x="572.0" y="149"/>
      <point x="572.0" y="256" type="curve" smooth="yes"/>
      <point x="572.0" y="630" type="line"/>
      <point x="562.0" y="630" type="line"/>
      <point x="562.0" y="256" type="line"/>
      <point x="562.0" y="153"/>
      <point x="538.0" y="100"/>
      <point x="420.0" y="100" type="curve" smooth="yes"/>
      <point x="159.0" y="100" type="line"/>
      <point x="159.0" y="90" type="line"/>
    </contour>
    <contour>
      <point x="187.0" y="400" type="line" smooth="yes"/>
      <point x="187.0" y="630" type="line"/>
      <point x="177.0" y="630" type="line"/>
      <point x="177.0" y="400" type="line"/>
    </contour>
  </outline>
</glyph>
<glyph name="Ldot" format="2">
  <advance width="695"/>
  <unicode hex="013F"/>
  <outline>
    <contour>
      <point x="178.0" y="90" type="line"/>
      <point x="546.0" y="90" type="line"/>
      <point x="546.0" y="217" type="line"/>
      <point x="536.0" y="217" type="line"/>
      <point x="536.0" y="100" type="line"/>
      <point x="188.0" y="100" type="line"/>
      <point x="188.0" y="630" type="line"/>
      <point x="178.0" y="630" type="line"/>
    </contour>
    <contour>
      <point x="527.0" y="442" type="line"/>
      <point x="537.0" y="442" type="line"/>
      <point x="537.0" y="497" type="line"/>
      <point x="527.0" y="497" type="line"/>
    </contour>
  </outline>
</glyph>
<glyph name="Lslash" format="2">
  <advance width="705"/>
  <unicode hex="0141"/>
  <outline>
    <contour>
      <point x="110.0" y="378" type="line"/>
      <point x="310.0" y="411" type="line"/>
      <point x="310.0" y="421" type="line"/>
      <point x="110.0" y="388" type="line"/>
    </contour>
    <component base="L" xOffset="10"/>
  </outline>
</glyph>
<glyph name="Eng" format="1">
  <advance width="746"/>
  <unicode hex="014A"/>
  <outline>
    <contour>
      <point x="445.0" y="1" type="line"/>
      <point x="537.0" y="1"/>
      <point x="572.0" y="30"/>
      <point x="572.0" y="100" type="curve" smooth="yes"/>
      <point x="572.0" y="507" type="line" smooth="yes"/>
      <point x="572.0" y="588"/>
      <point x="529.0" y="642"/>
      <point x="372.0" y="642" type="curve"/>
      <point x="215.0" y="642"/>
      <point x="171.0" y="588"/>
      <point x="171.0" y="507" type="curve" smooth="yes"/>
      <point x="171.0" y="90" type="line"/>
      <point x="181.0" y="90" type="line"/>
      <point x="181.0" y="507" type="line" smooth="yes"/>
      <point x="181.0" y="582"/>
      <point x="223.0" y="632"/>
      <point x="372.0" y="632" type="curve"/>
      <point x="521.0" y="632"/>
      <point x="562.0" y="582"/>
      <point x="562.0" y="507" type="curve" smooth="yes"/>
      <point x="562.0" y="100" type="line" smooth="yes"/>
      <point x="562.0" y="36"/>
      <point x="527.0" y="11"/>
      <point x="445.0" y="11" type="curve"/>
    </contour>
  </outline>
</glyph>
<glyph name="Tbar" format="2">
  <advance width="656"/>
  <unicode hex="0166"/>
  <outline>
    <contour>
      <point x="467.0" y="306" type="line"/>
      <point x="467.0" y="316" type="line"/>
      <point x="333.0" y="316" type="line"/>
      <point x="333.0" y="620" type="line"/>
      <point x="538.0" y="620" type="line"/>
      <point x="538.0" y="630" type="line"/>
      <point x="118.0" y="630" type="line"/>
      <point x="118.0" y="620" type="line"/>
      <point x="323.0" y="620" type="line"/>
      <point x="323.0" y="316" type="line"/>
      <point x="188.0" y="316" type="line"/>
      <point x="188.0" y="306" type="line"/>
      <point x="323.0" y="306" type="line"/>
      <point x="323.0" y="90" type="line"/>
      <point x="333.0" y="90" type="line"/>
      <point x="333.0" y="306" type="line"/>
    </contour>
    <component base="T"/>
  </outline>
</glyph>
<glyph name="ascript" format="2">
  <advance width="746"/>
  <unicode hex="0251"/>
  <outline>
    <contour>
      <point x="568.0" y="90" type="line"/>
      <point x="568.0" y="507" type="line" smooth="yes"/>
      <point x="568.0" y="588"/>
      <point x="522.0" y="642"/>
      <point x="366.0" y="642" type="curve" smooth="yes"/>
      <point x="210.0" y="642"/>
      <point x="166.0" y="588"/>
      <point x="166.0" y="507" type="curve" smooth="yes"/>
      <point x="166.0" y="225" type="line" smooth="yes"/>
      <point x="166.0" y="144"/>
      <point x="201.0" y="90"/>
      <point x="326.0" y="90" type="curve"/>
    </contour>
    <contour>
      <point x="176.0" y="225" type="curve" smooth="yes"/>
      <point x="176.0" y="507" type="line" smooth="yes"/>
      <point x="176.0" y="582"/>
      <point x="218.0" y="632"/>
      <point x="366.0" y="632" type="curve" smooth="yes"/>
      <point x="514.0" y="632"/>
      <point x="558.0" y="582"/>
      <point x="558.0" y="507" type="curve" smooth="yes"/>
      <point x="558.0" y="100" type="line"/>
      <point x="326.0" y="100" type="line"/>
      <point x="209.0" y="100"/>
      <point x="176.0" y="150"/>
    </contour>
  </outline>
</glyph>
<glyph name="commaturnedmod" format="1">
  <advance width="500"/>
  <unicode hex="02BB"/>
  <outline>
    <contour>
      <point x="191.0" y="490" type="line"/>
      <point x="309.0" y="490" type="line"/>
      <point x="309.0" y="500" type="line"/>
      <point x="201.0" y="500" type="line"/>
      <point x="201.0" y="587" type="line" smooth="yes"/>
      <point x="201.0" y="641"/>
      <point x="226.0" y="663"/>
      <point x="274.0" y="663" type="curve" smooth="yes"/>
      <point x="309.0" y="663" type="line"/>
      <point x="309.0" y="673" type="line"/>
      <point x="274.0" y="673" type="line" smooth="yes"/>
      <point x="220.0" y="673"/>
      <point x="191.0" y="648"/>
      <point x="191.0" y="587" type="curve" smooth="yes"/>
    </contour>
  </outline>
</glyph>
<glyph name="ringhalfright" format="1">
  <advance width="312"/>
  <unicode hex="02BE"/>
  <outline>
    <contour>
      <point x="113.0" y="654" type="line"/>
      <point x="158.0" y="654" type="line" smooth="yes"/>
      <point x="188.0" y="654"/>
      <point x="200.0" y="634"/>
      <point x="200.0" y="607" type="curve" smooth="yes"/>
      <point x="200.0" y="495" type="line" smooth="yes"/>
      <point x="200.0" y="468"/>
      <point x="188.0" y="448"/>
      <point x="158.0" y="448" type="curve" smooth="yes"/>
      <point x="113.0" y="448" type="line"/>
      <point x="113.0" y="438" type="line"/>
      <point x="158.0" y="438" type="line" smooth="yes"/>
      <point x="191.0" y="438"/>
      <point x="210.0" y="460"/>
      <point x="210.0" y="495" type="curve" smooth="yes"/>
      <point x="210.0" y="607" type="line" smooth="yes"/>
      <point x="210.0" y="642"/>
      <point x="191.0" y="664"/>
      <point x="158.0" y="664" type="curve" smooth="yes"/>
      <point x="113.0" y="664" type="line"/>
    </contour>
  </outline>
</glyph>
<glyph name="ringhalfleft" format="2">
  <advance width="312"/>
  <unicode hex="02BF"/>
  <outline>
    <contour>
      <point x="210.0" y="654" type="line"/>
      <point x="210.0" y="664" type="line"/>
      <point x="165.0" y="664" type="line" smooth="yes"/>
      <point x="132.0" y="664"/>
      <point x="113.0" y="642"/>
      <point x="113.0" y="607" type="curve" smooth="yes"/>
      <point x="113.0" y="495" type="line" smooth="yes"/>
      <point x="113.0" y="460"/>
      <point x="132.0" y="438"/>
      <point x="165.0" y="438" type="curve" smooth="yes"/>
      <point x="210.0" y="438" type="line"/>
      <point x="210.0" y="448" type="line"/>
      <point x="165.0" y="448" type="line" smooth="yes"/>
      <point x="135.0" y="448"/>
      <point x="123.0" y="468"/>
      <point x="123.0" y="495" type="curve" smooth="yes"/>
      <point x="123.0" y="607" type="line" smooth="yes"/>
      <point x="123.0" y="634"/>
      <point x="135.0" y="654"/>
      <point x="165.0" y="654" type="curve" smooth="yes"/>
    </contour>
  </outline>
</glyph>
<glyph name="caron" format="2">
  <advance width="500"/>
  <unicode hex="02C7"/>
  <anchor x="250.0" y="747.0" name="_top"/>
  <anchor x="250.0" y="0.0" name="_bottom"/>
  <outline>
    <contour>
      <point x="130.0" y="879" type="line"/>
      <point x="130.0" y="868" type="line"/>
      <point x="213.0" y="841" type="line" smooth="yes"/>
      <point x="225.0" y="838"/>
      <point x="234.0" y="835"/>
      <point x="249.0" y="835" type="curve"/>
      <point x="264.0" y="835"/>
      <point x="273.0" y="838"/>
      <point x="285.0" y="841" type="curve" smooth="yes"/>
      <point x="368.0" y="868" type="line"/>
      <point x="368.0" y="879" type="line"/>
      <point x="281.0" y="851" type="line" smooth="yes"/>
      <point x="271.0" y="848"/>
      <point x="262.0" y="845"/>
      <point x="249.0" y="845" type="curve"/>
      <point x="236.0" y="845"/>
      <point x="227.0" y="848"/>
      <point x="217.0" y="851" type="curve" smooth="yes"/>
    </contour>
  </outline>
</glyph>
<glyph name="verticallinemod" format="1">
  <advance width="356"/>
  <unicode hex="02C8"/>
  <outline>
    <contour>
      <point x="173.0" y="630" type="line"/>
      <point x="173.0" y="435" type="line"/>
      <point x="183.0" y="435" type="line"/>
      <point x="183.0" y="630" type="line"/>
    </contour>
  </outline>
</glyph>
<glyph name="dotaccent" format="2">
  <advance width="500"/>
  <unicode hex="02D9"/>
  <anchor x="250.0" y="747.0" name="_top"/>
  <anchor x="250.0" y="0.0" name="_bottom"/>
  <outline>
    <contour>
      <point x="256.0" y="830" type="line"/>
      <point x="256.0" y="889" type="line"/>
      <point x="246.0" y="889" type="line"/>
      <point x="246.0" y="830" type="line"/>
    </contour>
  </outline>
</glyph>
<glyph name="tilde" format="1">
  <advance width="500"/>
  <unicode hex="02DC"/>
  <outline>
    <contour>
      <point x="368.0" y="841" type="line"/>
      <point x="341.0" y="838"/>
      <point x="317.0" y="841"/>
      <point x="266.0" y="849" type="curve" smooth="yes"/>
      <point x="250.0" y="851" type="line"/>
      <point x="222.0" y="855" type="line" smooth="yes"/>
      <point x="177.0" y="861"/>
      <point x="153.0" y="863"/>
      <point x="130.0" y="860" type="curve"/>
      <point x="130.0" y="849" type="line"/>
      <point x="152.0" y="853"/>
      <point x="176.0" y="852"/>
      <point x="220.0" y="845" type="curve" smooth="yes"/>
      <point x="248.0" y="841" type="line"/>
      <point x="264.0" y="839" type="line" smooth="yes"/>
      <point x="315.0" y="831"/>
      <point x="341.0" y="828"/>
      <point x="368.0" y="831" type="curve"/>
    </contour>
    <contour>
      <point x="250.0" y="747.0" type="move" name="_top"/>
    </contour>
    <contour>
      <point x="250.0" y="0.0" type="move" name="_bottom"/>
    </contour>
  </outline>
</glyph>
<glyph name="hookcmb" format="1">
  <advance width="0"/>
  <unicode hex="0309"/>
  <outline>
    <contour>
      <point x="-17.0" y="805" type="line"/>
      <point x="80.0" y="820" type="line" smooth="yes"/>
      <point x="101.0" y="823"/>
      <point x="121.0" y="833"/>
      <point x="121.0" y="871" type="curve" smooth="yes"/>
      <point x="121.0" y="921" type="line" smooth="yes"/>
      <point x="121.0" y="960"/>
      <point x="96.0" y="970"/>
      <point x="71.0" y="970" type="curve" smooth="yes"/>
      <point x="-65.0" y="970" type="line"/>
      <point x="-65.0" y="960" type="line"/>
      <point x="71.0" y="960" type="line" smooth="yes"/>
      <point x="91.0" y="960"/>
      <point x="111.0" y="952"/>
      <point x="111.0" y="921" type="curve" smooth="yes"/>
      <point x="111.0" y="871" type="line" smooth="yes"/>
      <point x="111.0" y="843"/>
      <point x="98.0" y="832"/>
      <point x="78.0" y="829" type="curve" smooth="yes"/>
      <point x="-18.0" y="815" type="line"/>
    </contour>
  </outline>
</glyph>
<glyph name="horncmb" format="1">
  <advance width="0"/>
  <unicode hex="031B"/>
  <outline>
    <contour>
      <point x="-99.0" y="632" type="line"/>
      <point x="-19.0" y="632"/>
      <point x="6.0" y="680"/>
      <point x="6.0" y="724" type="curve" smooth="yes"/>
      <point x="6.0" y="733" type="line"/>
      <point x="-4.0" y="733" type="line"/>
      <point x="-4.0" y="724" type="line" smooth="yes"/>
      <point x="-4.0" y="682"/>
      <point x="-33.0" y="642"/>
      <point x="-99.0" y="642" type="curve"/>
    </contour>
  </outline>
</glyph>
<glyph name="pi" format="1">
  <advance width="721"/>
  <unicode hex="03C0"/>
  <outline>
    <contour>
      <point x="170.0" y="90" type="line"/>
      <point x="180.0" y="90" type="line"/>
      <point x="180.0" y="470" type="line"/>
      <point x="542.0" y="470" type="line"/>
      <point x="542.0" y="90" type="line"/>
      <point x="552.0" y="90" type="line"/>
      <point x="552.0" y="480" type="line"/>
      <point x="170.0" y="480" type="line"/>
    </contour>
  </outline>
</glyph>
<glyph name="Germandbls" format="1">
  <advance width="759.0"/>
  <unicode hex="1E9E"/>
  <outline>
    <contour>
      <point x="193.0" y="90" type="line"/>
      <point x="193.0" y="620" type="line"/>
      <point x="431.0" y="620" type="line" smooth="yes"/>
      <point x="492.0" y="620"/>
      <point x="513.0" y="585"/>
      <point x="495.0" y="520" type="curve"/>
      <point x="451.0" y="364" type="line"/>
      <point x="511.0" y="364" type="line" smooth="yes"/>
      <point x="573.0" y="364"/>
      <point x="606.0" y="339"/>
      <point x="606.0" y="276" type="curve" smooth="yes"/>
      <point x="606.0" y="188" type="line" smooth="yes"/>
      <point x="606.0" y="126"/>
      <point x="577.0" y="100"/>
      <point x="502.0" y="100" type="curve" smooth="yes"/>
      <point x="446.0" y="100" type="line"/>
      <point x="446.0" y="90" type="line"/>
      <point x="502.0" y="90" type="line" smooth="yes"/>
      <point x="585.0" y="90"/>
      <point x="616.0" y="120"/>
      <point x="616.0" y="188" type="curve" smooth="yes"/>
      <point x="616.0" y="276" type="line" smooth="yes"/>
      <point x="616.0" y="345"/>
      <point x="581.0" y="374"/>
      <point x="511.0" y="374" type="curve" smooth="yes"/>
      <point x="465.0" y="374" type="line"/>
      <point x="505.0" y="518" type="line" smooth="yes"/>
      <point x="525.0" y="593"/>
      <point x="500.0" y="630"/>
      <point x="431.0" y="630" type="curve" smooth="yes"/>
      <point x="183.0" y="630" type="line"/>
      <point x="183.0" y="90" type="line"/>
    </contour>
  </outline>
</glyph>
<glyph name="emdash" format="2">
  <advance width="1134"/>
  <unicode hex="2014"/>
  <outline>
    <contour>
      <point x="974.0" y="365" type="line"/>
      <point x="160.0" y="365" type="line"/>
      <point x="160.0" y="355" type="line"/>
      <point x="974.0" y="355" type="line"/>
    </contour>
  </outline>
</glyph>
<glyph name="quoteleft" format="2">
  <advance width="384"/>
  <unicode hex="2018"/>
  <outline>
    <contour>
      <point x="125.0" y="450" type="line"/>
      <point x="259.0" y="450" type="line"/>
      <point x="259.0" y="460" type="line"/>
      <point x="135.0" y="460" type="line"/>
      <point x="135.0" y="569" type="line" smooth="yes"/>
      <point x="135.0" y="623"/>
      <point x="165.0" y="650"/>
      <point x="213.0" y="650" type="curve" smooth="yes"/>
      <point x="259.0" y="650" type="line"/>
      <point x="259.0" y="660" type="line"/>
      <point x="213.0" y="660" type="line" smooth="yes"/>
      <point x="159.0" y="660"/>
      <point x="125.0" y="630"/>
      <point x="125.0" y="569" type="curve" smooth="yes"/>
    </contour>
  </outline>
</glyph>
<glyph name="quoteright" format="1">
  <advance width="384"/>
  <unicode hex="2019"/>
  <outline>
    <contour>
      <point x="259.0" y="615" type="line"/>
      <point x="125.0" y="615" type="line"/>
      <point x="125.0" y="605" type="line"/>
      <point x="249.0" y="605" type="line"/>
      <point x="249.0" y="496" type="line" smooth="yes"/>
      <point x="249.0" y="442"/>
      <point x="219.0" y="415"/>
      <point x="171.0" y="415" type="curve" smooth="yes"/>
      <point x="125.0" y="415" type="line"/>
      <point x="125.0" y="405" type="line"/>
      <point x="171.0" y="405" type="line" smooth="yes"/>
      <point x="225.0" y="405"/>
      <point x="259.0" y="435"/>
      <point x="259.0" y="496" type="curve" smooth="yes"/>
    </contour>
  </outline>
</glyph>
<glyph name="quotedblleft" format="1">
  <advance width="684"/>
  <unicode hex="201C"/>
  <outline>
    <contour>
      <point x="115.0" y="450" type="line"/>
      <point x="249.0" y="450" type="line"/>
      <point x="249.0" y="460" type="line"/>
      <point x="125.0" y="460" type="line"/>
      <point x="125.0" y="569" type="line" smooth="yes"/>
      <point x="125.0" y="623"/>
      <point x="155.0" y="650"/>
      <point x="203.0" y="650" type="curve" smooth="yes"/>
      <point x="249.0" y="650" type="line"/>
      <point x="249.0" y="660" type="line"/>
      <point x="203.0" y="660" type="line" smooth="yes"/>
      <point x="149.0" y="660"/>
      <point x="115.0" y="630"/>
      <point x="115.0" y="569" type="curve" smooth="yes"/>
    </contour>
    <contour>
      <point x="435.0" y="450" type="line"/>
      <point x="569.0" y="450" type="line"/>
      <point x="569.0" y="460" type="line"/>
      <point x="445.0" y="460" type="line"/>
      <point x="445.0" y="569" type="line" smooth="yes"/>
      <point x="445.0" y="623"/>
      <point x="475.0" y="650"/>
      <point x="523.0" y="650" type="curve" smooth="yes"/>
      <point x="569.0" y="650" type="line"/>
      <point x="569.0" y="660" type="line"/>
      <point x="523.0" y="660" type="line" smooth="yes"/>
      <point x="469.0" y="660"/>
      <point x="435.0" y="630"/>
      <point x="435.0" y="569" type="curve" smooth="yes"/>
    </contour>
  </outline>
</glyph>
<glyph name="quotedblright" format="1">
  <advance width="684"/>
  <unicode hex="201D"/>
  <outline>
    <contour>
      <point x="249.0" y="615" type="line"/>
      <point x="115.0" y="615" type="line"/>
      <point x="115.0" y="605" type="line"/>
      <point x="239.0" y="605" type="line"/>
      <point x="239.0" y="496" type="line" smooth="yes"/>
      <point x="239.0" y="442"/>
      <point x="209.0" y="415"/>
      <point x="161.0" y="415" type="curve" smooth="yes"/>
      <point x="115.0" y="415" type="line"/>
      <point x="115.0" y="405" type="line"/>
      <point x="161.0" y="405" type="line" smooth="yes"/>
      <point x="215.0" y="405"/>
      <point x="249.0" y="435"/>
      <point x="249.0" y="496" type="curve" smooth="yes"/>
    </contour>
    <contour>
      <point x="569.0" y="615" type="line"/>
      <point x="435.0" y="615" type="line"/>
      <point x="435.0" y="605" type="line"/>
      <point x="559.0" y="605" type="line"/>
      <point x="559.0" y="496" type="line" smooth="yes"/>
      <point x="559.0" y="442"/>
      <point x="529.0" y="415"/>
      <point x="481.0" y="415" type="curve" smooth="yes"/>
      <point x="435.0" y="415" type="line"/>
      <point x="435.0" y="405" type="line"/>
      <point x="481.0" y="405" type="line" smooth="yes"/>
      <point x="535.0" y="405"/>
      <point x="569.0" y="435"/>
      <point x="569.0" y="496" type="curve" smooth="yes"/>
    </contour>
  </outline>
</glyph>
<glyph name="bullet" format="1">
  <advance width="443"/>
  <unicode hex="2022"/>
  <outline>
    <contour>
      <point x="308.0" y="449" type="line"/>
      <point x="135.0" y="449" type="line"/>
      <point x="135.0" y="275" type="line"/>
      <point x="308.0" y="275" type="line"/>
    </contour>
    <contour>
      <point x="298.0" y="439" type="line"/>
      <point x="298.0" y="285" type="line"/>
      <point x="145.0" y="285" type="line"/>
      <point x="145.0" y="439" type="line"/>
    </contour>
  </outline>
</glyph>
<glyph name="perthousand" format="1">
  <advance width="1417"/>
  <unicode hex="2030"/>
  <outline>
    <contour>
      <point x="331.0" y="583" type="line" smooth="yes"/>
      <point x="331.0" y="641"/>
      <point x="300.0" y="663"/>
      <point x="221.0" y="663" type="curve" smooth="yes"/>
      <point x="143.0" y="663"/>
      <point x="110.0" y="641"/>
      <point x="110.0" y="583" type="curve" smooth="yes"/>
      <point x="110.0" y="437" type="line" smooth="yes"/>
      <point x="110.0" y="379"/>
      <point x="143.0" y="358"/>
      <point x="221.0" y="358" type="curve" smooth="yes"/>
      <point x="300.0" y="358"/>
      <point x="331.0" y="379"/>
      <point x="331.0" y="437" type="curve" smooth="yes"/>
    </contour>
    <contour>
      <point x="221.0" y="368" type="curve" smooth="yes"/>
      <point x="153.0" y="368"/>
      <point x="120.0" y="385"/>
      <point x="120.0" y="437" type="curve" smooth="yes"/>
      <point x="120.0" y="583" type="line" smooth="yes"/>
      <point x="120.0" y="635"/>
      <point x="153.0" y="653"/>
      <point x="221.0" y="653" type="curve" smooth="yes"/>
      <point x="290.0" y="653"/>
      <point x="321.0" y="635"/>
      <point x="321.0" y="583" type="curve" smooth="yes"/>
      <point x="321.0" y="437" type="line" smooth="yes"/>
      <point x="321.0" y="385"/>
      <point x="290.0" y="368"/>
    </contour>
    <contour>
      <point x="459.0" y="90" type="line"/>
      <point x="592.0" y="630" type="line"/>
      <point x="582.0" y="630" type="line"/>
      <point x="449.0" y="90" type="line"/>
    </contour>
    <contour>
      <point x="929.0" y="280" type="line" smooth="yes"/>
      <point x="929.0" y="338"/>
      <point x="898.0" y="360"/>
      <point x="819.0" y="360" type="curve" smooth="yes"/>
      <point x="741.0" y="360"/>
      <point x="708.0" y="338"/>
      <point x="708.0" y="280" type="curve" smooth="yes"/>
      <point x="708.0" y="134" type="line" smooth="yes"/>
      <point x="708.0" y="76"/>
      <point x="741.0" y="55"/>
      <point x="819.0" y="55" type="curve" smooth="yes"/>
      <point x="898.0" y="55"/>
      <point x="929.0" y="76"/>
      <point x="929.0" y="134" type="curve" smooth="yes"/>
    </contour>
    <contour>
      <point x="1326.0" y="280" type="line" smooth="yes"/>
      <point x="1326.0" y="338"/>
      <point x="1295.0" y="360"/>
      <point x="1216.0" y="360" type="curve" smooth="yes"/>
      <point x="1138.0" y="360"/>
      <point x="1105.0" y="338"/>
      <point x="1105.0" y="280" type="curve" smooth="yes"/>
      <point x="1105.0" y="134" type="line" smooth="yes"/>
      <point x="1105.0" y="76"/>
      <point x="1138.0" y="55"/>
      <point x="1216.0" y="55" type="curve" smooth="yes"/>
      <point x="1295.0" y="55"/>
      <point x="1326.0" y="76"/>
      <point x="1326.0" y="134" type="curve" smooth="yes"/>
    </contour>
    <contour>
      <point x="819.0" y="65" type="curve" smooth="yes"/>
      <point x="751.0" y="65"/>
      <point x="718.0" y="82"/>
      <point x="718.0" y="134" type="curve" smooth="yes"/>
      <point x="718.0" y="280" type="line" smooth="yes"/>
      <point x="718.0" y="332"/>
      <point x="751.0" y="350"/>
      <point x="819.0" y="350" type="curve" smooth="yes"/>
      <point x="888.0" y="350"/>
      <point x="919.0" y="332"/>
      <point x="919.0" y="280" type="curve" smooth="yes"/>
      <point x="919.0" y="134" type="line" smooth="yes"/>
      <point x="919.0" y="82"/>
      <point x="888.0" y="65"/>
    </contour>
    <contour>
      <point x="1216.0" y="65" type="curve" smooth="yes"/>
      <point x="1148.0" y="65"/>
      <point x="1115.0" y="82"/>
      <point x="1115.0" y="134" type="curve" smooth="yes"/>
      <point x="1115.0" y="280" type="line" smooth="yes"/>
      <point x="1115.0" y="332"/>
      <point x="1148.0" y="350"/>
      <point x="1216.0" y="350" type="curve" smooth="yes"/>
      <point x="1285.0" y="350"/>
      <point x="1316.0" y="332"/>
      <point x="1316.0" y="280" type="curve" smooth="yes"/>
      <point x="1316.0" y="134" type="line" smooth="yes"/>
      <point x="1316.0" y="82"/>
      <point x="1285.0" y="65"/>
    </contour>
  </outline>
</glyph>
<glyph name="guilsinglleft" format="2">
  <advance width="563"/>
  <unicode hex="2039"/>
  <outline>
    <contour>
      <point x="215.0" y="256" type="line" smooth="yes"/>
      <point x="185.0" y="262"/>
      <point x="170.0" y="276"/>
      <point x="170.0" y="310" type="curve" smooth="yes"/>
      <point x="170.0" y="388" type="line" smooth="yes"/>
      <point x="170.0" y="422"/>
      <point x="185.0" y="436"/>
      <point x="214.0" y="442" type="curve" smooth="yes"/>
      <point x="400.0" y="480" type="line"/>
      <point x="400.0" y="490" type="line"/>
      <point x="212.0" y="452" type="line" smooth="yes"/>
      <point x="177.0" y="445"/>
      <point x="160.0" y="428"/>
      <point x="160.0" y="388" type="curve" smooth="yes"/>
      <point x="160.0" y="310" type="line" smooth="yes"/>
      <point x="160.0" y="270"/>
      <point x="177.0" y="253"/>
      <point x="213.0" y="246" type="curve" smooth="yes"/>
      <point x="400.0" y="208" type="line"/>
      <point x="400.0" y="218" type="line"/>
    </contour>
  </outline>
</glyph>
<glyph name="fraction" format="1">
  <advance width="317"/>
  <unicode hex="2044"/>
  <unicode hex="2215"/>
  <outline>
    <contour>
      <point x="114.0" y="90" type="line"/>
      <point x="214.0" y="630" type="line"/>
      <point x="204.0" y="630" type="line"/>
      <point x="104.0" y="90" type="line"/>
    </contour>
  </outline>
</glyph>
<glyph name="five.sups" format="1">
  <advance width="493"/>
  <unicode hex="2075"/>
  <outline>
    <contour>
      <point x="119.0" y="266" type="line"/>
      <point x="290.0" y="266" type="line" smooth="yes"/>
      <point x="350.0" y="266"/>
      <point x="372.0" y="288"/>
      <point x="372.0" y="337" type="curve" smooth="yes"/>
      <point x="372.0" y="400" type="line" smooth="yes"/>
      <point x="372.0" y="451"/>
      <point x="346.0" y="471"/>
      <point x="295.0" y="471" type="curve" smooth="yes"/>
      <point x="147.0" y="471" type="line"/>
      <point x="147.0" y="647" type="line"/>
      <point x="359.0" y="647" type="line"/>
      <point x="359.0" y="655" type="line"/>
      <point x="139.0" y="655" type="line"/>
      <point x="139.0" y="463" type="line"/>
      <point x="295.0" y="463" type="line" smooth="yes"/>
      <point x="340.0" y="463"/>
      <point x="364.0" y="445"/>
      <point x="364.0" y="400" type="curve" smooth="yes"/>
      <point x="364.0" y="337" type="line" smooth="yes"/>
      <point x="364.0" y="292"/>
      <point x="344.0" y="274"/>
      <point x="290.0" y="274" type="curve" smooth="yes"/>
      <point x="119.0" y="274" type="line"/>
    </contour>
  </outline>
</glyph>
<glyph name="six.sups" format="1">
  <advance width="528"/>
  <unicode hex="2076"/>
  <outline>
    <contour>
      <point x="273.0" y="252" type="curve" smooth="yes"/>
      <point x="348.0" y="252"/>
      <point x="403.0" y="264"/>
      <point x="403.0" y="335" type="curve" smooth="yes"/>
      <point x="403.0" y="400" type="line" smooth="yes"/>
      <point x="403.0" y="474"/>
      <point x="348.0" y="478"/>
      <point x="275.0" y="478" type="curve" smooth="yes"/>
      <point x="215.0" y="478"/>
      <point x="162.0" y="470"/>
      <point x="143.0" y="436" type="curve"/>
      <point x="143.0" y="572" type="line" smooth="yes"/>
      <point x="143.0" y="632"/>
      <point x="177.0" y="648"/>
      <point x="234.0" y="648" type="curve" smooth="yes"/>
      <point x="364.0" y="648" type="line"/>
      <point x="364.0" y="656" type="line"/>
      <point x="234.0" y="656" type="line" smooth="yes"/>
      <point x="171.0" y="656"/>
      <point x="135.0" y="638"/>
      <point x="135.0" y="572" type="curve" smooth="yes"/>
      <point x="135.0" y="335" type="line" smooth="yes"/>
      <point x="135.0" y="262"/>
      <point x="195.0" y="252"/>
    </contour>
    <contour>
      <point x="273.0" y="260" type="curve" smooth="yes"/>
      <point x="203.0" y="260"/>
      <point x="143.0" y="266"/>
      <point x="143.0" y="335" type="curve" smooth="yes"/>
      <point x="143.0" y="406" type="line"/>
      <point x="143.0" y="462"/>
      <point x="211.0" y="470"/>
      <point x="275.0" y="470" type="curve" smooth="yes"/>
      <point x="340.0" y="470"/>
      <point x="395.0" y="470"/>
      <point x="395.0" y="400" type="curve" smooth="yes"/>
      <point x="395.0" y="335" type="line" smooth="yes"/>
      <point x="395.0" y="268"/>
      <point x="340.0" y="260"/>
    </contour>
  </outline>
</glyph>
<glyph name="seven.sups" format="2">
  <advance width="477"/>
  <unicode hex="2077"/>
  <outline>
    <contour>
      <point x="170.0" y="255" type="line"/>
      <point x="179.0" y="255" type="line"/>
      <point x="179.0" y="378" type="line" smooth="yes"/>
      <point x="179.0" y="396"/>
      <point x="187.0" y="408"/>
      <point x="200.0" y="412" type="curve" smooth="yes"/>
      <point x="323.0" y="452" type="line" smooth="yes"/>
      <point x="340.0" y="458"/>
      <point x="348.0" y="471"/>
      <point x="348.0" y="493" type="curve" smooth="yes"/>
      <point x="348.0" y="654" type="line"/>
      <point x="103.0" y="654" type="line"/>
      <point x="103.0" y="646" type="line"/>
      <point x="340.0" y="646" type="line"/>
      <point x="340.0" y="493" type="line" smooth="yes"/>
      <point x="340.0" y="475"/>
      <point x="333.0" y="464"/>
      <point x="319.0" y="459" type="curve" smooth="yes"/>
      <point x="196.0" y="419" type="line" smooth="yes"/>
      <point x="181.0" y="414"/>
      <point x="170.0" y="401"/>
      <point x="170.0" y="378" type="curve" smooth="yes"/>
    </contour>
  </outline>
</glyph>
<glyph name="colonsign" format="2">
  <advance width="628"/>
  <unicode hex="20A1"/>
  <outline>
    <contour>
      <point x="307" y="55" type="line"/>
      <point x="307.0" y="131" type="line"/>
      <point x="313.0" y="131"/>
      <point x="319.0" y="131"/>
      <point x="326.0" y="131" type="curve" smooth="yes"/>
      <point x="447.0" y="131" type="line"/>
      <point x="447" y="55" type="line"/>
      <point x="457" y="55" type="line"/>
      <point x="457.0" y="131" type="line"/>
      <point x="493.0" y="131" type="line"/>
      <point x="493.0" y="141" type="line"/>
      <point x="326.0" y="141" type="line" smooth="yes"/>
      <point x="206.0" y="141"/>
      <point x="176.0" y="173"/>
      <point x="176.0" y="260" type="curve" smooth="yes"/>
      <point x="176.0" y="457" type="line" smooth="yes"/>
      <point x="176.0" y="546"/>
      <point x="208.0" y="578"/>
      <point x="326.0" y="578" type="curve" smooth="yes"/>
      <point x="493.0" y="578" type="line"/>
      <point x="493.0" y="588" type="line"/>
      <point x="457.0" y="588" type="line"/>
      <point x="457" y="664" type="line"/>
      <point x="447" y="664" type="line"/>
      <point x="447.0" y="588" type="line"/>
      <point x="326.0" y="588" type="line" smooth="yes"/>
      <point x="319.0" y="588"/>
      <point x="313.0" y="588"/>
      <point x="307.0" y="588" type="curve"/>
      <point x="307" y="664" type="line"/>
      <point x="297" y="664" type="line"/>
      <point x="297.0" y="587" type="line"/>
      <point x="193.0" y="582"/>
      <point x="166.0" y="544"/>
      <point x="166.0" y="457" type="curve" smooth="yes"/>
      <point x="166.0" y="260" type="line" smooth="yes"/>
      <point x="166.0" y="174"/>
      <point x="191.0" y="137"/>
      <point x="297.0" y="132" type="curve"/>
      <point x="297" y="55" type="line"/>
    </contour>
  </outline>
</glyph>
<glyph name="naira" format="1">
  <advance width="753"/>
  <unicode hex="20A6"/>
  <outline>
    <contour>
      <point x="174.0" y="289" type="line"/>
      <point x="116.0" y="289" type="line"/>
      <point x="116.0" y="279" type="line"/>
      <point x="174.0" y="279" type="line"/>
      <point x="174.0" y="90" type="line"/>
      <point x="184.0" y="90" type="line"/>
      <point x="184.0" y="617" type="line" smooth="yes"/>
      <point x="184.0" y="618"/>
      <point x="184.0" y="620"/>
      <point x="186.0" y="620" type="curve" smooth="yes"/>
      <point x="188.0" y="620"/>
      <point x="189.0" y="619"/>
      <point x="191.0" y="617" type="curve" smooth="yes"/>
      <point x="569.0" y="193" type="line"/>
      <point x="569.0" y="90" type="line"/>
      <point x="579.0" y="90" type="line"/>
      <point x="579.0" y="279" type="line"/>
      <point x="637.0" y="279" type="line"/>
      <point x="637.0" y="289" type="line"/>
      <point x="579.0" y="289" type="line"/>
      <point x="579.0" y="419" type="line"/>
      <point x="637.0" y="419" type="line"/>
      <point x="637.0" y="429" type="line"/>
      <point x="579.0" y="429" type="line"/>
      <point x="579.0" y="630" type="line"/>
      <point x="569.0" y="630" type="line"/>
      <point x="569.0" y="208" type="line"/>
      <point x="201.0" y="622" type="line"/>
      <point x="194.0" y="629"/>
      <point x="192.0" y="631"/>
      <point x="186.0" y="631" type="curve" smooth="yes"/>
      <point x="180.0" y="631"/>
      <point x="174.0" y="627"/>
      <point x="174.0" y="619" type="curve" smooth="yes"/>
      <point x="174.0" y="429" type="line"/>
      <point x="116.0" y="429" type="line"/>
      <point x="116.0" y="419" type="line"/>
      <point x="174.0" y="419" type="line"/>
    </contour>
  </outline>
</glyph>
<glyph name="dong" format="1">
  <advance width="682"/>
  <unicode hex="20AB"/>
  <outline>
    <contour>
      <point x="307.0" y="72" type="curve" smooth="yes"/>
      <point x="428.0" y="73"/>
      <point x="487.0" y="111"/>
      <point x="487.0" y="184" type="curve" smooth="yes"/>
      <point x="487.0" y="580" type="line"/>
      <point x="579.0" y="580" type="line"/>
      <point x="579.0" y="590" type="line"/>
      <point x="487.0" y="590" type="line"/>
      <point x="487.0" y="630" type="line"/>
      <point x="477.0" y="630" type="line"/>
      <point x="477.0" y="590" type="line"/>
      <point x="323.0" y="590" type="line"/>
      <point x="323.0" y="580" type="line"/>
      <point x="477.0" y="580" type="line"/>
      <point x="477.0" y="395" type="line"/>
      <point x="259.0" y="395" type="line" smooth="yes"/>
      <point x="171.0" y="395"/>
      <point x="133.0" y="349"/>
      <point x="133.0" y="274" type="curve" smooth="yes"/>
      <point x="133.0" y="189" type="line" smooth="yes"/>
      <point x="133.0" y="114"/>
      <point x="186.0" y="71"/>
    </contour>
    <contour>
      <point x="307.0" y="82" type="curve" smooth="yes"/>
      <point x="196.0" y="81"/>
      <point x="143.0" y="118"/>
      <point x="143.0" y="189" type="curve" smooth="yes"/>
      <point x="143.0" y="274" type="line" smooth="yes"/>
      <point x="143.0" y="343"/>
      <point x="179.0" y="385"/>
      <point x="259.0" y="385" type="curve" smooth="yes"/>
      <point x="477.0" y="385" type="line"/>
      <point x="477.0" y="184" type="line" smooth="yes"/>
      <point x="477.0" y="115"/>
      <point x="418.0" y="83"/>
    </contour>
    <contour>
      <point x="439.0" y="-105" type="line"/>
      <point x="179.0" y="-105" type="line"/>
      <point x="179.0" y="-115" type="line"/>
      <point x="439.0" y="-115" type="line"/>
    </contour>
  </outline>
</glyph>
<glyph name="peso" format="1">
  <advance width="712.0"/>
  <unicode hex="20B1"/>
  <outline>
    <contour>
      <point x="191.0" y="297" type="line"/>
      <point x="191.0" y="620" type="line"/>
      <point x="397.0" y="620" type="line" smooth="yes"/>
      <point x="515.0" y="620"/>
      <point x="537.0" y="566"/>
      <point x="537.0" y="494" type="curve" smooth="yes"/>
      <point x="537.0" y="420" type="line" smooth="yes"/>
      <point x="537.0" y="348"/>
      <point x="515.0" y="297"/>
      <point x="397.0" y="297" type="curve" smooth="yes"/>
    </contour>
    <contour>
      <point x="181.0" y="379" type="line"/>
      <point x="123.0" y="379" type="line"/>
      <point x="123.0" y="369" type="line"/>
      <point x="181.0" y="369" type="line"/>
      <point x="181.0" y="90" type="line"/>
      <point x="191.0" y="90" type="line"/>
      <point x="191.0" y="287" type="line"/>
      <point x="397.0" y="287" type="line" smooth="yes"/>
      <point x="493.0" y="287"/>
      <point x="530.0" y="319"/>
      <point x="542.0" y="369" type="curve"/>
      <point x="605.0" y="369" type="line"/>
      <point x="605.0" y="379" type="line"/>
      <point x="544.0" y="379" type="line"/>
      <point x="546.0" y="392"/>
      <point x="547.0" y="405"/>
      <point x="547.0" y="420" type="curve" smooth="yes"/>
      <point x="547.0" y="494" type="line" smooth="yes"/>
      <point x="547.0" y="499"/>
      <point x="547.0" y="504"/>
      <point x="547.0" y="509" type="curve"/>
      <point x="605.0" y="509" type="line"/>
      <point x="605.0" y="519" type="line"/>
      <point x="546.0" y="519" type="line"/>
      <point x="540.0" y="584"/>
      <point x="509.0" y="630"/>
      <point x="397.0" y="630" type="curve" smooth="yes"/>
      <point x="181.0" y="630" type="line"/>
      <point x="181.0" y="519" type="line"/>
      <point x="123.0" y="519" type="line"/>
      <point x="123.0" y="509" type="line"/>
      <point x="181.0" y="509" type="line"/>
    </contour>
  </outline>
</glyph>
<glyph name="guarani" format="1">
  <advance width="688.0"/>
  <unicode hex="20B2"/>
  <outline>
    <contour>
      <point x="358.0" y="40" type="line"/>
      <point x="368.0" y="40" type="line"/>
      <point x="368.0" y="125" type="line"/>
      <point x="531.0" y="125" type="line"/>
      <point x="531.0" y="281" type="line"/>
      <point x="521.0" y="284" type="line"/>
      <point x="521.0" y="138" type="line"/>
      <point x="342.0" y="135" type="line" smooth="yes"/>
      <point x="207.0" y="133"/>
      <point x="172.0" y="167"/>
      <point x="172.0" y="254" type="curve" smooth="yes"/>
      <point x="172.0" y="464" type="line" smooth="yes"/>
      <point x="172.0" y="553"/>
      <point x="204.0" y="585"/>
      <point x="322.0" y="585" type="curve" smooth="yes"/>
      <point x="495.0" y="585" type="line"/>
      <point x="495.0" y="595" type="line"/>
      <point x="368.0" y="595" type="line"/>
      <point x="368.0" y="680" type="line"/>
      <point x="358.0" y="680" type="line"/>
      <point x="358.0" y="595" type="line"/>
      <point x="322.0" y="595" type="line" smooth="yes"/>
      <point x="194.0" y="595"/>
      <point x="162.0" y="559"/>
      <point x="162.0" y="464" type="curve" smooth="yes"/>
      <point x="162.0" y="254" type="line" smooth="yes"/>
      <point x="162.0" y="161"/>
      <point x="195.0" y="125"/>
      <point x="342.0" y="125" type="curve" smooth="yes"/>
      <point x="358.0" y="125" type="line"/>
    </contour>
  </outline>
</glyph>
<glyph name="indianrupee" format="2">
  <advance width="613"/>
  <unicode hex="20B9"/>
  <outline>
    <contour>
      <point x="451.0" y="94" type="line"/>
      <point x="461.0" y="94" type="line"/>
      <point x="461.0" y="174" type="line" smooth="yes"/>
      <point x="461.0" y="244"/>
      <point x="422.0" y="281"/>
      <point x="340.0" y="281" type="curve" smooth="yes"/>
      <point x="316.0" y="280" type="line"/>
      <point x="367.0" y="294"/>
      <point x="379.0" y="335"/>
      <point x="379.0" y="397" type="curve" smooth="yes"/>
      <point x="379.0" y="460" type="line"/>
      <point x="490.0" y="460" type="line"/>
      <point x="490.0" y="470" type="line"/>
      <point x="379.0" y="470" type="line"/>
      <point x="379.0" y="537" type="line" smooth="yes"/>
      <point x="379.0" y="585"/>
      <point x="360.0" y="624"/>
      <point x="319.0" y="641" type="curve"/>
      <point x="490.0" y="641" type="line"/>
      <point x="490.0" y="651" type="line"/>
      <point x="129.0" y="651" type="line"/>
      <point x="129.0" y="641" type="line"/>
      <point x="265.0" y="641" type="line" smooth="yes"/>
      <point x="336.0" y="641"/>
      <point x="369.0" y="599"/>
      <point x="369.0" y="537" type="curve" smooth="yes"/>
      <point x="369.0" y="470" type="line"/>
      <point x="129.0" y="470" type="line"/>
      <point x="129.0" y="460" type="line"/>
      <point x="369.0" y="460" type="line"/>
      <point x="369.0" y="396" type="line" smooth="yes"/>
      <point x="369.0" y="322"/>
      <point x="348.0" y="281"/>
      <point x="265.0" y="281" type="curve" smooth="yes"/>
      <point x="129.0" y="281" type="line"/>
      <point x="129.0" y="274" type="line"/>
      <point x="176.0" y="274" type="line"/>
      <point x="129.0" y="272" type="line"/>
      <point x="340.0" y="272" type="line" smooth="yes"/>
      <point x="416.0" y="272"/>
      <point x="451.0" y="240"/>
      <point x="451.0" y="174" type="curve" smooth="yes"/>
    </contour>
  </outline>
</glyph>
<glyph name="turkishlira" format="1">
  <advance width="695"/>
  <unicode hex="20BA"/>
  <outline>
    <contour>
      <point x="178.0" y="90" type="line"/>
      <point x="396.0" y="90" type="line" smooth="yes"/>
      <point x="523.0" y="90"/>
      <point x="566.0" y="166"/>
      <point x="566.0" y="266" type="curve" smooth="yes"/>
      <point x="566.0" y="291" type="line"/>
      <point x="556.0" y="291" type="line"/>
      <point x="556.0" y="266" type="line" smooth="yes"/>
      <point x="556.0" y="170"/>
      <point x="513.0" y="100"/>
      <point x="396.0" y="100" type="curve" smooth="yes"/>
      <point x="188.0" y="100" type="line"/>
      <point x="188.0" y="353" type="line"/>
      <point x="290.0" y="370" type="line"/>
      <point x="290.0" y="380" type="line"/>
      <point x="188.0" y="363" type="line"/>
      <point x="188.0" y="491" type="line"/>
      <point x="290.0" y="508" type="line"/>
      <point x="290.0" y="518" type="line"/>
      <point x="188.0" y="501" type="line"/>
      <point x="188.0" y="630" type="line"/>
      <point x="178.0" y="630" type="line"/>
      <point x="178.0" y="499" type="line"/>
      <point x="79.0" y="482" type="line"/>
      <point x="79.0" y="472" type="line"/>
      <point x="178.0" y="489" type="line"/>
      <point x="178.0" y="361" type="line"/>
      <point x="79.0" y="344" type="line"/>
      <point x="79.0" y="334" type="line"/>
      <point x="178.0" y="351" type="line"/>
    </contour>
  </outline>
</glyph>
<glyph name="ruble" format="1">
  <advance width="682"/>
  <unicode hex="20BD"/>
  <outline>
    <contour>
      <point x="188" y="342" type="line"/>
      <point x="188" y="620" type="line"/>
      <point x="394" y="620" type="line" smooth="yes"/>
      <point x="512" y="620"/>
      <point x="534" y="566"/>
      <point x="534" y="494" type="curve" smooth="yes"/>
      <point x="534" y="465" type="line" smooth="yes"/>
      <point x="534" y="393"/>
      <point x="512" y="342"/>
      <point x="394" y="342" type="curve" smooth="yes"/>
    </contour>
    <contour>
      <point x="178" y="90" type="line"/>
      <point x="188" y="90" type="line"/>
      <point x="188" y="145" type="line"/>
      <point x="287" y="145" type="line"/>
      <point x="287" y="155" type="line"/>
      <point x="188" y="155" type="line"/>
      <point x="188" y="332" type="line"/>
      <point x="394" y="332" type="line" smooth="yes"/>
      <point x="520" y="332"/>
      <point x="544" y="387"/>
      <point x="544" y="465" type="curve" smooth="yes"/>
      <point x="544" y="494" type="line" smooth="yes"/>
      <point x="544" y="572"/>
      <point x="520" y="630"/>
      <point x="394" y="630" type="curve" smooth="yes"/>
      <point x="178" y="630" type="line"/>
      <point x="178" y="155" type="line"/>
      <point x="107" y="155" type="line"/>
      <point x="107" y="145" type="line"/>
      <point x="178" y="145" type="line"/>
    </contour>
  </outline>
</glyph>
<glyph name="liter" format="1">
  <advance width="649"/>
  <unicode hex="2113"/>
  <outline>
    <contour>
      <point x="315.0" y="89" type="curve" smooth="yes"/>
      <point x="424.0" y="89" type="line"/>
      <point x="424.0" y="99" type="line"/>
      <point x="315.0" y="99" type="line" smooth="yes"/>
      <point x="219.0" y="99"/>
      <point x="178.0" y="134"/>
      <point x="178.0" y="216" type="curve" smooth="yes"/>
      <point x="178.0" y="320" type="line"/>
      <point x="327.0" y="320" type="line" smooth="yes"/>
      <point x="429.0" y="320"/>
      <point x="482.0" y="353"/>
      <point x="482.0" y="437" type="curve" smooth="yes"/>
      <point x="482.0" y="520" type="line" smooth="yes"/>
      <point x="482.0" y="607"/>
      <point x="438.0" y="652"/>
      <point x="317.0" y="652" type="curve" smooth="yes"/>
      <point x="196.0" y="652"/>
      <point x="168.0" y="608"/>
      <point x="168.0" y="519" type="curve" smooth="yes"/>
      <point x="168.0" y="216" type="line" smooth="yes"/>
      <point x="168.0" y="128"/>
      <point x="211.0" y="89"/>
    </contour>
    <contour>
      <point x="178.0" y="519" type="line" smooth="yes"/>
      <point x="178.0" y="602"/>
      <point x="206.0" y="642"/>
      <point x="317.0" y="642" type="curve" smooth="yes"/>
      <point x="428.0" y="642"/>
      <point x="472.0" y="601"/>
      <point x="472.0" y="520" type="curve" smooth="yes"/>
      <point x="472.0" y="437" type="line" smooth="yes"/>
      <point x="472.0" y="359"/>
      <point x="421.0" y="330"/>
      <point x="327.0" y="330" type="curve" smooth="yes"/>
      <point x="178.0" y="330" type="line"/>
    </contour>
  </outline>
</glyph>
<glyph name="uni2120" format="2">
  <advance width="903"/>
  <unicode hex="2120"/>
  <outline>
    <contour>
      <point x="299.0" y="666" type="line"/>
      <point x="166.0" y="666" type="line" smooth="yes"/>
      <point x="128.0" y="666"/>
      <point x="104.0" y="643"/>
      <point x="104.0" y="610" type="curve" smooth="yes"/>
      <point x="104.0" y="557" type="line" smooth="yes"/>
      <point x="104.0" y="524"/>
      <point x="119.0" y="513"/>
      <point x="141.0" y="509" type="curve" smooth="yes"/>
      <point x="267.0" y="486" type="line" smooth="yes"/>
      <point x="287.0" y="482"/>
      <point x="301.0" y="472"/>
      <point x="301.0" y="436" type="curve" smooth="yes"/>
      <point x="301.0" y="401" type="line" smooth="yes"/>
      <point x="301.0" y="371"/>
      <point x="279.0" y="350"/>
      <point x="243.0" y="350" type="curve" smooth="yes"/>
      <point x="94.0" y="350" type="line"/>
      <point x="94.0" y="340" type="line"/>
      <point x="243.0" y="340" type="line" smooth="yes"/>
      <point x="284.0" y="340"/>
      <point x="311.0" y="366"/>
      <point x="311.0" y="401" type="curve" smooth="yes"/>
      <point x="311.0" y="436" type="line"/>
      <point x="311.0" y="478"/>
      <point x="293.0" y="490"/>
      <point x="268.0" y="495" type="curve" smooth="yes"/>
      <point x="142.0" y="519" type="line" smooth="yes"/>
      <point x="124.0" y="522"/>
      <point x="114.0" y="530"/>
      <point x="114.0" y="557" type="curve" smooth="yes"/>
      <point x="114.0" y="610" type="line" smooth="yes"/>
      <point x="114.0" y="637"/>
      <point x="134.0" y="656"/>
      <point x="166.0" y="656" type="curve" smooth="yes"/>
      <point x="299.0" y="656" type="line"/>
    </contour>
    <contour>
      <point x="501.0" y="349" type="line"/>
      <point x="501.0" y="644" type="line" smooth="yes"/>
      <point x="501.0" y="650"/>
      <point x="505.0" y="653"/>
      <point x="509.0" y="653" type="curve" smooth="yes"/>
      <point x="516.0" y="653" type="line" smooth="yes"/>
      <point x="521.0" y="653"/>
      <point x="525.0" y="651"/>
      <point x="529.0" y="646" type="curve" smooth="yes"/>
      <point x="621.0" y="517" type="line" smooth="yes"/>
      <point x="626.0" y="509"/>
      <point x="630.0" y="507"/>
      <point x="637.0" y="507" type="curve" smooth="yes"/>
      <point x="639.0" y="507" type="line" smooth="yes"/>
      <point x="648.0" y="507"/>
      <point x="651.0" y="511"/>
      <point x="656.0" y="518" type="curve"/>
      <point x="747.0" y="646" type="line" smooth="yes"/>
      <point x="751.0" y="651"/>
      <point x="755.0" y="653"/>
      <point x="760.0" y="653" type="curve" smooth="yes"/>
      <point x="767.0" y="653" type="line" smooth="yes"/>
      <point x="772.0" y="653"/>
      <point x="775.0" y="650"/>
      <point x="775.0" y="644" type="curve" smooth="yes"/>
      <point x="775.0" y="349" type="line"/>
      <point x="785.0" y="349" type="line"/>
      <point x="785.0" y="644" type="line" smooth="yes"/>
      <point x="785.0" y="656"/>
      <point x="777.0" y="663"/>
      <point x="767.0" y="663" type="curve" smooth="yes"/>
      <point x="760.0" y="663" type="line" smooth="yes"/>
      <point x="753.0" y="663"/>
      <point x="745.0" y="661"/>
      <point x="739.0" y="652" type="curve" smooth="yes"/>
      <point x="648.0" y="524" type="line"/>
      <point x="645.0" y="521"/>
      <point x="644.0" y="517"/>
      <point x="639.0" y="517" type="curve" smooth="yes"/>
      <point x="637.0" y="517" type="line" smooth="yes"/>
      <point x="634.0" y="517"/>
      <point x="632.0" y="519"/>
      <point x="629.0" y="523" type="curve" smooth="yes"/>
      <point x="537.0" y="652" type="line" smooth="yes"/>
      <point x="531.0" y="661"/>
      <point x="523.0" y="663"/>
      <point x="516.0" y="663" type="curve" smooth="yes"/>
      <point x="509.0" y="663" type="line" smooth="yes"/>
      <point x="500.0" y="663"/>
      <point x="491.0" y="656"/>
      <point x="491.0" y="644" type="curve" smooth="yes"/>
      <point x="491.0" y="349" type="line"/>
    </contour>
  </outline>
</glyph>
<glyph name="Omega" format="1">
  <advance width="777"/>
  <unicode hex="2126"/>
  <unicode hex="03A9"/>
  <outline>
    <contour>
      <point x="581.0" y="263" type="line" smooth="yes"/>
      <point x="581.0" y="192"/>
      <point x="573.0" y="159"/>
      <point x="505.0" y="138" type="curve" smooth="yes"/>
      <point x="501.0" y="137" type="line"/>
      <point x="501.0" y="90" type="line"/>
      <point x="652.0" y="90" type="line"/>
      <point x="652.0" y="100" type="line"/>
      <point x="511.0" y="100" type="line"/>
      <point x="511.0" y="129" type="line"/>
      <point x="581.0" y="151"/>
      <point x="591.0" y="186"/>
      <point x="591.0" y="263" type="curve" smooth="yes"/>
      <point x="591.0" y="507" type="line" smooth="yes"/>
      <point x="591.0" y="588"/>
      <point x="546.0" y="642"/>
      <point x="389.0" y="642" type="curve" smooth="yes"/>
      <point x="232.0" y="642"/>
      <point x="187.0" y="588"/>
      <point x="187.0" y="507" type="curve" smooth="yes"/>
      <point x="187.0" y="263" type="line" smooth="yes"/>
      <point x="187.0" y="187"/>
      <point x="197.0" y="152"/>
      <point x="267.0" y="129" type="curve"/>
      <point x="267.0" y="100" type="line"/>
      <point x="126.0" y="100" type="line"/>
      <point x="126.0" y="90" type="line"/>
      <point x="277.0" y="90" type="line"/>
      <point x="277.0" y="137" type="line"/>
      <point x="273.0" y="138" type="line" smooth="yes"/>
      <point x="205.0" y="159"/>
      <point x="197.0" y="192"/>
      <point x="197.0" y="263" type="curve" smooth="yes"/>
      <point x="197.0" y="507" type="line" smooth="yes"/>
      <point x="197.0" y="582"/>
      <point x="240.0" y="632"/>
      <point x="389.0" y="632" type="curve" smooth="yes"/>
      <point x="538.0" y="632"/>
      <point x="581.0" y="582"/>
      <point x="581.0" y="507" type="curve" smooth="yes"/>
    </contour>
  </outline>
</glyph>
<glyph name="estimated" format="1">
  <advance width="715"/>
  <unicode hex="212E"/>
  <outline>
    <contour>
      <point x="167.0" y="360" type="line"/>
      <point x="557.0" y="360" type="line"/>
      <point x="557.0" y="507" type="line" smooth="yes"/>
      <point x="557.0" y="599"/>
      <point x="520.0" y="636"/>
      <point x="356.0" y="636" type="curve" smooth="yes"/>
      <point x="194.0" y="636"/>
      <point x="157.0" y="599"/>
      <point x="157.0" y="507" type="curve" smooth="yes"/>
      <point x="157.0" y="227" type="line" smooth="yes"/>
      <point x="157.0" y="132"/>
      <point x="191.0" y="94"/>
      <point x="326.0" y="94" type="curve" smooth="yes"/>
      <point x="499.0" y="94" type="line"/>
      <point x="499.0" y="104" type="line"/>
      <point x="326.0" y="104" type="line" smooth="yes"/>
      <point x="201.0" y="104"/>
      <point x="167.0" y="138"/>
      <point x="167.0" y="227" type="curve" smooth="yes"/>
    </contour>
    <contour>
      <point x="167.0" y="370" type="line"/>
      <point x="167.0" y="507" type="line" smooth="yes"/>
      <point x="167.0" y="595"/>
      <point x="206.0" y="626"/>
      <point x="356.0" y="626" type="curve" smooth="yes"/>
      <point x="508.0" y="626"/>
      <point x="547.0" y="595"/>
      <point x="547.0" y="507" type="curve" smooth="yes"/>
      <point x="547.0" y="370" type="line"/>
    </contour>
  </outline>
</glyph>
<glyph name="arrowleft" format="1">
  <advance width="1000"/>
  <unicode hex="2190"/>
  <outline>
    <contour>
      <point x="509.0" y="221" type="line"/>
      <point x="509.0" y="354" type="line"/>
      <point x="725.0" y="354" type="line"/>
      <point x="725.0" y="364" type="line"/>
      <point x="509.0" y="364" type="line"/>
      <point x="509.0" y="496" type="line"/>
      <point x="305.0" y="359" type="line"/>
    </contour>
    <contour>
      <point x="499.0" y="239" type="line"/>
      <point x="323.0" y="359" type="line"/>
      <point x="499.0" y="478" type="line"/>
    </contour>
  </outline>
</glyph>
<glyph name="arrowup" format="1">
  <advance width="1000"/>
  <unicode hex="2191"/>
  <outline>
    <contour>
      <point x="495.0" y="129" type="line"/>
      <point x="505.0" y="129" type="line"/>
      <point x="505.0" y="345" type="line"/>
      <point x="638.0" y="345" type="line"/>
      <point x="500.0" y="549" type="line"/>
      <point x="363.0" y="345" type="line"/>
      <point x="495.0" y="345" type="line"/>
    </contour>
    <contour>
      <point x="620.0" y="355" type="line"/>
      <point x="381.0" y="355" type="line"/>
      <point x="500.0" y="531" type="line"/>
    </contour>
  </outline>
</glyph>
<glyph name="arrowright" format="2">
  <advance width="1000"/>
  <unicode hex="2192"/>
  <outline>
    <contour>
      <point x="501.0" y="239" type="line"/>
      <point x="501.0" y="478" type="line"/>
      <point x="677.0" y="359" type="line"/>
    </contour>
    <contour>
      <point x="491.0" y="221" type="line"/>
      <point x="695.0" y="359" type="line"/>
      <point x="491.0" y="496" type="line"/>
      <point x="491.0" y="364" type="line"/>
      <point x="275.0" y="364" type="line"/>
      <point x="275.0" y="354" type="line"/>
      <point x="491.0" y="354" type="line"/>
    </contour>
  </outline>
</glyph>
<glyph name="arrowdown" format="1">
  <advance width="1000"/>
  <unicode hex="2193"/>
  <outline>
    <contour>
      <point x="501.0" y="171" type="line"/>
      <point x="638.0" y="375" type="line"/>
      <point x="506.0" y="375" type="line"/>
      <point x="506.0" y="591" type="line"/>
      <point x="496.0" y="591" type="line"/>
      <point x="496.0" y="375" type="line"/>
      <point x="363.0" y="375" type="line"/>
    </contour>
    <contour>
      <point x="620.0" y="365" type="line"/>
      <point x="501.0" y="189" type="line"/>
      <point x="381.0" y="365" type="line"/>
    </contour>
  </outline>
</glyph>
<glyph name="arrowupleft" format="2">
  <advance width="1000"/>
  <unicode hex="2196"/>
  <outline>
    <contour>
      <point x="637.0" y="216" type="line"/>
      <point x="644.0" y="223" type="line"/>
      <point x="491.0" y="376" type="line"/>
      <point x="584.0" y="469" type="line"/>
      <point x="343.0" y="517" type="line"/>
      <point x="390.0" y="275" type="line"/>
      <point x="484.0" y="369" type="line"/>
    </contour>
    <contour>
      <point x="396.0" y="295" type="line"/>
      <point x="356.0" y="504" type="line"/>
      <point x="564.0" y="463" type="line"/>
    </contour>
  </outline>
</glyph>
<glyph name="uni21AA" format="2">
  <advance width="1000"/>
  <unicode hex="21AA"/>
  <outline>
    <contour>
      <point x="590.0" y="136" type="line"/>
      <point x="726.0" y="227" type="line"/>
      <point x="590.0" y="318" type="line"/>
      <point x="590.0" y="231" type="line"/>
      <point x="392.0" y="231" type="line" smooth="yes"/>
      <point x="316.0" y="231"/>
      <point x="267.0" y="273"/>
      <point x="267.0" y="345" type="curve" smooth="yes"/>
      <point x="267.0" y="552" type="line" smooth="yes"/>
      <point x="267.0" y="624"/>
      <point x="316.0" y="672"/>
      <point x="400.0" y="672" type="curve" smooth="yes"/>
      <point x="675.0" y="672" type="line"/>
      <point x="675.0" y="682" type="line"/>
      <point x="400.0" y="682" type="line" smooth="yes"/>
      <point x="308.0" y="682"/>
      <point x="257.0" y="630"/>
      <point x="257.0" y="552" type="curve" smooth="yes"/>
      <point x="257.0" y="345" type="line" smooth="yes"/>
      <point x="257.0" y="267"/>
      <point x="310.0" y="221"/>
      <point x="392.0" y="221" type="curve" smooth="yes"/>
      <point x="590.0" y="221" type="line"/>
    </contour>
    <contour>
      <point x="600.0" y="154" type="line"/>
      <point x="600.0" y="300" type="line"/>
      <point x="708.0" y="227" type="line"/>
    </contour>
  </outline>
</glyph>
<glyph name="uni21AB" format="2">
  <advance width="1000"/>
  <unicode hex="21AB"/>
  <outline>
    <contour>
      <point x="431.0" y="136" type="line"/>
      <point x="431.0" y="221" type="line"/>
      <point x="629.0" y="221" type="line" smooth="yes"/>
      <point x="711.0" y="221"/>
      <point x="764.0" y="267"/>
      <point x="764.0" y="345" type="curve" smooth="yes"/>
      <point x="764.0" y="552" type="line" smooth="yes"/>
      <point x="764.0" y="630"/>
      <point x="713.0" y="682"/>
      <point x="621.0" y="682" type="curve" smooth="yes"/>
      <point x="346.0" y="682" type="line"/>
      <point x="346.0" y="672" type="line"/>
      <point x="621.0" y="672" type="line" smooth="yes"/>
      <point x="705.0" y="672"/>
      <point x="754.0" y="624"/>
      <point x="754.0" y="552" type="curve" smooth="yes"/>
      <point x="754.0" y="345" type="line" smooth="yes"/>
      <point x="754.0" y="273"/>
      <point x="705.0" y="231"/>
      <point x="629.0" y="231" type="curve" smooth="yes"/>
      <point x="431.0" y="231" type="line"/>
      <point x="431.0" y="318" type="line"/>
      <point x="295.0" y="227" type="line"/>
    </contour>
    <contour>
      <point x="421.0" y="154" type="line"/>
      <point x="313.0" y="227" type="line"/>
      <point x="421.0" y="300" type="line"/>
    </contour>
  </outline>
</glyph>
<glyph name="uni21B3" format="1">
  <advance width="1000"/>
  <unicode hex="21B3"/>
  <outline>
    <contour>
      <point x="551.0" y="176" type="line"/>
      <point x="687.0" y="267" type="line"/>
      <point x="551.0" y="358" type="line"/>
      <point x="551.0" y="271" type="line"/>
      <point x="382.0" y="271" type="line" smooth="yes"/>
      <point x="306.0" y="271"/>
      <point x="257.0" y="313"/>
      <point x="257.0" y="385" type="curve" smooth="yes"/>
      <point x="257.0" y="602" type="line"/>
      <point x="247.0" y="602" type="line"/>
      <point x="247.0" y="385" type="line" smooth="yes"/>
      <point x="247.0" y="307"/>
      <point x="300.0" y="261"/>
      <point x="382.0" y="261" type="curve" smooth="yes"/>
      <point x="551.0" y="261" type="line"/>
    </contour>
    <contour>
      <point x="561.0" y="194" type="line"/>
      <point x="561.0" y="340" type="line"/>
      <point x="669.0" y="267" type="line"/>
    </contour>
  </outline>
</glyph>
<glyph name="partialdiff" format="2">
  <advance width="692"/>
  <unicode hex="2202"/>
  <outline>
    <contour>
      <point x="334.0" y="71" type="curve" smooth="yes"/>
      <point x="442.0" y="71"/>
      <point x="527.0" y="84"/>
      <point x="527.0" y="187" type="curve" smooth="yes"/>
      <point x="527.0" y="515" type="line" smooth="yes"/>
      <point x="527.0" y="604"/>
      <point x="478.0" y="630"/>
      <point x="393.0" y="630" type="curve" smooth="yes"/>
      <point x="217.0" y="630" type="line"/>
      <point x="217.0" y="620" type="line"/>
      <point x="393.0" y="620" type="line" smooth="yes"/>
      <point x="470.0" y="620"/>
      <point x="517.0" y="598"/>
      <point x="517.0" y="515" type="curve" smooth="yes"/>
      <point x="517.0" y="324" type="line"/>
      <point x="491.0" y="380"/>
      <point x="413.0" y="383"/>
      <point x="331.0" y="383" type="curve" smooth="yes"/>
      <point x="233.0" y="383"/>
      <point x="155.0" y="378"/>
      <point x="155.0" y="275" type="curve" smooth="yes"/>
      <point x="155.0" y="187" type="line" smooth="yes"/>
      <point x="155.0" y="86"/>
      <point x="234.0" y="71"/>
    </contour>
    <contour>
      <point x="334.0" y="81" type="curve" smooth="yes"/>
      <point x="242.0" y="81"/>
      <point x="165.0" y="92"/>
      <point x="165.0" y="187" type="curve" smooth="yes"/>
      <point x="165.0" y="275" type="line" smooth="yes"/>
      <point x="165.0" y="372"/>
      <point x="243.0" y="373"/>
      <point x="331.0" y="373" type="curve" smooth="yes"/>
      <point x="420.0" y="373"/>
      <point x="517.0" y="375"/>
      <point x="517.0" y="278" type="curve"/>
      <point x="517.0" y="187" type="line" smooth="yes"/>
      <point x="517.0" y="90"/>
      <point x="432.0" y="81"/>
    </contour>
  </outline>
</glyph>
<glyph name="Delta" format="1">
  <advance width="730"/>
  <unicode hex="2206"/>
  <unicode hex="0394"/>
  <outline>
    <contour>
      <point x="162.0" y="90" type="line"/>
      <point x="564.0" y="90" type="line"/>
      <point x="564.0" y="193" type="line" smooth="yes"/>
      <point x="564.0" y="231"/>
      <point x="559.0" y="264"/>
      <point x="554.0" y="285" type="curve" smooth="yes"/>
      <point x="491.0" y="535" type="line" smooth="yes"/>
      <point x="469.0" y="624"/>
      <point x="449.0" y="625"/>
      <point x="387.0" y="625" type="curve" smooth="yes"/>
      <point x="336.0" y="625" type="line" smooth="yes"/>
      <point x="274.0" y="625"/>
      <point x="253.0" y="624"/>
      <point x="232.0" y="535" type="curve" smooth="yes"/>
      <point x="173.0" y="288" type="line" smooth="yes"/>
      <point x="167.0" y="264"/>
      <point x="162.0" y="231"/>
      <point x="162.0" y="193" type="curve" smooth="yes"/>
    </contour>
    <contour>
      <point x="172.0" y="193" type="line" smooth="yes"/>
      <point x="172.0" y="231"/>
      <point x="177.0" y="262"/>
      <point x="183.0" y="286" type="curve" smooth="yes"/>
      <point x="242.0" y="533" type="line" smooth="yes"/>
      <point x="261.0" y="614"/>
      <point x="280.0" y="615"/>
      <point x="336.0" y="615" type="curve" smooth="yes"/>
      <point x="387.0" y="615" type="line" smooth="yes"/>
      <point x="443.0" y="615"/>
      <point x="461.0" y="614"/>
      <point x="481.0" y="533" type="curve" smooth="yes"/>
      <point x="544.0" y="283" type="line" smooth="yes"/>
      <point x="549.0" y="262"/>
      <point x="554.0" y="231"/>
      <point x="554.0" y="193" type="curve" smooth="yes"/>
      <point x="554.0" y="100" type="line"/>
      <point x="172.0" y="100" type="line"/>
    </contour>
  </outline>
</glyph>
<glyph name="product" format="1">
  <advance width="759"/>
  <unicode hex="220F"/>
  <outline>
    <contour>
      <point x="177.0" y="90" type="line"/>
      <point x="187.0" y="90" type="line"/>
      <point x="187.0" y="620" type="line"/>
      <point x="571.0" y="620" type="line"/>
      <point x="571.0" y="90" type="line"/>
      <point x="581.0" y="90" type="line"/>
      <point x="581.0" y="630" type="line"/>
      <point x="177.0" y="630" type="line"/>
    </contour>
  </outline>
</glyph>
<glyph name="minus" format="2">
  <advance width="734"/>
  <unicode hex="2212"/>
  <outline>
    <contour>
      <point x="160.0" y="355" type="line"/>
      <point x="574.0" y="355" type="line"/>
      <point x="574.0" y="365" type="line"/>
      <point x="160.0" y="365" type="line"/>
    </contour>
  </outline>
</glyph>
<glyph name="infinity" format="1">
  <advance width="878"/>
  <unicode hex="221E"/>
  <outline>
    <contour>
      <point x="604.0" y="178" type="curve" smooth="yes"/>
      <point x="721.0" y="178"/>
      <point x="744.0" y="242"/>
      <point x="744.0" y="283" type="curve" smooth="yes"/>
      <point x="744.0" y="463" type="line" smooth="yes"/>
      <point x="744.0" y="515"/>
      <point x="723.0" y="562"/>
      <point x="603.0" y="562" type="curve" smooth="yes"/>
      <point x="492.0" y="562"/>
      <point x="447.0" y="528"/>
      <point x="442.0" y="462" type="curve" smooth="yes"/>
      <point x="438.0" y="412" type="line"/>
      <point x="426.0" y="463" type="line" smooth="yes"/>
      <point x="408.0" y="540"/>
      <point x="373.0" y="559"/>
      <point x="275.0" y="559" type="curve" smooth="yes"/>
      <point x="155.0" y="559"/>
      <point x="135.0" y="496"/>
      <point x="135.0" y="455" type="curve" smooth="yes"/>
      <point x="135.0" y="278" type="line" smooth="yes"/>
      <point x="135.0" y="226"/>
      <point x="156.0" y="181"/>
      <point x="276.0" y="181" type="curve" smooth="yes"/>
      <point x="387.0" y="181"/>
      <point x="432.0" y="213"/>
      <point x="437.0" y="279" type="curve" smooth="yes"/>
      <point x="443.0" y="347" type="line"/>
      <point x="458.0" y="280" type="line"/>
      <point x="476.0" y="201"/>
      <point x="506.0" y="178"/>
    </contour>
    <contour>
      <point x="604.0" y="188" type="curve" smooth="yes"/>
      <point x="514.0" y="188"/>
      <point x="484.0" y="209"/>
      <point x="468.0" y="282" type="curve"/>
      <point x="445.0" y="380" type="line"/>
      <point x="452.0" y="462" type="line" smooth="yes"/>
      <point x="457.0" y="524"/>
      <point x="502.0" y="552"/>
      <point x="603.0" y="552" type="curve" smooth="yes"/>
      <point x="711.0" y="552"/>
      <point x="734.0" y="511"/>
      <point x="734.0" y="463" type="curve" smooth="yes"/>
      <point x="734.0" y="283" type="line" smooth="yes"/>
      <point x="734.0" y="244"/>
      <point x="709.0" y="188"/>
    </contour>
    <contour>
      <point x="276.0" y="191" type="curve" smooth="yes"/>
      <point x="168.0" y="191"/>
      <point x="145.0" y="230"/>
      <point x="145.0" y="278" type="curve" smooth="yes"/>
      <point x="145.0" y="455" type="line" smooth="yes"/>
      <point x="145.0" y="494"/>
      <point x="167.0" y="549"/>
      <point x="275.0" y="549" type="curve" smooth="yes"/>
      <point x="365.0" y="549"/>
      <point x="400.0" y="532"/>
      <point x="416.0" y="461" type="curve" smooth="yes"/>
      <point x="435.0" y="378" type="line"/>
      <point x="427.0" y="279" type="line" smooth="yes"/>
      <point x="422.0" y="217"/>
      <point x="377.0" y="191"/>
    </contour>
  </outline>
</glyph>
<glyph name="notequal" format="1">
  <advance width="734"/>
  <unicode hex="2260"/>
  <outline>
    <contour>
      <point x="322.0" y="120" type="line"/>
      <point x="332.0" y="120" type="line"/>
      <point x="347.0" y="205" type="line"/>
      <point x="574.0" y="205" type="line"/>
      <point x="574.0" y="215" type="line"/>
      <point x="348.0" y="215" type="line"/>
      <point x="398.0" y="505" type="line"/>
      <point x="574.0" y="505" type="line"/>
      <point x="574.0" y="515" type="line"/>
      <point x="400.0" y="515" type="line"/>
      <point x="416.0" y="610" type="line"/>
      <point x="406.0" y="610" type="line"/>
      <point x="390.0" y="515" type="line"/>
      <point x="160.0" y="515" type="line"/>
      <point x="160.0" y="505" type="line"/>
      <point x="388.0" y="505" type="line"/>
      <point x="338.0" y="215" type="line"/>
      <point x="160.0" y="215" type="line"/>
      <point x="160.0" y="205" type="line"/>
      <point x="337.0" y="205" type="line"/>
    </contour>
  </outline>
</glyph>
<glyph name="greaterequal" format="1">
  <advance width="714"/>
  <unicode hex="2265"/>
  <outline>
    <contour>
      <point x="180.0" y="90" type="line"/>
      <point x="538.0" y="90" type="line"/>
      <point x="538.0" y="100" type="line"/>
      <point x="180.0" y="100" type="line"/>
    </contour>
    <component base="greater" yOffset="70"/>
  </outline>
</glyph>
<glyph name="blacksquare" format="1">
  <advance width="1000.0"/>
  <unicode hex="25A0"/>
  <outline>
    <contour>
      <point x="587.0" y="449" type="line"/>
      <point x="414.0" y="449" type="line"/>
      <point x="414.0" y="275" type="line"/>
      <point x="587.0" y="275" type="line"/>
    </contour>
    <contour>
      <point x="577.0" y="439" type="line"/>
      <point x="577.0" y="285" type="line"/>
      <point x="424.0" y="285" type="line"/>
      <point x="424.0" y="439" type="line"/>
    </contour>
  </outline>
</glyph>
<glyph name="blackuppointingtriangle" format="1">
  <advance width="1000"/>
  <unicode hex="25B2"/>
  <outline>
    <contour>
      <point x="500.0" y="404" type="line"/>
      <point x="411.0" y="254" type="line"/>
      <point x="589.0" y="254" type="line"/>
    </contour>
    <contour>
      <point x="571.0" y="264" type="line"/>
      <point x="429.0" y="264" type="line"/>
      <point x="500.0" y="384" type="line"/>
    </contour>
  </outline>
</glyph>
<glyph name="blackrightpointingtriangle" format="1">
  <advance width="1000"/>
  <unicode hex="25B6"/>
  <outline>
    <contour>
      <point x="541" y="365" type="line"/>
      <point x="391" y="454" type="line"/>
      <point x="391" y="276" type="line"/>
    </contour>
    <contour>
      <point x="401" y="436" type="line"/>
      <point x="521" y="365" type="line"/>
      <point x="401" y="294" type="line"/>
    </contour>
  </outline>
</glyph>
<glyph name="blackdownpointingtriangle" format="1">
  <advance width="1000"/>
  <unicode hex="25BC"/>
  <outline>
    <contour>
      <point x="500.0" y="334" type="line"/>
      <point x="589.0" y="484" type="line"/>
      <point x="411.0" y="484" type="line"/>
    </contour>
    <contour>
      <point x="571.0" y="474" type="line"/>
      <point x="500.0" y="354" type="line"/>
      <point x="429.0" y="474" type="line"/>
    </contour>
  </outline>
</glyph>
<glyph name="blackleftpointingtriangle" format="1">
  <advance width="1000"/>
  <unicode hex="25C0"/>
  <outline>
    <contour>
      <point x="459" y="365" type="line"/>
      <point x="609" y="276" type="line"/>
      <point x="609" y="454" type="line"/>
    </contour>
    <contour>
      <point x="599" y="294" type="line"/>
      <point x="479" y="365" type="line"/>
      <point x="599" y="436" type="line"/>
    </contour>
  </outline>
</glyph>
<glyph name="blackdiamond" format="1">
  <advance width="1000.0"/>
  <unicode hex="25C6"/>
  <outline>
    <contour>
      <point x="623.0" y="362" type="line"/>
      <point x="501.0" y="484" type="line"/>
      <point x="378.0" y="361" type="line"/>
      <point x="500.0" y="239" type="line"/>
    </contour>
    <contour>
      <point x="609.0" y="362" type="line"/>
      <point x="500.0" y="253" type="line"/>
      <point x="392.0" y="361" type="line"/>
      <point x="501.0" y="470" type="line"/>
    </contour>
  </outline>
</glyph>
<glyph name="uni25DD" format="1">
  <advance width="1000.0"/>
  <unicode hex="25DD"/>
  <outline>
    <contour>
      <point x="1020.0" y="-160" type="line"/>
      <point x="1020.0" y="-11" type="line" smooth="yes"/>
      <point x="1020.0" y="585"/>
      <point x="725.0" y="880"/>
      <point x="129.0" y="880" type="curve" smooth="yes"/>
      <point x="-20.0" y="880" type="line"/>
      <point x="-20.0" y="-160" type="line"/>
    </contour>
    <contour>
      <point x="1010.0" y="-150" type="line"/>
      <point x="-10.0" y="-150" type="line"/>
      <point x="-10.0" y="870" type="line"/>
      <point x="129.0" y="870" type="line" smooth="yes"/>
      <point x="719.0" y="870"/>
      <point x="1010.0" y="579"/>
      <point x="1010.0" y="-11" type="curve"/>
    </contour>
  </outline>
</glyph>
<glyph name="uni25DE" format="2">
  <advance width="1280"/>
  <unicode hex="25DE"/>
  <outline>
    <contour>
      <point x="120" y="-160" type="line"/>
      <point x="269" y="-160" type="line" smooth="yes"/>
      <point x="865" y="-160"/>
      <point x="1160" y="135"/>
      <point x="1160" y="731" type="curve" smooth="yes"/>
      <point x="1160" y="880" type="line"/>
      <point x="120" y="880" type="line"/>
    </contour>
    <contour>
      <point x="269" y="-150" type="curve" smooth="yes"/>
      <point x="130" y="-150" type="line"/>
      <point x="130" y="870" type="line"/>
      <point x="1150" y="870" type="line"/>
      <point x="1150" y="731" type="line"/>
      <point x="1150" y="141"/>
      <point x="859" y="-150"/>
    </contour>
  </outline>
</glyph>
<glyph name="A.salt" format="2">
  <advance width="736"/>
  <unicode hex="E100"/>
  <anchor x="368.0" y="747.0" name="top"/>
  <anchor x="368.0" y="0.0" name="bottom"/>
  <outline>
    <contour>
      <point x="184.0" y="507" type="line" smooth="yes"/>
      <point x="184.0" y="582"/>
      <point x="219.0" y="632"/>
      <point x="368.0" y="632" type="curve" smooth="yes"/>
      <point x="517.0" y="632"/>
      <point x="555.0" y="582"/>
      <point x="555.0" y="507" type="curve" smooth="yes"/>
      <point x="555.0" y="281" type="line"/>
      <point x="184.0" y="281" type="line"/>
    </contour>
    <contour>
      <point x="555.0" y="90" type="line"/>
      <point x="565.0" y="90" type="line"/>
      <point x="565.0" y="507" type="line" smooth="yes"/>
      <point x="565.0" y="588"/>
      <point x="525.0" y="642"/>
      <point x="368.0" y="642" type="curve" smooth="yes"/>
      <point x="211.0" y="642"/>
      <point x="174.0" y="588"/>
      <point x="174.0" y="507" type="curve" smooth="yes"/>
      <point x="174.0" y="90" type="line"/>
      <point x="184.0" y="90" type="line"/>
      <point x="184.0" y="271" type="line"/>
      <point x="555.0" y="271" type="line"/>
    </contour>
  </outline>
</glyph>
<glyph name="Aring.salt" format="2">
  <advance width="736"/>
  <unicode hex="E106"/>
  <outline>
    <contour>
      <point x="225.0" y="760" type="line" smooth="yes"/>
      <point x="225.0" y="700"/>
      <point x="247.0" y="660"/>
      <point x="366.0" y="660" type="curve" smooth="yes"/>
      <point x="485.0" y="660"/>
      <point x="509.0" y="700"/>
      <point x="509.0" y="760" type="curve" smooth="yes"/>
      <point x="509.0" y="805" type="line" smooth="yes"/>
      <point x="509.0" y="864"/>
      <point x="485.0" y="906"/>
      <point x="366.0" y="906" type="curve" smooth="yes"/>
      <point x="247.0" y="906"/>
      <point x="225.0" y="865"/>
      <point x="225.0" y="805" type="curve" smooth="yes"/>
    </contour>
    <contour>
      <point x="366.0" y="896" type="curve" smooth="yes"/>
      <point x="473.0" y="896"/>
      <point x="499.0" y="860"/>
      <point x="499.0" y="805" type="curve" smooth="yes"/>
      <point x="499.0" y="760" type="line" smooth="yes"/>
      <point x="499.0" y="704"/>
      <point x="473.0" y="670"/>
      <point x="366.0" y="670" type="curve" smooth="yes"/>
      <point x="259.0" y="670"/>
      <point x="235.0" y="704"/>
      <point x="235.0" y="760" type="curve" smooth="yes"/>
      <point x="235.0" y="805" type="line" smooth="yes"/>
      <point x="235.0" y="861"/>
      <point x="259.0" y="896"/>
    </contour>
    <contour>
      <point x="184.0" y="507" type="line" smooth="yes"/>
      <point x="184.0" y="582"/>
      <point x="219.0" y="632"/>
      <point x="368.0" y="632" type="curve" smooth="yes"/>
      <point x="517.0" y="632"/>
      <point x="555.0" y="582"/>
      <point x="555.0" y="507" type="curve" smooth="yes"/>
      <point x="555.0" y="281" type="line"/>
      <point x="184.0" y="281" type="line"/>
    </contour>
    <contour>
      <point x="555.0" y="90" type="line"/>
      <point x="565.0" y="90" type="line"/>
      <point x="565.0" y="507" type="line" smooth="yes"/>
      <point x="565.0" y="588"/>
      <point x="525.0" y="642"/>
      <point x="368.0" y="642" type="curve" smooth="yes"/>
      <point x="211.0" y="642"/>
      <point x="174.0" y="588"/>
      <point x="174.0" y="507" type="curve" smooth="yes"/>
      <point x="174.0" y="90" type="line"/>
      <point x="184.0" y="90" type="line"/>
      <point x="184.0" y="271" type="line"/>
      <point x="555.0" y="271" type="line"/>
    </contour>
  </outline>
</glyph>
<glyph name="Igrave.salt" format="2">
  <advance width="371"/>
  <unicode hex="E115"/>
  <outline>
    <contour>
      <point x="80.0" y="865" type="line"/>
      <point x="289.0" y="839" type="line"/>
      <point x="289.0" y="849" type="line"/>
      <point x="80.0" y="875" type="line"/>
    </contour>
    <component base="I.salt"/>
  </outline>
</glyph>
<glyph name="Lslash.salt" format="1">
  <advance width="625"/>
  <unicode hex="E123"/>
  <outline>
    <contour>
      <point x="110" y="388" type="line"/>
      <point x="310" y="421" type="line"/>
      <point x="310" y="411" type="line"/>
      <point x="110" y="378" type="line"/>
    </contour>
    <component base="L.salt" xOffset="10"/>
  </outline>
</glyph>
<glyph name="AE.salt" format="1">
  <advance width="1013"/>
  <unicode hex="E135"/>
  <outline>
    <contour>
      <point x="180.0" y="495" type="line" smooth="yes"/>
      <point x="180.0" y="570"/>
      <point x="212.0" y="620"/>
      <point x="337.0" y="620" type="curve" smooth="yes"/>
      <point x="558.0" y="620" type="line"/>
      <point x="558.0" y="281" type="line"/>
      <point x="180.0" y="281" type="line"/>
    </contour>
    <contour>
      <point x="558.0" y="89" type="line"/>
      <point x="875.0" y="89" type="line"/>
      <point x="875.0" y="99" type="line"/>
      <point x="568.0" y="99" type="line"/>
      <point x="568.0" y="358" type="line"/>
      <point x="794.0" y="358" type="line"/>
      <point x="794.0" y="368" type="line"/>
      <point x="568.0" y="368" type="line"/>
      <point x="568.0" y="620" type="line" smooth="yes"/>
      <point x="874.0" y="620" type="line"/>
      <point x="874.0" y="630" type="line"/>
      <point x="337.0" y="630" type="line" smooth="yes"/>
      <point x="204.0" y="630"/>
      <point x="170.0" y="576"/>
      <point x="170.0" y="495" type="curve" smooth="yes"/>
      <point x="170.0" y="89" type="line"/>
      <point x="180.0" y="89" type="line"/>
      <point x="180.0" y="271" type="line"/>
      <point x="558.0" y="271" type="line"/>
    </contour>
  </outline>
</glyph>
<glyph name="quoteright.salt" format="2">
  <advance width="307"/>
  <unicode hex="E139"/>
  <outline>
    <contour>
      <point x="105.0" y="636" type="line"/>
      <point x="193.0" y="636" type="line"/>
      <point x="193.0" y="560" type="line" smooth="yes"/>
      <point x="193.0" y="527"/>
      <point x="180.0" y="496"/>
      <point x="147.0" y="496" type="curve" smooth="yes"/>
      <point x="106.0" y="496" type="line"/>
      <point x="106.0" y="486" type="line"/>
      <point x="147.0" y="486" type="line" smooth="yes"/>
      <point x="186.0" y="486"/>
      <point x="203.0" y="521"/>
      <point x="203.0" y="560" type="curve" smooth="yes"/>
      <point x="203.0" y="646" type="line"/>
      <point x="105.0" y="646" type="line"/>
    </contour>
  </outline>
</glyph>
<glyph name="uni25D6.v" format="2">
  <advance width="1335"/>
  <unicode hex="E158"/>
  <outline>
    <contour>
      <point x="1178" y="67" type="line"/>
      <point x="1188" y="67" type="line"/>
      <point x="1188" y="113" type="line" smooth="yes"/>
      <point x="1188" y="418"/>
      <point x="973" y="633"/>
      <point x="668" y="633" type="curve" smooth="yes"/>
      <point x="363" y="633"/>
      <point x="148" y="418"/>
      <point x="148" y="113" type="curve" smooth="yes"/>
      <point x="148" y="67" type="line"/>
      <point x="158" y="67" type="line"/>
      <point x="158" y="113" type="line" smooth="yes"/>
      <point x="158" y="412"/>
      <point x="369" y="623"/>
      <point x="668" y="623" type="curve" smooth="yes"/>
      <point x="967" y="623"/>
      <point x="1178" y="412"/>
      <point x="1178" y="113" type="curve" smooth="yes"/>
    </contour>
  </outline>
</glyph>
<glyph name="uni27A1.w" format="2">
  <advance width="650"/>
  <unicode hex="E15A"/>
  <outline>
    <contour>
      <point x="689" y="870" type="line"/>
      <point x="689" y="880" type="line"/>
      <point x="622" y="880" type="line"/>
      <point x="622" y="1041" type="line" smooth="yes"/>
      <point x="622" y="1068"/>
      <point x="600" y="1084"/>
      <point x="575" y="1084" type="curve" smooth="yes"/>
      <point x="550" y="1084"/>
      <point x="521" y="1070"/>
      <point x="498" y="1039" type="curve" smooth="yes"/>
      <point x="62" y="459" type="line" smooth="yes"/>
      <point x="38" y="429"/>
      <point x="28" y="395"/>
      <point x="28" y="361" type="curve" smooth="yes"/>
      <point x="28" y="327"/>
      <point x="38" y="293"/>
      <point x="62" y="263" type="curve" smooth="yes"/>
      <point x="498" y="-317" type="line" smooth="yes"/>
      <point x="520" y="-348"/>
      <point x="550" y="-362"/>
      <point x="575" y="-362" type="curve" smooth="yes"/>
      <point x="600" y="-362"/>
      <point x="622" y="-346"/>
      <point x="622" y="-319" type="curve" smooth="yes"/>
      <point x="622" y="-160" type="line"/>
      <point x="689" y="-160" type="line"/>
      <point x="689" y="-150" type="line"/>
      <point x="612" y="-150" type="line"/>
      <point x="612" y="-319" type="line" smooth="yes"/>
      <point x="612" y="-340"/>
      <point x="594" y="-352"/>
      <point x="575" y="-352" type="curve" smooth="yes"/>
      <point x="552" y="-352"/>
      <point x="526" y="-338"/>
      <point x="506" y="-311" type="curve" smooth="yes"/>
      <point x="70" y="269" type="line" smooth="yes"/>
      <point x="48" y="297"/>
      <point x="38" y="329"/>
      <point x="38" y="361" type="curve" smooth="yes"/>
      <point x="38" y="393"/>
      <point x="48" y="425"/>
      <point x="70" y="453" type="curve" smooth="yes"/>
      <point x="506" y="1033" type="line" smooth="yes"/>
      <point x="527" y="1060"/>
      <point x="552" y="1074"/>
      <point x="575" y="1074" type="curve" smooth="yes"/>
      <point x="594" y="1074"/>
      <point x="612" y="1062"/>
      <point x="612" y="1041" type="curve" smooth="yes"/>
      <point x="612" y="870" type="line"/>
    </contour>
  </outline>
</glyph>
<glyph name="uni25DD.curve" format="1">
  <advance width="1280.0"/>
  <unicode hex="E15E"/>
  <outline>
    <contour>
      <point x="120" y="-160" type="line"/>
      <point x="1160" y="-160" type="line"/>
      <point x="1160" y="419" type="line"/>
      <point x="1160" y="712"/>
      <point x="992" y="880"/>
      <point x="700" y="880" type="curve" smooth="yes"/>
      <point x="120" y="880" type="line" smooth="yes"/>
    </contour>
    <contour>
      <point x="1150" y="-150" type="line" smooth="yes"/>
      <point x="130" y="-150" type="line"/>
      <point x="130" y="870" type="line"/>
      <point x="700" y="870" type="line" smooth="yes"/>
      <point x="986" y="870"/>
      <point x="1150" y="706"/>
      <point x="1150" y="419" type="curve" smooth="yes"/>
    </contour>
  </outline>
</glyph>
<glyph name="uni25DD.curve" format="2">
  <advance width="1280"/>
  <unicode hex="E15E"/>
  <outline>
    <contour>
      <point x="120" y="-160" type="line"/>
      <point x="1160" y="-160" type="line"/>
      <point x="1160" y="419" type="line"/>
      <point x="1160" y="712"/>
      <point x="992" y="880"/>
      <point x="700" y="880" type="curve" smooth="yes"/>
      <point x="120" y="880" type="line" smooth="yes"/>
    </contour>
    <contour>
      <point x="1150" y="-150" type="line" smooth="yes"/>
      <point x="130" y="-150" type="line"/>
      <point x="130" y="870" type="line"/>
      <point x="700" y="870" type="line" smooth="yes"/>
      <point x="986" y="870"/>
      <point x="1150" y="706"/>
      <point x="1150" y="419" type="curve" smooth="yes"/>
    </contour>
  </outline>
</glyph>
<glyph name="uni2B1B.trapezoid_e" format="2">
  <advance width="1280"/>
  <unicode hex="E15F"/>
  <outline>
    <contour>
      <point x="120" y="880" type="line"/>
      <point x="120" y="-160" type="line"/>
      <point x="1056" y="-160" type="line"/>
      <point x="1262" y="880" type="line"/>
    </contour>
    <contour>
      <point x="1250" y="870" type="line"/>
      <point x="1048" y="-150" type="line"/>
      <point x="130" y="-150" type="line"/>
      <point x="130" y="870" type="line"/>
    </contour>
  </outline>
</glyph>
<glyph name="uni2B1B.trapezoid_w" format="1">
  <advance width="1280.0"/>
  <unicode hex="E160"/>
  <outline>
    <contour>
      <point x="1162" y="880" type="line"/>
      <point x="20" y="880" type="line"/>
      <point x="226" y="-160" type="line"/>
      <point x="1162" y="-160" type="line"/>
    </contour>
    <contour>
      <point x="32" y="870" type="line"/>
      <point x="1152" y="870" type="line"/>
      <point x="1152" y="-150" type="line"/>
      <point x="234" y="-150" type="line"/>
    </contour>
  </outline>
</glyph>
<glyph name="arrowdown.chevron" format="2">
  <advance width="1280"/>
  <unicode hex="E164"/>
  <outline>
    <contour>
      <point x="120" y="1045" type="line"/>
      <point x="120" y="253" type="line"/>
      <point x="-35" y="253" type="line"/>
      <point x="-49" y="253"/>
      <point x="-54" y="247"/>
      <point x="-54" y="235" type="curve" smooth="yes"/>
      <point x="-54" y="226"/>
      <point x="-49" y="216"/>
      <point x="-40" y="209" type="curve" smooth="yes"/>
      <point x="594" y="-308" type="line" smooth="yes"/>
      <point x="612" y="-323"/>
      <point x="626" y="-331"/>
      <point x="641" y="-331" type="curve" smooth="yes"/>
      <point x="656" y="-331"/>
      <point x="670" y="-323"/>
      <point x="688" y="-308" type="curve" smooth="yes"/>
      <point x="1314" y="208" type="line" smooth="yes"/>
      <point x="1327" y="220"/>
      <point x="1334" y="228"/>
      <point x="1334" y="238" type="curve" smooth="yes"/>
      <point x="1334" y="247"/>
      <point x="1331" y="253"/>
      <point x="1311" y="253" type="curve" smooth="yes"/>
      <point x="1160" y="253" type="line"/>
      <point x="1160" y="1048" type="line"/>
      <point x="640" y="841" type="line"/>
    </contour>
    <contour>
      <point x="130" y="1032" type="line"/>
      <point x="640" y="830" type="line"/>
      <point x="1150" y="1033" type="line"/>
      <point x="1150" y="243" type="line"/>
      <point x="1311" y="243" type="line"/>
      <point x="1318" y="243"/>
      <point x="1324" y="243"/>
      <point x="1324" y="238" type="curve" smooth="yes"/>
      <point x="1324" y="230"/>
      <point x="1317" y="224"/>
      <point x="1308" y="216" type="curve" smooth="yes"/>
      <point x="682" y="-300" type="line" smooth="yes"/>
      <point x="666" y="-313"/>
      <point x="654" y="-321"/>
      <point x="641" y="-321" type="curve" smooth="yes"/>
      <point x="628" y="-321"/>
      <point x="616" y="-313"/>
      <point x="600" y="-300" type="curve" smooth="yes"/>
      <point x="-34" y="217" type="line" smooth="yes"/>
      <point x="-41" y="222"/>
      <point x="-44" y="228"/>
      <point x="-44" y="235" type="curve" smooth="yes"/>
      <point x="-44" y="241"/>
      <point x="-41" y="243"/>
      <point x="-35" y="243" type="curve" smooth="yes"/>
      <point x="130" y="243" type="line"/>
    </contour>
  </outline>
</glyph>
<glyph name="uni25D6.v_deco" format="1">
  <advance width="1280.0"/>
  <unicode hex="E167"/>
  <outline>
    <contour>
      <point x="210.0" y="390" type="curve" smooth="yes"/>
      <point x="231.0" y="390" type="line"/>
      <point x="226.0" y="386" type="line"/>
      <point x="230.0" y="407" type="line" smooth="yes"/>
      <point x="248.0" y="515"/>
      <point x="363.0" y="580"/>
      <point x="640.0" y="580" type="curve" smooth="yes"/>
      <point x="917.0" y="580"/>
      <point x="1032.0" y="515"/>
      <point x="1050.0" y="407" type="curve" smooth="yes"/>
      <point x="1054.0" y="386" type="line"/>
      <point x="1049.0" y="390" type="line"/>
      <point x="1070.0" y="390" type="line" smooth="yes"/>
      <point x="1136.0" y="390"/>
      <point x="1190.0" y="336"/>
      <point x="1190.0" y="270" type="curve" smooth="yes"/>
      <point x="1190.0" y="245" type="line"/>
      <point x="1185.0" y="250" type="line"/>
      <point x="1210.0" y="250" type="line"/>
      <point x="1234.0" y="250" type="line" smooth="yes"/>
      <point x="1246.0" y="250"/>
      <point x="1250.0" y="246"/>
      <point x="1250.0" y="234" type="curve" smooth="yes"/>
      <point x="1250.0" y="156" type="line" smooth="yes"/>
      <point x="1250.0" y="144"/>
      <point x="1246.0" y="140"/>
      <point x="1234.0" y="140" type="curve" smooth="yes"/>
      <point x="46.0" y="140" type="line" smooth="yes"/>
      <point x="34.0" y="140"/>
      <point x="30.0" y="144"/>
      <point x="30.0" y="156" type="curve" smooth="yes"/>
      <point x="30.0" y="234" type="line" smooth="yes"/>
      <point x="30.0" y="246"/>
      <point x="34.0" y="250"/>
      <point x="46.0" y="250" type="curve" smooth="yes"/>
      <point x="95.0" y="250" type="line"/>
      <point x="90.0" y="245" type="line"/>
      <point x="90.0" y="270" type="line" smooth="yes"/>
      <point x="90.0" y="336"/>
      <point x="144.0" y="390"/>
    </contour>
    <contour>
      <point x="210.0" y="380" type="line" smooth="yes"/>
      <point x="150.0" y="380"/>
      <point x="100.0" y="330"/>
      <point x="100.0" y="270" type="curve" smooth="yes"/>
      <point x="100.0" y="245" type="line"/>
      <point x="100.0" y="240" type="line"/>
      <point x="46.0" y="240" type="line" smooth="yes"/>
      <point x="42.0" y="240"/>
      <point x="40.0" y="238"/>
      <point x="40.0" y="234" type="curve" smooth="yes"/>
      <point x="40.0" y="156" type="line" smooth="yes"/>
      <point x="40.0" y="152"/>
      <point x="42.0" y="150"/>
      <point x="46.0" y="150" type="curve" smooth="yes"/>
      <point x="1234.0" y="150" type="line" smooth="yes"/>
      <point x="1238.0" y="150"/>
      <point x="1240.0" y="152"/>
      <point x="1240.0" y="156" type="curve" smooth="yes"/>
      <point x="1240.0" y="234" type="line" smooth="yes"/>
      <point x="1240.0" y="238"/>
      <point x="1238.0" y="240"/>
      <point x="1234.0" y="240" type="curve" smooth="yes"/>
      <point x="1210.0" y="240" type="line"/>
      <point x="1180.0" y="240" type="line"/>
      <point x="1180.0" y="270" type="line" smooth="yes"/>
      <point x="1180.0" y="330"/>
      <point x="1130.0" y="380"/>
      <point x="1070.0" y="380" type="curve" smooth="yes"/>
      <point x="1049.0" y="380" type="line"/>
      <point x="1045.0" y="380" type="line"/>
      <point x="1040.0" y="405" type="line" smooth="yes"/>
      <point x="1022.0" y="511"/>
      <point x="905.0" y="570"/>
      <point x="640.0" y="570" type="curve" smooth="yes"/>
      <point x="375.0" y="570"/>
      <point x="258.0" y="511"/>
      <point x="240.0" y="405" type="curve" smooth="yes"/>
      <point x="236.0" y="384" type="line"/>
      <point x="235.0" y="380" type="line"/>
      <point x="231.0" y="380" type="line"/>
    </contour>
  </outline>
</glyph>
<glyph name="uni25D6.v_spike" format="2">
  <advance width="1280"/>
  <unicode hex="E16F"/>
  <outline>
    <contour>
      <point x="382" y="340" type="line" smooth="yes"/>
      <point x="401" y="333"/>
      <point x="428" y="335"/>
      <point x="444" y="349" type="curve" smooth="yes"/>
      <point x="633" y="506" type="line" smooth="yes"/>
      <point x="637" y="510"/>
      <point x="645" y="510"/>
      <point x="649" y="506" type="curve" smooth="yes"/>
      <point x="838" y="349" type="line" smooth="yes"/>
      <point x="854" y="335"/>
      <point x="880" y="333"/>
      <point x="899" y="340" type="curve" smooth="yes"/>
      <point x="1166" y="445" type="line" smooth="yes"/>
      <point x="1169" y="447"/>
      <point x="1173" y="448"/>
      <point x="1172" y="443" type="curve" smooth="yes"/>
      <point x="1155" y="296" type="line" smooth="yes"/>
      <point x="1151" y="261"/>
      <point x="1151" y="255"/>
      <point x="1151" y="234" type="curve" smooth="yes"/>
      <point x="1151" y="182" type="line"/>
      <point x="1161" y="182" type="line"/>
      <point x="1161" y="234" type="line" smooth="yes"/>
      <point x="1161" y="255"/>
      <point x="1161" y="261"/>
      <point x="1165" y="294" type="curve" smooth="yes"/>
      <point x="1182" y="441" type="line" smooth="yes"/>
      <point x="1183" y="456"/>
      <point x="1181" y="461"/>
      <point x="1162" y="455" type="curve" smooth="yes"/>
      <point x="895" y="350" type="line" smooth="yes"/>
      <point x="880" y="343"/>
      <point x="858" y="345"/>
      <point x="844" y="357" type="curve" smooth="yes"/>
      <point x="655" y="514" type="line" smooth="yes"/>
      <point x="647" y="520"/>
      <point x="635" y="520"/>
      <point x="627" y="514" type="curve" smooth="yes"/>
      <point x="438" y="357" type="line" smooth="yes"/>
      <point x="424" y="345"/>
      <point x="402" y="344"/>
      <point x="387" y="350" type="curve" smooth="yes"/>
      <point x="116" y="457" type="line" smooth="yes"/>
      <point x="104" y="462"/>
      <point x="97" y="456"/>
      <point x="99" y="446" type="curve"/>
      <point x="117" y="294" type="line" smooth="yes"/>
      <point x="121" y="261"/>
      <point x="121" y="255"/>
      <point x="121" y="234" type="curve" smooth="yes"/>
      <point x="121" y="182" type="line"/>
      <point x="131" y="182" type="line"/>
      <point x="131" y="234" type="line" smooth="yes"/>
      <point x="131" y="255"/>
      <point x="131" y="261"/>
      <point x="127" y="296" type="curve" smooth="yes"/>
      <point x="110" y="439" type="line" smooth="yes"/>
      <point x="109" y="447"/>
      <point x="110" y="448"/>
      <point x="112" y="447" type="curve" smooth="yes"/>
    </contour>
  </outline>
</glyph>
<glyph name="uni25D7.v_spike" format="1">
  <advance width="1280.17026536"/>
  <unicode hex="E170"/>
  <outline>
    <contour>
      <point x="381.170265356" y="380" type="curve" smooth="yes"/>
      <point x="111.170265356" y="273" type="line" smooth="yes"/>
      <point x="109.170265356" y="272"/>
      <point x="108.170265356" y="273"/>
      <point x="109.170265356" y="281" type="curve" smooth="yes"/>
      <point x="126.170265356" y="424" type="line" smooth="yes"/>
      <point x="130.170265356" y="459"/>
      <point x="130.170265356" y="465"/>
      <point x="130.170265356" y="486" type="curve" smooth="yes"/>
      <point x="130.170265356" y="538" type="line"/>
      <point x="120.170265356" y="538" type="line"/>
      <point x="120.170265356" y="486" type="line" smooth="yes"/>
      <point x="120.170265356" y="465"/>
      <point x="120.170265356" y="459"/>
      <point x="116.170265356" y="426" type="curve" smooth="yes"/>
      <point x="98.1702653558" y="274" type="line"/>
      <point x="96.1702653558" y="264"/>
      <point x="103.170265356" y="258"/>
      <point x="115.170265356" y="263" type="curve" smooth="yes"/>
      <point x="386.170265356" y="370" type="line" smooth="yes"/>
      <point x="401.170265356" y="376"/>
      <point x="423.170265356" y="375"/>
      <point x="437.170265356" y="363" type="curve" smooth="yes"/>
      <point x="626.170265356" y="206" type="line" smooth="yes"/>
      <point x="634.170265356" y="200"/>
      <point x="646.170265356" y="200"/>
      <point x="654.170265356" y="206" type="curve" smooth="yes"/>
      <point x="843.170265356" y="363" type="line" smooth="yes"/>
      <point x="857.170265356" y="375"/>
      <point x="879.170265356" y="377"/>
      <point x="894.170265356" y="370" type="curve" smooth="yes"/>
      <point x="1161.17026536" y="265" type="line" smooth="yes"/>
      <point x="1180.17026536" y="259"/>
      <point x="1182.17026536" y="264"/>
      <point x="1181.17026536" y="279" type="curve" smooth="yes"/>
      <point x="1164.17026536" y="426" type="line" smooth="yes"/>
      <point x="1160.17026536" y="459"/>
      <point x="1160.17026536" y="465"/>
      <point x="1160.17026536" y="486" type="curve" smooth="yes"/>
      <point x="1160.17026536" y="538" type="line"/>
      <point x="1150.17026536" y="538" type="line"/>
      <point x="1150.17026536" y="486" type="line" smooth="yes"/>
      <point x="1150.17026536" y="465"/>
      <point x="1150.17026536" y="459"/>
      <point x="1154.17026536" y="424" type="curve" smooth="yes"/>
      <point x="1171.17026536" y="277" type="line" smooth="yes"/>
      <point x="1172.17026536" y="272"/>
      <point x="1168.17026536" y="273"/>
      <point x="1165.17026536" y="275" type="curve" smooth="yes"/>
      <point x="898.170265356" y="380" type="line" smooth="yes"/>
      <point x="879.170265356" y="387"/>
      <point x="853.170265356" y="385"/>
      <point x="837.170265356" y="371" type="curve" smooth="yes"/>
      <point x="648.170265356" y="214" type="line" smooth="yes"/>
      <point x="644.170265356" y="210"/>
      <point x="636.170265356" y="210"/>
      <point x="632.170265356" y="214" type="curve" smooth="yes"/>
      <point x="443.170265356" y="371" type="line" smooth="yes"/>
      <point x="427.170265356" y="385"/>
      <point x="400.170265356" y="387"/>
    </contour>
  </outline>
</glyph>
<glyph name="uni25D7.v_wings" format="1">
  <advance width="1280.0"/>
  <unicode hex="E180"/>
  <outline>
    <contour>
      <point x="1150.0" y="820" type="line"/>
      <point x="1150.0" y="777" type="line" smooth="yes"/>
      <point x="1150.0" y="661"/>
      <point x="1210.0" y="594"/>
      <point x="1334.0" y="594" type="curve" smooth="yes"/>
      <point x="1338.0" y="594"/>
      <point x="1340.0" y="592"/>
      <point x="1340.0" y="588" type="curve" smooth="yes"/>
      <point x="1340.0" y="112" type="line" smooth="yes"/>
      <point x="1340.0" y="108"/>
      <point x="1338.0" y="106"/>
      <point x="1334.0" y="106" type="curve" smooth="yes"/>
      <point x="1150.0" y="106" type="line"/>
      <point x="1150.0" y="-64" type="line" smooth="yes"/>
      <point x="1150.0" y="-68"/>
      <point x="1148.0" y="-70"/>
      <point x="1144.0" y="-70" type="curve" smooth="yes"/>
      <point x="136.0" y="-70" type="line" smooth="yes"/>
      <point x="132.0" y="-70"/>
      <point x="130.0" y="-68"/>
      <point x="130.0" y="-64" type="curve" smooth="yes"/>
      <point x="130.0" y="106" type="line"/>
      <point x="-54.0" y="106" type="line" smooth="yes"/>
      <point x="-58.0" y="106"/>
      <point x="-60.0" y="108"/>
      <point x="-60.0" y="112" type="curve" smooth="yes"/>
      <point x="-60.0" y="588" type="line" smooth="yes"/>
      <point x="-60.0" y="592"/>
      <point x="-58.0" y="594"/>
      <point x="-54.0" y="594" type="curve" smooth="yes"/>
      <point x="70.0" y="594"/>
      <point x="130.0" y="664"/>
      <point x="130.0" y="784" type="curve" smooth="yes"/>
      <point x="130.0" y="820" type="line"/>
      <point x="120.0" y="820" type="line"/>
      <point x="120.0" y="784" type="line" smooth="yes"/>
      <point x="120.0" y="670"/>
      <point x="64.0" y="604"/>
      <point x="-54.0" y="604" type="curve" smooth="yes"/>
      <point x="-66.0" y="604"/>
      <point x="-70.0" y="600"/>
      <point x="-70.0" y="588" type="curve" smooth="yes"/>
      <point x="-70.0" y="112" type="line" smooth="yes"/>
      <point x="-70.0" y="100"/>
      <point x="-66.0" y="96"/>
      <point x="-54.0" y="96" type="curve" smooth="yes"/>
      <point x="120.0" y="96" type="line"/>
      <point x="120.0" y="-64" type="line" smooth="yes"/>
      <point x="120.0" y="-76"/>
      <point x="124.0" y="-80"/>
      <point x="136.0" y="-80" type="curve" smooth="yes"/>
      <point x="1144.0" y="-80" type="line" smooth="yes"/>
      <point x="1156.0" y="-80"/>
      <point x="1160.0" y="-76"/>
      <point x="1160.0" y="-64" type="curve" smooth="yes"/>
      <point x="1160.0" y="96" type="line"/>
      <point x="1334.0" y="96" type="line" smooth="yes"/>
      <point x="1346.0" y="96"/>
      <point x="1350.0" y="100"/>
      <point x="1350.0" y="112" type="curve" smooth="yes"/>
      <point x="1350.0" y="588" type="line" smooth="yes"/>
      <point x="1350.0" y="600"/>
      <point x="1346.0" y="604"/>
      <point x="1334.0" y="604" type="curve" smooth="yes"/>
      <point x="1216.0" y="604"/>
      <point x="1160.0" y="667"/>
      <point x="1160.0" y="777" type="curve" smooth="yes"/>
      <point x="1160.0" y="820" type="line"/>
    </contour>
  </outline>
</glyph>
<glyph name="uni2B1B.chevron_s" format="2">
  <advance width="1280"/>
  <unicode hex="E183"/>
  <outline>
    <contour>
      <point x="117" y="974" type="curve" smooth="yes"/>
      <point x="117" y="-28" type="line" smooth="yes"/>
      <point x="117" y="-42"/>
      <point x="123" y="-49"/>
      <point x="140" y="-56" type="curve" smooth="yes"/>
      <point x="614" y="-245" type="line"/>
      <point x="627" y="-249"/>
      <point x="644" y="-249"/>
      <point x="657" y="-245" type="curve"/>
      <point x="1134" y="-56" type="line" smooth="yes"/>
      <point x="1151" y="-49"/>
      <point x="1157" y="-42"/>
      <point x="1157" y="-28" type="curve" smooth="yes"/>
      <point x="1157" y="970" type="line" smooth="yes"/>
      <point x="1157" y="982"/>
      <point x="1153" y="989"/>
      <point x="1144" y="986" type="curve" smooth="yes"/>
      <point x="637" y="785" type="line"/>
      <point x="129" y="986" type="line"/>
      <point x="122" y="989"/>
      <point x="117" y="986"/>
    </contour>
    <contour>
      <point x="637" y="774" type="line"/>
      <point x="639" y="774" type="line"/>
      <point x="1147" y="976" type="line"/>
      <point x="1147" y="-28" type="line"/>
      <point x="1147" y="-38"/>
      <point x="1139" y="-43"/>
      <point x="1130" y="-46" type="curve" smooth="yes"/>
      <point x="653" y="-235" type="line"/>
      <point x="642" y="-239"/>
      <point x="629" y="-239"/>
      <point x="618" y="-235" type="curve"/>
      <point x="144" y="-46" type="line" smooth="yes"/>
      <point x="135" y="-43"/>
      <point x="127" y="-38"/>
      <point x="127" y="-28" type="curve" smooth="yes"/>
      <point x="127" y="975" type="line"/>
    </contour>
  </outline>
</glyph>
<glyph name="Aring.v" format="2">
  <advance width="1000"/>
  <unicode hex="E18F"/>
  <outline>
    <contour>
      <point x="358.0" y="731" type="line" smooth="yes"/>
      <point x="358.0" y="671"/>
      <point x="380.0" y="631"/>
      <point x="499.0" y="631" type="curve" smooth="yes"/>
      <point x="618.0" y="631"/>
      <point x="642.0" y="671"/>
      <point x="642.0" y="731" type="curve" smooth="yes"/>
      <point x="642.0" y="770" type="line" smooth="yes"/>
      <point x="642.0" y="829"/>
      <point x="618.0" y="871"/>
      <point x="499.0" y="871" type="curve" smooth="yes"/>
      <point x="380.0" y="871"/>
      <point x="358.0" y="830"/>
      <point x="358.0" y="770" type="curve" smooth="yes"/>
    </contour>
    <contour>
      <point x="499.0" y="861" type="curve" smooth="yes"/>
      <point x="606.0" y="861"/>
      <point x="632.0" y="825"/>
      <point x="632.0" y="770" type="curve" smooth="yes"/>
      <point x="632.0" y="731" type="line" smooth="yes"/>
      <point x="632.0" y="675"/>
      <point x="606.0" y="641"/>
      <point x="499.0" y="641" type="curve" smooth="yes"/>
      <point x="392.0" y="641"/>
      <point x="368.0" y="675"/>
      <point x="368.0" y="731" type="curve" smooth="yes"/>
      <point x="368.0" y="770" type="line" smooth="yes"/>
      <point x="368.0" y="826"/>
      <point x="392.0" y="861"/>
    </contour>
    <contour>
      <point x="314.0" y="303" type="line"/>
      <point x="314.0" y="339"/>
      <point x="320.0" y="369"/>
      <point x="330.0" y="396" type="curve"/>
      <point x="394.0" y="540" type="line"/>
      <point x="407.0" y="574"/>
      <point x="418.0" y="600"/>
      <point x="458.0" y="600" type="curve" smooth="yes"/>
      <point x="535.0" y="600" type="line" smooth="yes"/>
      <point x="572.0" y="600"/>
      <point x="583.0" y="574"/>
      <point x="598.0" y="539" type="curve"/>
      <point x="667.0" y="396" type="line"/>
      <point x="677.0" y="369"/>
      <point x="683.0" y="339"/>
      <point x="683.0" y="303" type="curve"/>
      <point x="683.0" y="272" type="line"/>
      <point x="314.0" y="272" type="line"/>
    </contour>
    <contour>
      <point x="683.0" y="90" type="line"/>
      <point x="693.0" y="90" type="line"/>
      <point x="693.0" y="303" type="line" smooth="yes"/>
      <point x="693.0" y="340"/>
      <point x="689.0" y="372"/>
      <point x="676.0" y="400" type="curve" smooth="yes"/>
      <point x="607.0" y="543" type="line" smooth="yes"/>
      <point x="589.0" y="580"/>
      <point x="579.0" y="610"/>
      <point x="535.0" y="610" type="curve" smooth="yes"/>
      <point x="458.0" y="610" type="line" smooth="yes"/>
      <point x="412.0" y="610"/>
      <point x="401.0" y="580"/>
      <point x="385.0" y="544" type="curve" smooth="yes"/>
      <point x="321.0" y="400" type="line"/>
      <point x="310.0" y="371"/>
      <point x="304.0" y="340"/>
      <point x="304.0" y="303" type="curve" smooth="yes"/>
      <point x="304.0" y="90" type="line"/>
      <point x="314.0" y="90" type="line"/>
      <point x="314.0" y="262" type="line"/>
      <point x="683.0" y="262" type="line"/>
    </contour>
  </outline>
</glyph>
<glyph name="Tcommaaccent.v" format="1">
  <advance width="1000"/>
  <unicode hex="E1C9"/>
  <outline>
    <contour>
      <point x="495.0" y="210" type="line"/>
      <point x="505.0" y="210" type="line"/>
      <point x="505.0" y="620" type="line"/>
      <point x="710.0" y="620" type="line"/>
      <point x="710.0" y="630" type="line"/>
      <point x="290.0" y="630" type="line"/>
      <point x="290.0" y="620" type="line"/>
      <point x="495.0" y="620" type="line"/>
    </contour>
    <component base="commaaccent.v" xOffset="-1" yOffset="140"/>
  </outline>
</glyph>
<glyph name="Eth.v" format="2">
  <advance width="1000"/>
  <unicode hex="E1E1"/>
  <outline>
    <contour>
      <point x="411.0" y="349" type="line"/>
      <point x="411.0" y="359" type="line"/>
      <point x="317.0" y="359" type="line"/>
      <point x="317.0" y="620" type="line"/>
      <point x="532.0" y="620" type="line" smooth="yes"/>
      <point x="658.0" y="620"/>
      <point x="682.0" y="564"/>
      <point x="682.0" y="491" type="curve" smooth="yes"/>
      <point x="682.0" y="226" type="line" smooth="yes"/>
      <point x="682.0" y="153"/>
      <point x="660.0" y="100"/>
      <point x="532.0" y="100" type="curve" smooth="yes"/>
      <point x="317.0" y="100" type="line"/>
      <point x="317.0" y="349" type="line"/>
    </contour>
    <contour>
      <point x="307.0" y="90" type="line"/>
      <point x="532.0" y="90" type="line" smooth="yes"/>
      <point x="670.0" y="90"/>
      <point x="692.0" y="149"/>
      <point x="692.0" y="226" type="curve" smooth="yes"/>
      <point x="692.0" y="491" type="line" smooth="yes"/>
      <point x="692.0" y="568"/>
      <point x="668.0" y="630"/>
      <point x="532.0" y="630" type="curve" smooth="yes"/>
      <point x="307.0" y="630" type="line"/>
      <point x="307.0" y="359" type="line"/>
      <point x="231.0" y="359" type="line"/>
      <point x="231.0" y="349" type="line"/>
      <point x="307.0" y="349" type="line"/>
    </contour>
  </outline>
</glyph>
<glyph name="Thorn.v" format="2">
  <advance width="1000"/>
  <unicode hex="E1E3"/>
  <outline>
    <contour>
      <point x="309.0" y="90" type="line"/>
      <point x="319.0" y="90" type="line"/>
      <point x="319.0" y="190" type="line"/>
      <point x="550.0" y="190" type="line" smooth="yes"/>
      <point x="676.0" y="190"/>
      <point x="700.0" y="245"/>
      <point x="700.0" y="323" type="curve" smooth="yes"/>
      <point x="700.0" y="395" type="line" smooth="yes"/>
      <point x="700.0" y="473"/>
      <point x="676.0" y="528"/>
      <point x="550.0" y="528" type="curve" smooth="yes"/>
      <point x="319.0" y="528" type="line"/>
      <point x="319.0" y="630" type="line"/>
      <point x="309.0" y="630" type="line"/>
    </contour>
    <contour>
      <point x="319.0" y="200" type="line"/>
      <point x="319.0" y="518" type="line"/>
      <point x="550.0" y="518" type="line" smooth="yes"/>
      <point x="668.0" y="518"/>
      <point x="690.0" y="467"/>
      <point x="690.0" y="395" type="curve" smooth="yes"/>
      <point x="690.0" y="323" type="line" smooth="yes"/>
      <point x="690.0" y="251"/>
      <point x="668.0" y="200"/>
      <point x="550.0" y="200" type="curve" smooth="yes"/>
    </contour>
  </outline>
</glyph>
<glyph name="IJ.v" format="1">
  <advance width="1000"/>
  <unicode hex="E1E6"/>
  <outline>
    <contour>
      <point x="552.0" y="90" type="line"/>
      <point x="669.0" y="90"/>
      <point x="691.0" y="149"/>
      <point x="691.0" y="256" type="curve" smooth="yes"/>
      <point x="691.0" y="630" type="line"/>
      <point x="681.0" y="630" type="line"/>
      <point x="681.0" y="256" type="line"/>
      <point x="681.0" y="153"/>
      <point x="659.0" y="100"/>
      <point x="552.0" y="100" type="curve" smooth="yes"/>
      <point x="291.0" y="100" type="line"/>
      <point x="291.0" y="90" type="line"/>
    </contour>
    <contour>
      <point x="319.0" y="420" type="line" smooth="yes"/>
      <point x="319.0" y="630" type="line"/>
      <point x="309.0" y="630" type="line"/>
      <point x="309.0" y="420" type="line"/>
    </contour>
  </outline>
</glyph>
<glyph name="IJ.v" format="2">
  <advance width="1000"/>
  <unicode hex="E1E6"/>
  <guideline x="833" y="498" angle="90.0" identifier="1GgbvzCxz3"/>
  <outline>
    <contour>
      <point x="552.0" y="90" type="line"/>
      <point x="669.0" y="90"/>
      <point x="691.0" y="149"/>
      <point x="691.0" y="256" type="curve" smooth="yes"/>
      <point x="691.0" y="630" type="line"/>
      <point x="681.0" y="630" type="line"/>
      <point x="681.0" y="256" type="line"/>
      <point x="681.0" y="153"/>
      <point x="659.0" y="100"/>
      <point x="552.0" y="100" type="curve" smooth="yes"/>
      <point x="291.0" y="100" type="line"/>
      <point x="291.0" y="90" type="line"/>
    </contour>
    <contour>
      <point x="319.0" y="420" type="line" smooth="yes"/>
      <point x="319.0" y="630" type="line"/>
      <point x="309.0" y="630" type="line"/>
      <point x="309.0" y="420" type="line"/>
    </contour>
  </outline>
</glyph>
<glyph name="Ldot.v" format="2">
  <advance width="1000"/>
  <unicode hex="E1E7"/>
  <outline>
    <contour>
      <point x="512.0" y="-148" type="line"/>
      <point x="522.0" y="-148" type="line"/>
      <point x="522.0" y="-93" type="line"/>
      <point x="512.0" y="-93" type="line"/>
    </contour>
    <component base="L.s_v" yOffset="40"/>
  </outline>
</glyph>
<glyph name="Germandbls.v" format="1">
  <advance width="1000"/>
  <unicode hex="E1EC"/>
  <outline>
    <contour>
      <point x="319.0" y="620" type="line"/>
      <point x="558.0" y="620" type="line" smooth="yes"/>
      <point x="619.0" y="620"/>
      <point x="640.0" y="585"/>
      <point x="622.0" y="520" type="curve"/>
      <point x="588.0" y="364" type="line"/>
      <point x="608.0" y="364" type="line" smooth="yes"/>
      <point x="665.0" y="364"/>
      <point x="696.0" y="339"/>
      <point x="696.0" y="276" type="curve" smooth="yes"/>
      <point x="696.0" y="188" type="line" smooth="yes"/>
      <point x="696.0" y="126"/>
      <point x="669.0" y="100"/>
      <point x="600.0" y="100" type="curve" smooth="yes"/>
      <point x="567.0" y="100" type="line"/>
      <point x="567.0" y="90" type="line"/>
      <point x="600.0" y="90" type="line" smooth="yes"/>
      <point x="677.0" y="90"/>
      <point x="706.0" y="120"/>
      <point x="706.0" y="188" type="curve" smooth="yes"/>
      <point x="706.0" y="276" type="line" smooth="yes"/>
      <point x="706.0" y="345"/>
      <point x="673.0" y="374"/>
      <point x="608.0" y="374" type="curve" smooth="yes"/>
      <point x="602.0" y="374" type="line"/>
      <point x="632.0" y="518" type="line" smooth="yes"/>
      <point x="647.0" y="591"/>
      <point x="627.0" y="630"/>
      <point x="558.0" y="630" type="curve" smooth="yes"/>
      <point x="309.0" y="630" type="line"/>
      <point x="309.0" y="90" type="line"/>
      <point x="319.0" y="90" type="line"/>
    </contour>
  </outline>
</glyph>
<glyph name="I.salt_v" format="2">
  <advance width="1000"/>
  <unicode hex="E201"/>
  <anchor x="499.0" y="747.0" name="top"/>
  <anchor x="499.0" y="0.0" name="bottom"/>
  <outline>
    <contour>
      <point x="495.0" y="630" type="line"/>
      <point x="495.0" y="90" type="line"/>
      <point x="505.0" y="90" type="line"/>
      <point x="505.0" y="630" type="line"/>
    </contour>
  </outline>
</glyph>
<glyph name="I_I.salt_v" format="1">
  <advance width="1000"/>
  <unicode hex="E202"/>
  <outline>
    <contour>
      <point x="681.0" y="630" type="line"/>
      <point x="681.0" y="90" type="line"/>
      <point x="691.0" y="90" type="line"/>
      <point x="691.0" y="630" type="line"/>
    </contour>
    <contour>
      <point x="309.0" y="630" type="line"/>
      <point x="309.0" y="90" type="line"/>
      <point x="319.0" y="90" type="line"/>
      <point x="319.0" y="630" type="line"/>
    </contour>
  </outline>
</glyph>
<glyph name="L.salt_s_v" format="2">
  <advance width="1000"/>
  <unicode hex="E212"/>
  <outline>
    <contour>
      <point x="310" y="90" type="line"/>
      <point x="701" y="90" type="line"/>
      <point x="701" y="100" type="line"/>
      <point x="320" y="100" type="line"/>
      <point x="320" y="590" type="line"/>
      <point x="310" y="590" type="line"/>
    </contour>
  </outline>
</glyph>
<glyph name="Ncommaaccent.salt_v" format="2">
  <advance width="1000"/>
  <unicode hex="E217"/>
  <guideline x="742" y="355" angle="90.0" identifier="LJwdNrUfAV"/>
  <guideline x="441" y="120" angle="0" identifier="isXQ5GLW0R"/>
  <outline>
    <contour>
      <point x="690.0" y="210" type="line"/>
      <point x="690.0" y="507" type="line" smooth="yes"/>
      <point x="690.0" y="588"/>
      <point x="649.0" y="642"/>
      <point x="499.0" y="642" type="curve" smooth="yes"/>
      <point x="349.0" y="642"/>
      <point x="307.0" y="588"/>
      <point x="307.0" y="507" type="curve" smooth="yes"/>
      <point x="307.0" y="210" type="line"/>
      <point x="317.0" y="210" type="line"/>
      <point x="317.0" y="507" type="line" smooth="yes"/>
      <point x="317.0" y="582"/>
      <point x="357.0" y="632"/>
      <point x="499.0" y="632" type="curve" smooth="yes"/>
      <point x="641.0" y="632"/>
      <point x="680.0" y="582"/>
      <point x="680.0" y="507" type="curve" smooth="yes"/>
      <point x="680.0" y="210" type="line"/>
    </contour>
    <component base="commaaccent.v" yOffset="140"/>
  </outline>
</glyph>
<glyph name="bracketleft.v" format="2">
  <advance width="1000"/>
  <unicode hex="E22D"/>
  <outline>
    <contour>
      <point x="849.0" y="419" type="line"/>
      <point x="152.0" y="419" type="line"/>
      <point x="152.0" y="282" type="line"/>
      <point x="162.0" y="282" type="line"/>
      <point x="162.0" y="409" type="line"/>
      <point x="839.0" y="409" type="line"/>
      <point x="839.0" y="282" type="line"/>
      <point x="849.0" y="282" type="line"/>
    </contour>
  </outline>
</glyph>
<glyph name="H.s_v" format="1">
  <advance width="1000"/>
  <unicode hex="E24B"/>
  <outline>
    <contour>
      <point x="309.0" y="90" type="line"/>
      <point x="319.0" y="90" type="line"/>
      <point x="319.0" y="335" type="line"/>
      <point x="681.0" y="335" type="line"/>
      <point x="681.0" y="90" type="line"/>
      <point x="691.0" y="90" type="line"/>
      <point x="691.0" y="590" type="line"/>
      <point x="681.0" y="590" type="line"/>
      <point x="681.0" y="345" type="line"/>
      <point x="319.0" y="345" type="line"/>
      <point x="319.0" y="590" type="line"/>
      <point x="309.0" y="590" type="line"/>
    </contour>
  </outline>
</glyph>
<glyph name="I.s_v" format="2">
  <advance width="1000"/>
  <unicode hex="E24C"/>
  <outline>
    <contour>
      <point x="701.0" y="90" type="line"/>
      <point x="701.0" y="100" type="line"/>
      <point x="505.0" y="100" type="line"/>
      <point x="505.0" y="580" type="line"/>
      <point x="701.0" y="580" type="line"/>
      <point x="701.0" y="590" type="line"/>
      <point x="299.0" y="590" type="line"/>
      <point x="299.0" y="580" type="line"/>
      <point x="495.0" y="580" type="line"/>
      <point x="495.0" y="100" type="line"/>
      <point x="299.0" y="100" type="line"/>
      <point x="299.0" y="90" type="line"/>
    </contour>
  </outline>
</glyph>
<glyph name="R.s_v" format="2">
  <advance width="1000"/>
  <unicode hex="E252"/>
  <outline>
    <contour>
      <point x="536.0" y="580" type="line" smooth="yes"/>
      <point x="607.0" y="580"/>
      <point x="640.0" y="538"/>
      <point x="640.0" y="476" type="curve" smooth="yes"/>
      <point x="640.0" y="426" type="line" smooth="yes"/>
      <point x="640.0" y="352"/>
      <point x="619.0" y="311"/>
      <point x="536.0" y="311" type="curve" smooth="yes"/>
      <point x="318.0" y="311" type="line"/>
      <point x="318.0" y="580" type="line"/>
    </contour>
    <contour>
      <point x="318.0" y="90" type="line"/>
      <point x="318.0" y="302" type="line"/>
      <point x="601.0" y="302" type="line" smooth="yes"/>
      <point x="677.0" y="302"/>
      <point x="691.0" y="270"/>
      <point x="691.0" y="204" type="curve" smooth="yes"/>
      <point x="691.0" y="90" type="line"/>
      <point x="701.0" y="90" type="line"/>
      <point x="701.0" y="204" type="line" smooth="yes"/>
      <point x="701.0" y="274"/>
      <point x="683.0" y="311"/>
      <point x="601.0" y="311" type="curve" smooth="yes"/>
      <point x="590.0" y="311" type="line"/>
      <point x="638.0" y="326"/>
      <point x="650.0" y="366"/>
      <point x="650.0" y="427" type="curve" smooth="yes"/>
      <point x="650.0" y="476" type="line" smooth="yes"/>
      <point x="650.0" y="542"/>
      <point x="614.0" y="590"/>
      <point x="536.0" y="590" type="curve" smooth="yes"/>
      <point x="308.0" y="590" type="line"/>
      <point x="308.0" y="90" type="line"/>
    </contour>
  </outline>
</glyph>
<glyph name="U.s_v" format="2">
  <advance width="1000"/>
  <unicode hex="E255"/>
  <outline>
    <contour>
      <point x="310.0" y="590" type="line"/>
      <point x="310.0" y="213" type="line" smooth="yes"/>
      <point x="310.0" y="132"/>
      <point x="350.0" y="78"/>
      <point x="497.0" y="78" type="curve" smooth="yes"/>
      <point x="650.0" y="78"/>
      <point x="693.0" y="132"/>
      <point x="693.0" y="213" type="curve" smooth="yes"/>
      <point x="693.0" y="590" type="line"/>
      <point x="683.0" y="590" type="line"/>
      <point x="683.0" y="213" type="line" smooth="yes"/>
      <point x="683.0" y="138"/>
      <point x="642.0" y="88"/>
      <point x="497.0" y="88" type="curve" smooth="yes"/>
      <point x="358.0" y="88"/>
      <point x="320.0" y="138"/>
      <point x="320.0" y="213" type="curve" smooth="yes"/>
      <point x="320.0" y="590" type="line"/>
    </contour>
  </outline>
</glyph>
<glyph name="I.salt_s_v" format="2">
  <advance width="1000"/>
  <unicode hex="E25B"/>
  <outline>
    <contour>
      <point x="495.0" y="590" type="line"/>
      <point x="495.0" y="90" type="line"/>
      <point x="505.0" y="90" type="line"/>
      <point x="505.0" y="590" type="line"/>
    </contour>
  </outline>
</glyph>
<glyph name="N.salt_s_v" format="2">
  <advance width="1000"/>
  <unicode hex="E25C"/>
  <outline>
    <contour>
      <point x="690.0" y="90" type="line"/>
      <point x="690.0" y="467" type="line" smooth="yes"/>
      <point x="690.0" y="548"/>
      <point x="649.0" y="602"/>
      <point x="499.0" y="602" type="curve" smooth="yes"/>
      <point x="349.0" y="602"/>
      <point x="307.0" y="548"/>
      <point x="307.0" y="467" type="curve" smooth="yes"/>
      <point x="307.0" y="90" type="line"/>
      <point x="317.0" y="90" type="line"/>
      <point x="317.0" y="467" type="line" smooth="yes"/>
      <point x="317.0" y="542"/>
      <point x="357.0" y="592"/>
      <point x="499.0" y="592" type="curve" smooth="yes"/>
      <point x="641.0" y="592"/>
      <point x="680.0" y="542"/>
      <point x="680.0" y="467" type="curve" smooth="yes"/>
      <point x="680.0" y="90" type="line"/>
    </contour>
  </outline>
</glyph>
<glyph name="percent.v" format="1">
  <advance width="1000"/>
  <unicode hex="FF05"/>
  <outline>
    <contour>
      <point x="447.0" y="584" type="line" smooth="yes"/>
      <point x="447.0" y="642"/>
      <point x="419.0" y="664"/>
      <point x="347.0" y="664" type="curve" smooth="yes"/>
      <point x="276.0" y="664"/>
      <point x="246.0" y="642"/>
      <point x="246.0" y="584" type="curve" smooth="yes"/>
      <point x="246.0" y="487" type="line" smooth="yes"/>
      <point x="246.0" y="429"/>
      <point x="276.0" y="408"/>
      <point x="347.0" y="408" type="curve" smooth="yes"/>
      <point x="419.0" y="408"/>
      <point x="447.0" y="429"/>
      <point x="447.0" y="487" type="curve" smooth="yes"/>
    </contour>
    <contour>
      <point x="347.0" y="418" type="curve" smooth="yes"/>
      <point x="286.0" y="418"/>
      <point x="256.0" y="435"/>
      <point x="256.0" y="487" type="curve" smooth="yes"/>
      <point x="256.0" y="584" type="line" smooth="yes"/>
      <point x="256.0" y="636"/>
      <point x="286.0" y="654"/>
      <point x="347.0" y="654" type="curve" smooth="yes"/>
      <point x="409.0" y="654"/>
      <point x="437.0" y="636"/>
      <point x="437.0" y="584" type="curve" smooth="yes"/>
      <point x="437.0" y="487" type="line" smooth="yes"/>
      <point x="437.0" y="435"/>
      <point x="409.0" y="418"/>
    </contour>
    <contour>
      <point x="326.0" y="90" type="line"/>
      <point x="687.0" y="630" type="line"/>
      <point x="675.0" y="630" type="line"/>
      <point x="314.0" y="90" type="line"/>
    </contour>
    <contour>
      <point x="754.0" y="232" type="line" smooth="yes"/>
      <point x="754.0" y="290"/>
      <point x="726.0" y="312"/>
      <point x="654.0" y="312" type="curve" smooth="yes"/>
      <point x="583.0" y="312"/>
      <point x="553.0" y="290"/>
      <point x="553.0" y="232" type="curve" smooth="yes"/>
      <point x="553.0" y="135" type="line" smooth="yes"/>
      <point x="553.0" y="77"/>
      <point x="583.0" y="56"/>
      <point x="654.0" y="56" type="curve" smooth="yes"/>
      <point x="726.0" y="56"/>
      <point x="754.0" y="77"/>
      <point x="754.0" y="135" type="curve" smooth="yes"/>
    </contour>
    <contour>
      <point x="654.0" y="66" type="curve" smooth="yes"/>
      <point x="593.0" y="66"/>
      <point x="563.0" y="83"/>
      <point x="563.0" y="135" type="curve" smooth="yes"/>
      <point x="563.0" y="232" type="line" smooth="yes"/>
      <point x="563.0" y="284"/>
      <point x="593.0" y="302"/>
      <point x="654.0" y="302" type="curve" smooth="yes"/>
      <point x="716.0" y="302"/>
      <point x="744.0" y="284"/>
      <point x="744.0" y="232" type="curve" smooth="yes"/>
      <point x="744.0" y="135" type="line" smooth="yes"/>
      <point x="744.0" y="83"/>
      <point x="716.0" y="66"/>
    </contour>
  </outline>
</glyph>
<glyph name="ampersand.v" format="1">
  <advance width="1000"/>
  <unicode hex="FF06"/>
  <outline>
    <contour>
      <point x="407.0" y="90" type="curve" smooth="yes"/>
      <point x="613.0" y="90" type="line" smooth="yes"/>
      <point x="672.0" y="90"/>
      <point x="706.0" y="119"/>
      <point x="706.0" y="181" type="curve" smooth="yes"/>
      <point x="706.0" y="306" type="line"/>
      <point x="771.0" y="306" type="line"/>
      <point x="771.0" y="316" type="line"/>
      <point x="696.0" y="316" type="line"/>
      <point x="696.0" y="181" type="line" smooth="yes"/>
      <point x="696.0" y="127"/>
      <point x="666.0" y="100"/>
      <point x="613.0" y="100" type="curve" smooth="yes"/>
      <point x="413.0" y="100" type="line" smooth="yes"/>
      <point x="334.0" y="100"/>
      <point x="300.0" y="130"/>
      <point x="300.0" y="198" type="curve" smooth="yes"/>
      <point x="300.0" y="259" type="line" smooth="yes"/>
      <point x="300.0" y="319"/>
      <point x="336.0" y="363"/>
      <point x="412.0" y="363" type="curve" smooth="yes"/>
      <point x="479.0" y="363" type="line"/>
      <point x="479.0" y="373" type="line"/>
      <point x="469.0" y="373" type="line" smooth="yes"/>
      <point x="406.0" y="373"/>
      <point x="377.0" y="404"/>
      <point x="377.0" y="469" type="curve" smooth="yes"/>
      <point x="377.0" y="518" type="line" smooth="yes"/>
      <point x="377.0" y="590"/>
      <point x="410.0" y="620"/>
      <point x="485.0" y="620" type="curve" smooth="yes"/>
      <point x="570.0" y="620" type="line"/>
      <point x="570.0" y="630" type="line"/>
      <point x="485.0" y="630" type="line" smooth="yes"/>
      <point x="404.0" y="630"/>
      <point x="367.0" y="598"/>
      <point x="367.0" y="520" type="curve" smooth="yes"/>
      <point x="367.0" y="469" type="line" smooth="yes"/>
      <point x="367.0" y="417"/>
      <point x="384.0" y="386"/>
      <point x="419.0" y="372" type="curve"/>
      <point x="412.0" y="372" type="line" smooth="yes"/>
      <point x="329.0" y="372"/>
      <point x="290.0" y="325"/>
      <point x="290.0" y="259" type="curve" smooth="yes"/>
      <point x="290.0" y="198" type="line" smooth="yes"/>
      <point x="290.0" y="124"/>
      <point x="328.0" y="90"/>
    </contour>
  </outline>
</glyph>
<glyph name="one.v" format="1">
  <advance width="1000"/>
  <unicode hex="FF11"/>
  <outline>
    <contour>
      <point x="507.0" y="100" type="line"/>
      <point x="357.0" y="100" type="line"/>
      <point x="357.0" y="90" type="line"/>
      <point x="671.0" y="90" type="line"/>
      <point x="671.0" y="100" type="line"/>
      <point x="517.0" y="100" type="line"/>
      <point x="517.0" y="630" type="line"/>
      <point x="357.0" y="630" type="line"/>
      <point x="357.0" y="620" type="line"/>
      <point x="507.0" y="620" type="line"/>
    </contour>
  </outline>
</glyph>
<glyph name="two.v" format="1">
  <advance width="1000"/>
  <unicode hex="FF12"/>
  <outline>
    <contour>
      <point x="651.0" y="402" type="curve" smooth="yes"/>
      <point x="364.0" y="330" type="line" smooth="yes"/>
      <point x="323.0" y="320"/>
      <point x="309.0" y="297"/>
      <point x="309.0" y="248" type="curve" smooth="yes"/>
      <point x="309.0" y="90" type="line"/>
      <point x="710.0" y="90" type="line"/>
      <point x="710.0" y="100" type="line"/>
      <point x="318.0" y="100" type="line"/>
      <point x="318.0" y="248" type="line" smooth="yes"/>
      <point x="318.0" y="293"/>
      <point x="329.0" y="311"/>
      <point x="368.0" y="321" type="curve" smooth="yes"/>
      <point x="655.0" y="393" type="line" smooth="yes"/>
      <point x="677.0" y="399"/>
      <point x="690.0" y="418"/>
      <point x="690.0" y="449" type="curve" smooth="yes"/>
      <point x="690.0" y="543" type="line" smooth="yes"/>
      <point x="690.0" y="610"/>
      <point x="651.0" y="630"/>
      <point x="583.0" y="630" type="curve" smooth="yes"/>
      <point x="310.0" y="630" type="line"/>
      <point x="310.0" y="620" type="line"/>
      <point x="583.0" y="620" type="line" smooth="yes"/>
      <point x="643.0" y="620"/>
      <point x="680.0" y="604"/>
      <point x="680.0" y="543" type="curve" smooth="yes"/>
      <point x="680.0" y="449" type="line" smooth="yes"/>
      <point x="680.0" y="424"/>
      <point x="669.0" y="407"/>
    </contour>
  </outline>
</glyph>
<glyph name="four.v" format="2">
  <advance width="1000"/>
  <unicode hex="FF14"/>
  <outline>
    <contour>
      <point x="682.0" y="90" type="line"/>
      <point x="692.0" y="90" type="line"/>
      <point x="692.0" y="630" type="line"/>
      <point x="682.0" y="630" type="line"/>
      <point x="682.0" y="277" type="line"/>
      <point x="420.0" y="277" type="line" smooth="yes"/>
      <point x="351.0" y="277"/>
      <point x="319.0" y="308"/>
      <point x="319.0" y="372" type="curve" smooth="yes"/>
      <point x="319.0" y="630" type="line"/>
      <point x="309.0" y="630" type="line"/>
      <point x="309.0" y="372" type="line" smooth="yes"/>
      <point x="309.0" y="302"/>
      <point x="343.0" y="267"/>
      <point x="420.0" y="267" type="curve" smooth="yes"/>
      <point x="682.0" y="267" type="line"/>
    </contour>
  </outline>
</glyph>
<glyph name="six.v" format="1">
  <advance width="1000"/>
  <unicode hex="FF16"/>
  <outline>
    <contour>
      <point x="507.0" y="71" type="curve" smooth="yes"/>
      <point x="644.0" y="71"/>
      <point x="697.0" y="106"/>
      <point x="697.0" y="197" type="curve" smooth="yes"/>
      <point x="697.0" y="265" type="line" smooth="yes"/>
      <point x="697.0" y="350"/>
      <point x="644.0" y="383"/>
      <point x="510.0" y="383" type="curve" smooth="yes"/>
      <point x="395.0" y="383"/>
      <point x="334.0" y="364"/>
      <point x="313.0" y="316" type="curve"/>
      <point x="313.0" y="515" type="line" smooth="yes"/>
      <point x="313.0" y="598"/>
      <point x="360.0" y="620"/>
      <point x="437.0" y="620" type="curve" smooth="yes"/>
      <point x="639.0" y="620" type="line"/>
      <point x="639.0" y="630" type="line"/>
      <point x="437.0" y="630" type="line" smooth="yes"/>
      <point x="352.0" y="630"/>
      <point x="303.0" y="604"/>
      <point x="303.0" y="515" type="curve" smooth="yes"/>
      <point x="303.0" y="197" type="line" smooth="yes"/>
      <point x="303.0" y="106"/>
      <point x="360.0" y="71"/>
    </contour>
    <contour>
      <point x="507.0" y="81" type="curve" smooth="yes"/>
      <point x="368.0" y="81"/>
      <point x="313.0" y="114"/>
      <point x="313.0" y="197" type="curve" smooth="yes"/>
      <point x="313.0" y="268" type="line"/>
      <point x="313.0" y="343"/>
      <point x="368.0" y="373"/>
      <point x="510.0" y="373" type="curve" smooth="yes"/>
      <point x="637.0" y="373"/>
      <point x="687.0" y="343"/>
      <point x="687.0" y="265" type="curve" smooth="yes"/>
      <point x="687.0" y="197" type="line" smooth="yes"/>
      <point x="687.0" y="114"/>
      <point x="636.0" y="81"/>
    </contour>
  </outline>
</glyph>
<glyph name="eight.v" format="1">
  <advance width="1000"/>
  <unicode hex="FF18"/>
  <outline>
    <contour>
      <point x="501.0" y="67" type="curve" smooth="yes"/>
      <point x="660.0" y="67"/>
      <point x="700.0" y="111"/>
      <point x="700.0" y="173" type="curve" smooth="yes"/>
      <point x="700.0" y="266" type="line" smooth="yes"/>
      <point x="700.0" y="316"/>
      <point x="672.0" y="356"/>
      <point x="577.0" y="369" type="curve"/>
      <point x="641.0" y="380"/>
      <point x="667.0" y="408"/>
      <point x="667.0" y="455" type="curve" smooth="yes"/>
      <point x="667.0" y="550" type="line" smooth="yes"/>
      <point x="667.0" y="620"/>
      <point x="618.0" y="652"/>
      <point x="501.0" y="652" type="curve" smooth="yes"/>
      <point x="384.0" y="652"/>
      <point x="334.0" y="620"/>
      <point x="334.0" y="558" type="curve" smooth="yes"/>
      <point x="334.0" y="455" type="line" smooth="yes"/>
      <point x="334.0" y="408"/>
      <point x="361.0" y="380"/>
      <point x="425.0" y="369" type="curve"/>
      <point x="330.0" y="356"/>
      <point x="301.0" y="315"/>
      <point x="301.0" y="265" type="curve" smooth="yes"/>
      <point x="301.0" y="173" type="line" smooth="yes"/>
      <point x="301.0" y="111"/>
      <point x="342.0" y="67"/>
    </contour>
    <contour>
      <point x="344.0" y="558" type="line" smooth="yes"/>
      <point x="344.0" y="616"/>
      <point x="396.0" y="642"/>
      <point x="501.0" y="642" type="curve" smooth="yes"/>
      <point x="606.0" y="642"/>
      <point x="657.0" y="616"/>
      <point x="657.0" y="550" type="curve" smooth="yes"/>
      <point x="657.0" y="455" type="line" smooth="yes"/>
      <point x="657.0" y="397"/>
      <point x="607.0" y="374"/>
      <point x="501.0" y="374" type="curve" smooth="yes"/>
      <point x="395.0" y="374"/>
      <point x="344.0" y="397"/>
      <point x="344.0" y="455" type="curve" smooth="yes"/>
    </contour>
    <contour>
      <point x="311.0" y="265" type="line" smooth="yes"/>
      <point x="311.0" y="323"/>
      <point x="359.0" y="364"/>
      <point x="501.0" y="364" type="curve" smooth="yes"/>
      <point x="643.0" y="364"/>
      <point x="690.0" y="324"/>
      <point x="690.0" y="266" type="curve" smooth="yes"/>
      <point x="690.0" y="173" type="line" smooth="yes"/>
      <point x="690.0" y="115"/>
      <point x="644.0" y="77"/>
      <point x="501.0" y="77" type="curve" smooth="yes"/>
      <point x="358.0" y="77"/>
      <point x="311.0" y="115"/>
      <point x="311.0" y="173" type="curve" smooth="yes"/>
    </contour>
  </outline>
</glyph>
<glyph name="nine.v" format="2">
  <advance width="1000"/>
  <unicode hex="FF19"/>
  <outline>
    <contour>
      <point x="361.0" y="90" type="line"/>
      <point x="563.0" y="90" type="line" smooth="yes"/>
      <point x="648.0" y="90"/>
      <point x="697.0" y="116"/>
      <point x="697.0" y="205" type="curve" smooth="yes"/>
      <point x="697.0" y="523" type="line" smooth="yes"/>
      <point x="697.0" y="614"/>
      <point x="640.0" y="649"/>
      <point x="493.0" y="649" type="curve" smooth="yes"/>
      <point x="356.0" y="649"/>
      <point x="303.0" y="614"/>
      <point x="303.0" y="523" type="curve" smooth="yes"/>
      <point x="303.0" y="455" type="line" smooth="yes"/>
      <point x="303.0" y="370"/>
      <point x="356.0" y="337"/>
      <point x="490.0" y="337" type="curve" smooth="yes"/>
      <point x="605.0" y="337"/>
      <point x="666.0" y="356"/>
      <point x="687.0" y="404" type="curve"/>
      <point x="687.0" y="205" type="line" smooth="yes"/>
      <point x="687.0" y="122"/>
      <point x="640.0" y="100"/>
      <point x="563.0" y="100" type="curve" smooth="yes"/>
      <point x="361.0" y="100" type="line"/>
    </contour>
    <contour>
      <point x="490.0" y="347" type="curve" smooth="yes"/>
      <point x="363.0" y="347"/>
      <point x="313.0" y="377"/>
      <point x="313.0" y="455" type="curve" smooth="yes"/>
      <point x="313.0" y="523" type="line" smooth="yes"/>
      <point x="313.0" y="606"/>
      <point x="364.0" y="639"/>
      <point x="493.0" y="639" type="curve" smooth="yes"/>
      <point x="632.0" y="639"/>
      <point x="687.0" y="606"/>
      <point x="687.0" y="523" type="curve" smooth="yes"/>
      <point x="687.0" y="452" type="line"/>
      <point x="687.0" y="377"/>
      <point x="632.0" y="347"/>
    </contour>
  </outline>
</glyph>
<glyph name="B.v" format="1">
  <advance width="1000"/>
  <unicode hex="FF22"/>
  <outline>
    <contour>
      <point x="309.0" y="90" type="line"/>
      <point x="569.0" y="90" type="line" smooth="yes"/>
      <point x="681.0" y="90"/>
      <point x="700.0" y="131"/>
      <point x="700.0" y="190" type="curve" smooth="yes"/>
      <point x="700.0" y="254" type="line" smooth="yes"/>
      <point x="700.0" y="320"/>
      <point x="681.0" y="369"/>
      <point x="570.0" y="369" type="curve" smooth="yes"/>
      <point x="570.0" y="369" type="line"/>
      <point x="627.0" y="384"/>
      <point x="634.0" y="420"/>
      <point x="634.0" y="460" type="curve" smooth="yes"/>
      <point x="634.0" y="524" type="line" smooth="yes"/>
      <point x="634.0" y="582"/>
      <point x="614.0" y="630"/>
      <point x="503.0" y="630" type="curve" smooth="yes"/>
      <point x="309.0" y="630" type="line"/>
    </contour>
    <contour>
      <point x="503.0" y="620" type="line" smooth="yes"/>
      <point x="604.0" y="620"/>
      <point x="624.0" y="578"/>
      <point x="624.0" y="524" type="curve" smooth="yes"/>
      <point x="624.0" y="460" type="line" smooth="yes"/>
      <point x="624.0" y="412"/>
      <point x="613.0" y="369"/>
      <point x="503.0" y="369" type="curve" smooth="yes"/>
      <point x="319.0" y="369" type="line"/>
      <point x="319.0" y="620" type="line"/>
    </contour>
    <contour>
      <point x="570.0" y="359" type="line" smooth="yes"/>
      <point x="671.0" y="359"/>
      <point x="690.0" y="314"/>
      <point x="690.0" y="254" type="curve" smooth="yes"/>
      <point x="690.0" y="190" type="line" smooth="yes"/>
      <point x="690.0" y="135"/>
      <point x="669.0" y="100"/>
      <point x="569.0" y="100" type="curve" smooth="yes"/>
      <point x="319.0" y="100" type="line"/>
      <point x="319.0" y="359" type="line"/>
    </contour>
  </outline>
</glyph>
<glyph name="C.v" format="1">
  <advance width="1000"/>
  <unicode hex="FF23"/>
  <outline>
    <contour>
      <point x="701.0" y="100" type="line"/>
      <point x="465.0" y="100" type="line" smooth="yes"/>
      <point x="345.0" y="100"/>
      <point x="315.0" y="132"/>
      <point x="315.0" y="219" type="curve" smooth="yes"/>
      <point x="315.0" y="499" type="line" smooth="yes"/>
      <point x="315.0" y="588"/>
      <point x="347.0" y="620"/>
      <point x="465.0" y="620" type="curve" smooth="yes"/>
      <point x="701.0" y="620" type="line"/>
      <point x="701.0" y="630" type="line"/>
      <point x="465.0" y="630" type="line" smooth="yes"/>
      <point x="337.0" y="630"/>
      <point x="305.0" y="594"/>
      <point x="305.0" y="499" type="curve" smooth="yes"/>
      <point x="305.0" y="219" type="line" smooth="yes"/>
      <point x="305.0" y="126"/>
      <point x="335.0" y="90"/>
      <point x="465.0" y="90" type="curve" smooth="yes"/>
      <point x="701.0" y="90" type="line"/>
    </contour>
  </outline>
</glyph>
<glyph name="F.v" format="1">
  <advance width="1000"/>
  <unicode hex="FF26"/>
  <outline>
    <contour>
      <point x="310.0" y="90" type="line"/>
      <point x="320.0" y="90" type="line"/>
      <point x="320.0" y="324" type="line"/>
      <point x="620.0" y="324" type="line"/>
      <point x="620.0" y="334" type="line"/>
      <point x="320.0" y="334" type="line"/>
      <point x="320.0" y="620" type="line"/>
      <point x="701.0" y="620" type="line"/>
      <point x="701.0" y="630" type="line"/>
      <point x="310.0" y="630" type="line"/>
    </contour>
  </outline>
</glyph>
<glyph name="H.v" format="2">
  <advance width="1000"/>
  <unicode hex="FF28"/>
  <outline>
    <contour>
      <point x="309.0" y="90" type="line"/>
      <point x="319.0" y="90" type="line"/>
      <point x="319.0" y="355" type="line"/>
      <point x="681.0" y="355" type="line"/>
      <point x="681.0" y="90" type="line"/>
      <point x="691.0" y="90" type="line"/>
      <point x="691.0" y="630" type="line"/>
      <point x="681.0" y="630" type="line"/>
      <point x="681.0" y="365" type="line"/>
      <point x="319.0" y="365" type="line"/>
      <point x="319.0" y="630" type="line"/>
      <point x="309.0" y="630" type="line"/>
    </contour>
  </outline>
</glyph>
<glyph name="I.v" format="1">
  <advance width="1000"/>
  <unicode hex="FF29"/>
  <outline>
    <contour>
      <point x="701.0" y="90" type="line"/>
      <point x="701.0" y="100" type="line"/>
      <point x="505.0" y="100" type="line"/>
      <point x="505.0" y="620" type="line"/>
      <point x="701.0" y="620" type="line"/>
      <point x="701.0" y="630" type="line"/>
      <point x="299.0" y="630" type="line"/>
      <point x="299.0" y="620" type="line"/>
      <point x="495.0" y="620" type="line"/>
      <point x="495.0" y="100" type="line"/>
      <point x="299.0" y="100" type="line"/>
      <point x="299.0" y="90" type="line"/>
    </contour>
  </outline>
</glyph>
<glyph name="J.v" format="1">
  <advance width="1000"/>
  <unicode hex="FF2A"/>
  <outline>
    <contour>
      <point x="680.0" y="630" type="line"/>
      <point x="680.0" y="213" type="line" smooth="yes"/>
      <point x="680.0" y="138"/>
      <point x="639.0" y="88"/>
      <point x="501.0" y="88" type="curve" smooth="yes"/>
      <point x="356.0" y="88"/>
      <point x="314.0" y="137"/>
      <point x="314.0" y="213" type="curve" smooth="yes"/>
      <point x="314.0" y="297" type="line"/>
      <point x="304.0" y="297" type="line"/>
      <point x="304.0" y="213" type="line" smooth="yes"/>
      <point x="304.0" y="133"/>
      <point x="343.0" y="78"/>
      <point x="501.0" y="78" type="curve" smooth="yes"/>
      <point x="649.0" y="78"/>
      <point x="690.0" y="134"/>
      <point x="690.0" y="213" type="curve" smooth="yes"/>
      <point x="690.0" y="630" type="line"/>
    </contour>
  </outline>
</glyph>
<glyph name="K.v" format="1">
  <advance width="1000"/>
  <unicode hex="FF2B"/>
  <outline>
    <contour>
      <point x="320.0" y="90" type="line"/>
      <point x="320.0" y="354" type="line"/>
      <point x="572.0" y="354" type="line" smooth="yes"/>
      <point x="646.0" y="354"/>
      <point x="683.0" y="330"/>
      <point x="683.0" y="266" type="curve" smooth="yes"/>
      <point x="683.0" y="90" type="line"/>
      <point x="693.0" y="90" type="line"/>
      <point x="693.0" y="266" type="line" smooth="yes"/>
      <point x="693.0" y="336"/>
      <point x="654.0" y="364"/>
      <point x="572.0" y="364" type="curve" smooth="yes"/>
      <point x="531.0" y="364" type="line"/>
      <point x="646.0" y="630" type="line"/>
      <point x="635.0" y="630" type="line"/>
      <point x="520.0" y="364" type="line"/>
      <point x="320.0" y="364" type="line"/>
      <point x="320.0" y="630" type="line"/>
      <point x="310.0" y="630" type="line"/>
      <point x="310.0" y="90" type="line"/>
    </contour>
  </outline>
</glyph>
<glyph name="O.v" format="2">
  <advance width="1000"/>
  <unicode hex="FF2F"/>
  <outline>
    <contour>
      <point x="696.0" y="212" type="curve" smooth="yes"/>
      <point x="696.0" y="507" type="line" smooth="yes"/>
      <point x="696.0" y="588"/>
      <point x="651.0" y="642"/>
      <point x="499.0" y="642" type="curve" smooth="yes"/>
      <point x="347.0" y="642"/>
      <point x="305.0" y="588"/>
      <point x="305.0" y="507" type="curve" smooth="yes"/>
      <point x="305.0" y="212" type="line" smooth="yes"/>
      <point x="305.0" y="131"/>
      <point x="347.0" y="77"/>
      <point x="499.0" y="77" type="curve" smooth="yes"/>
      <point x="651.0" y="77"/>
      <point x="696.0" y="131"/>
    </contour>
    <contour>
      <point x="315.0" y="212" type="curve" smooth="yes"/>
      <point x="315.0" y="507" type="line" smooth="yes"/>
      <point x="315.0" y="582"/>
      <point x="355.0" y="632"/>
      <point x="499.0" y="632" type="curve" smooth="yes"/>
      <point x="643.0" y="632"/>
      <point x="686.0" y="582"/>
      <point x="686.0" y="507" type="curve" smooth="yes"/>
      <point x="686.0" y="212" type="line" smooth="yes"/>
      <point x="686.0" y="137"/>
      <point x="643.0" y="87"/>
      <point x="499.0" y="87" type="curve" smooth="yes"/>
      <point x="355.0" y="87"/>
      <point x="315.0" y="137"/>
    </contour>
  </outline>
</glyph>
<glyph name="Q.v" format="2">
  <advance width="1000"/>
  <unicode hex="FF31"/>
  <outline>
    <contour>
      <point x="494.0" y="0" type="line"/>
      <point x="504.0" y="0" type="line"/>
      <point x="504.0" y="77" type="line"/>
      <point x="652.0" y="78"/>
      <point x="696.0" y="132"/>
      <point x="696.0" y="212" type="curve" smooth="yes"/>
      <point x="696.0" y="507" type="line" smooth="yes"/>
      <point x="696.0" y="588"/>
      <point x="651.0" y="642"/>
      <point x="499.0" y="642" type="curve" smooth="yes"/>
      <point x="347.0" y="642"/>
      <point x="305.0" y="588"/>
      <point x="305.0" y="507" type="curve" smooth="yes"/>
      <point x="305.0" y="212" type="line" smooth="yes"/>
      <point x="305.0" y="132"/>
      <point x="346.0" y="78"/>
      <point x="494.0" y="77" type="curve"/>
    </contour>
    <contour>
      <point x="315.0" y="212" type="curve" smooth="yes"/>
      <point x="315.0" y="507" type="line" smooth="yes"/>
      <point x="315.0" y="582"/>
      <point x="355.0" y="632"/>
      <point x="499.0" y="632" type="curve" smooth="yes"/>
      <point x="643.0" y="632"/>
      <point x="686.0" y="582"/>
      <point x="686.0" y="507" type="curve" smooth="yes"/>
      <point x="686.0" y="212" type="line" smooth="yes"/>
      <point x="686.0" y="137"/>
      <point x="643.0" y="87"/>
      <point x="499.0" y="87" type="curve" smooth="yes"/>
      <point x="355.0" y="87"/>
      <point x="315.0" y="137"/>
    </contour>
  </outline>
</glyph>
<glyph name="R.v" format="1">
  <advance width="1000"/>
  <unicode hex="FF32"/>
  <outline>
    <contour>
      <point x="536.0" y="620" type="line" smooth="yes"/>
      <point x="607.0" y="620"/>
      <point x="640.0" y="578"/>
      <point x="640.0" y="516" type="curve" smooth="yes"/>
      <point x="640.0" y="446" type="line" smooth="yes"/>
      <point x="640.0" y="372"/>
      <point x="619.0" y="331"/>
      <point x="536.0" y="331" type="curve" smooth="yes"/>
      <point x="318.0" y="331" type="line"/>
      <point x="318.0" y="620" type="line"/>
    </contour>
    <contour>
      <point x="318.0" y="90" type="line"/>
      <point x="318.0" y="322" type="line"/>
      <point x="601.0" y="322" type="line" smooth="yes"/>
      <point x="677.0" y="322"/>
      <point x="691.0" y="290"/>
      <point x="691.0" y="224" type="curve" smooth="yes"/>
      <point x="691.0" y="90" type="line"/>
      <point x="701.0" y="90" type="line"/>
      <point x="701.0" y="224" type="line" smooth="yes"/>
      <point x="701.0" y="294"/>
      <point x="683.0" y="331"/>
      <point x="601.0" y="331" type="curve" smooth="yes"/>
      <point x="590.0" y="331" type="line"/>
      <point x="638.0" y="346"/>
      <point x="650.0" y="386"/>
      <point x="650.0" y="447" type="curve" smooth="yes"/>
      <point x="650.0" y="516" type="line" smooth="yes"/>
      <point x="650.0" y="582"/>
      <point x="614.0" y="630"/>
      <point x="536.0" y="630" type="curve" smooth="yes"/>
      <point x="308.0" y="630" type="line"/>
      <point x="308.0" y="90" type="line"/>
    </contour>
  </outline>
</glyph>
<glyph name="S.v" format="1">
  <advance width="1000"/>
  <unicode hex="FF33"/>
  <outline>
    <contour>
      <point x="685.0" y="630" type="line"/>
      <point x="411.0" y="630" type="line" smooth="yes"/>
      <point x="348.0" y="630"/>
      <point x="309.0" y="595"/>
      <point x="309.0" y="539" type="curve" smooth="yes"/>
      <point x="309.0" y="447" type="line" smooth="yes"/>
      <point x="309.0" y="402"/>
      <point x="339.0" y="371"/>
      <point x="388.0" y="366" type="curve" smooth="yes"/>
      <point x="601.0" y="345" type="line" smooth="yes"/>
      <point x="656.0" y="340"/>
      <point x="682.0" y="312"/>
      <point x="682.0" y="264" type="curve" smooth="yes"/>
      <point x="682.0" y="181" type="line" smooth="yes"/>
      <point x="682.0" y="131"/>
      <point x="643.0" y="100"/>
      <point x="581.0" y="100" type="curve" smooth="yes"/>
      <point x="290.0" y="100" type="line"/>
      <point x="290.0" y="90" type="line"/>
      <point x="581.0" y="90" type="line" smooth="yes"/>
      <point x="649.0" y="90"/>
      <point x="692.0" y="125"/>
      <point x="692.0" y="181" type="curve" smooth="yes"/>
      <point x="692.0" y="264" type="line" smooth="yes"/>
      <point x="692.0" y="318"/>
      <point x="663.0" y="349"/>
      <point x="603.0" y="355" type="curve" smooth="yes"/>
      <point x="390.0" y="376" type="line" smooth="yes"/>
      <point x="346.0" y="380"/>
      <point x="319.0" y="407"/>
      <point x="319.0" y="447" type="curve" smooth="yes"/>
      <point x="319.0" y="539" type="line" smooth="yes"/>
      <point x="319.0" y="589"/>
      <point x="354.0" y="620"/>
      <point x="411.0" y="620" type="curve" smooth="yes"/>
      <point x="685.0" y="620" type="line"/>
    </contour>
  </outline>
</glyph>
<glyph name="T.v" format="2">
  <advance width="1000"/>
  <unicode hex="FF34"/>
  <outline>
    <contour>
      <point x="495.0" y="90" type="line"/>
      <point x="505.0" y="90" type="line"/>
      <point x="505.0" y="620" type="line"/>
      <point x="710.0" y="620" type="line"/>
      <point x="710.0" y="630" type="line"/>
      <point x="290.0" y="630" type="line"/>
      <point x="290.0" y="620" type="line"/>
      <point x="495.0" y="620" type="line"/>
    </contour>
  </outline>
</glyph>
